<?xml version="1.0" encoding="utf-8"?>
<svg xmlns="http://www.w3.org/2000/svg" xmlns:xlink="http://www.w3.org/1999/xlink" width="900" height="600" viewBox="0 0 3600 2400">
<defs>
  <clipPath id="clip1200">
    <rect x="0" y="0" width="3600" height="2400"/>
  </clipPath>
</defs>
<path clip-path="url(#clip1200)" d="
M0 2400 L3600 2400 L3600 0 L0 0  Z
  " fill="#ffffff" fill-rule="evenodd" fill-opacity="1"/>
<defs>
  <clipPath id="clip1201">
    <rect x="720" y="0" width="2521" height="2400"/>
  </clipPath>
</defs>
<path clip-path="url(#clip1200)" d="
M523.139 2193.49 L912.222 2193.49 L912.222 70.8661 L523.139 70.8661  Z
  " fill="#ffffff" fill-rule="evenodd" fill-opacity="1"/>
<defs>
  <clipPath id="clip1202">
    <rect x="523" y="70" width="390" height="2124"/>
  </clipPath>
</defs>
<polyline clip-path="url(#clip1202)" style="stroke:#000000; stroke-width:2.4; stroke-opacity:0.1; fill:none" points="
  717.681,2193.49 717.681,70.8661 
  "/>
<polyline clip-path="url(#clip1202)" style="stroke:#000000; stroke-width:2.4; stroke-opacity:0.1; fill:none" points="
  523.139,1932.77 912.222,1932.77 
  "/>
<polyline clip-path="url(#clip1202)" style="stroke:#000000; stroke-width:2.4; stroke-opacity:0.1; fill:none" points="
  523.139,1646.29 912.222,1646.29 
  "/>
<polyline clip-path="url(#clip1202)" style="stroke:#000000; stroke-width:2.4; stroke-opacity:0.1; fill:none" points="
  523.139,1359.82 912.222,1359.82 
  "/>
<polyline clip-path="url(#clip1202)" style="stroke:#000000; stroke-width:2.4; stroke-opacity:0.1; fill:none" points="
  523.139,1073.34 912.222,1073.34 
  "/>
<polyline clip-path="url(#clip1202)" style="stroke:#000000; stroke-width:2.4; stroke-opacity:0.1; fill:none" points="
  523.139,786.868 912.222,786.868 
  "/>
<polyline clip-path="url(#clip1202)" style="stroke:#000000; stroke-width:2.4; stroke-opacity:0.1; fill:none" points="
  523.139,500.392 912.222,500.392 
  "/>
<polyline clip-path="url(#clip1202)" style="stroke:#000000; stroke-width:2.4; stroke-opacity:0.1; fill:none" points="
  523.139,213.916 912.222,213.916 
  "/>
<polyline clip-path="url(#clip1200)" style="stroke:#000000; stroke-width:4.8; stroke-opacity:1; fill:none" points="
  523.139,2193.49 912.222,2193.49 
  "/>
<polyline clip-path="url(#clip1200)" style="stroke:#000000; stroke-width:4.8; stroke-opacity:1; fill:none" points="
  523.139,2193.49 523.139,70.8661 
  "/>
<polyline clip-path="url(#clip1200)" style="stroke:#000000; stroke-width:4.8; stroke-opacity:1; fill:none" points="
  717.681,2193.49 717.681,2161.65 
  "/>
<polyline clip-path="url(#clip1200)" style="stroke:#000000; stroke-width:4.8; stroke-opacity:1; fill:none" points="
  523.139,1932.77 528.976,1932.77 
  "/>
<polyline clip-path="url(#clip1200)" style="stroke:#000000; stroke-width:4.8; stroke-opacity:1; fill:none" points="
  523.139,1646.29 528.976,1646.29 
  "/>
<polyline clip-path="url(#clip1200)" style="stroke:#000000; stroke-width:4.8; stroke-opacity:1; fill:none" points="
  523.139,1359.82 528.976,1359.82 
  "/>
<polyline clip-path="url(#clip1200)" style="stroke:#000000; stroke-width:4.8; stroke-opacity:1; fill:none" points="
  523.139,1073.34 528.976,1073.34 
  "/>
<polyline clip-path="url(#clip1200)" style="stroke:#000000; stroke-width:4.8; stroke-opacity:1; fill:none" points="
  523.139,786.868 528.976,786.868 
  "/>
<polyline clip-path="url(#clip1200)" style="stroke:#000000; stroke-width:4.8; stroke-opacity:1; fill:none" points="
  523.139,500.392 528.976,500.392 
  "/>
<polyline clip-path="url(#clip1200)" style="stroke:#000000; stroke-width:4.8; stroke-opacity:1; fill:none" points="
  523.139,213.916 528.976,213.916 
  "/>
<g clip-path="url(#clip1200)">
<text style="fill:#000000; fill-opacity:1; font-family:Arial,Helvetica Neue,Helvetica,sans-serif; font-size:125px; text-anchor:middle;" transform="rotate(0, 717.681, 2320.69)" x="717.681" y="2320.69">0</text>
</g>
<g clip-path="url(#clip1200)">
<text style="fill:#000000; fill-opacity:1; font-family:Arial,Helvetica Neue,Helvetica,sans-serif; font-size:125px; text-anchor:end;" transform="rotate(0, 487.139, 1978.27)" x="487.139" y="1978.27">1000</text>
</g>
<g clip-path="url(#clip1200)">
<text style="fill:#000000; fill-opacity:1; font-family:Arial,Helvetica Neue,Helvetica,sans-serif; font-size:125px; text-anchor:end;" transform="rotate(0, 487.139, 1691.79)" x="487.139" y="1691.79">1100</text>
</g>
<g clip-path="url(#clip1200)">
<text style="fill:#000000; fill-opacity:1; font-family:Arial,Helvetica Neue,Helvetica,sans-serif; font-size:125px; text-anchor:end;" transform="rotate(0, 487.139, 1405.32)" x="487.139" y="1405.32">1200</text>
</g>
<g clip-path="url(#clip1200)">
<text style="fill:#000000; fill-opacity:1; font-family:Arial,Helvetica Neue,Helvetica,sans-serif; font-size:125px; text-anchor:end;" transform="rotate(0, 487.139, 1118.84)" x="487.139" y="1118.84">1300</text>
</g>
<g clip-path="url(#clip1200)">
<text style="fill:#000000; fill-opacity:1; font-family:Arial,Helvetica Neue,Helvetica,sans-serif; font-size:125px; text-anchor:end;" transform="rotate(0, 487.139, 832.368)" x="487.139" y="832.368">1400</text>
</g>
<g clip-path="url(#clip1200)">
<text style="fill:#000000; fill-opacity:1; font-family:Arial,Helvetica Neue,Helvetica,sans-serif; font-size:125px; text-anchor:end;" transform="rotate(0, 487.139, 545.892)" x="487.139" y="545.892">1500</text>
</g>
<g clip-path="url(#clip1200)">
<text style="fill:#000000; fill-opacity:1; font-family:Arial,Helvetica Neue,Helvetica,sans-serif; font-size:125px; text-anchor:end;" transform="rotate(0, 487.139, 259.416)" x="487.139" y="259.416">1600</text>
</g>
<g clip-path="url(#clip1200)">
<text style="fill:#000000; fill-opacity:1; font-family:Arial,Helvetica Neue,Helvetica,sans-serif; font-size:125px; text-anchor:middle;" transform="rotate(-90, 147.298, 1132.18)" x="147.298" y="1132.18">Overall cost [a.u.]</text>
</g>
<circle clip-path="url(#clip1202)" cx="717.681" cy="142.347" r="21" fill="#000000" fill-rule="evenodd" fill-opacity="1" stroke="#ffffff" stroke-opacity="1" stroke-width="4.8"/>
<circle clip-path="url(#clip1202)" cx="717.681" cy="142.347" r="17" fill="#0000ff" fill-rule="evenodd" fill-opacity="1" stroke="#ffffff" stroke-opacity="1" stroke-width="4.8"/>
<circle clip-path="url(#clip1202)" cx="717.681" cy="2133.41" r="21" fill="#000000" fill-rule="evenodd" fill-opacity="1" stroke="#ffffff" stroke-opacity="1" stroke-width="4.8"/>
<circle clip-path="url(#clip1202)" cx="717.681" cy="2133.41" r="17" fill="#0000ff" fill-rule="evenodd" fill-opacity="1" stroke="#ffffff" stroke-opacity="1" stroke-width="4.8"/>
<circle clip-path="url(#clip1202)" cx="717.681" cy="1681.02" r="21" fill="#000000" fill-rule="evenodd" fill-opacity="1" stroke="#ffffff" stroke-opacity="1" stroke-width="4.8"/>
<circle clip-path="url(#clip1202)" cx="717.681" cy="1681.02" r="17" fill="#0000ff" fill-rule="evenodd" fill-opacity="1" stroke="#ffffff" stroke-opacity="1" stroke-width="4.8"/>
<circle clip-path="url(#clip1202)" cx="717.681" cy="139.818" r="21" fill="#000000" fill-rule="evenodd" fill-opacity="1" stroke="#ffffff" stroke-opacity="1" stroke-width="4.8"/>
<circle clip-path="url(#clip1202)" cx="717.681" cy="139.818" r="17" fill="#0000ff" fill-rule="evenodd" fill-opacity="1" stroke="#ffffff" stroke-opacity="1" stroke-width="4.8"/>
<circle clip-path="url(#clip1202)" cx="717.681" cy="1733.4" r="21" fill="#000000" fill-rule="evenodd" fill-opacity="1" stroke="#ffffff" stroke-opacity="1" stroke-width="4.8"/>
<circle clip-path="url(#clip1202)" cx="717.681" cy="1733.4" r="17" fill="#0000ff" fill-rule="evenodd" fill-opacity="1" stroke="#ffffff" stroke-opacity="1" stroke-width="4.8"/>
<circle clip-path="url(#clip1202)" cx="717.681" cy="130.94" r="21" fill="#000000" fill-rule="evenodd" fill-opacity="1" stroke="#ffffff" stroke-opacity="1" stroke-width="4.8"/>
<circle clip-path="url(#clip1202)" cx="717.681" cy="130.94" r="17" fill="#0000ff" fill-rule="evenodd" fill-opacity="1" stroke="#ffffff" stroke-opacity="1" stroke-width="4.8"/>
<circle clip-path="url(#clip1202)" cx="717.681" cy="1735.55" r="21" fill="#000000" fill-rule="evenodd" fill-opacity="1" stroke="#ffffff" stroke-opacity="1" stroke-width="4.8"/>
<circle clip-path="url(#clip1202)" cx="717.681" cy="1735.55" r="17" fill="#0000ff" fill-rule="evenodd" fill-opacity="1" stroke="#ffffff" stroke-opacity="1" stroke-width="4.8"/>
<circle clip-path="url(#clip1202)" cx="717.681" cy="140.144" r="21" fill="#000000" fill-rule="evenodd" fill-opacity="1" stroke="#ffffff" stroke-opacity="1" stroke-width="4.8"/>
<circle clip-path="url(#clip1202)" cx="717.681" cy="140.144" r="17" fill="#0000ff" fill-rule="evenodd" fill-opacity="1" stroke="#ffffff" stroke-opacity="1" stroke-width="4.8"/>
<circle clip-path="url(#clip1202)" cx="717.681" cy="1735.93" r="21" fill="#000000" fill-rule="evenodd" fill-opacity="1" stroke="#ffffff" stroke-opacity="1" stroke-width="4.8"/>
<circle clip-path="url(#clip1202)" cx="717.681" cy="1735.93" r="17" fill="#0000ff" fill-rule="evenodd" fill-opacity="1" stroke="#ffffff" stroke-opacity="1" stroke-width="4.8"/>
<circle clip-path="url(#clip1202)" cx="717.681" cy="343.921" r="21" fill="#000000" fill-rule="evenodd" fill-opacity="1" stroke="#ffffff" stroke-opacity="1" stroke-width="4.8"/>
<circle clip-path="url(#clip1202)" cx="717.681" cy="343.921" r="17" fill="#0000ff" fill-rule="evenodd" fill-opacity="1" stroke="#ffffff" stroke-opacity="1" stroke-width="4.8"/>
<path clip-path="url(#clip1202)" d="
M717.681 1604.65 L580.034 1604.65 L855.328 1604.65 L717.681 1604.65 L717.681 1209.07 L717.681 1604.65  Z
  " fill="#0000ff" fill-rule="evenodd" fill-opacity="0.5"/>
<polyline clip-path="url(#clip1202)" style="stroke:#000000; stroke-width:4.8; stroke-opacity:1; fill:none" points="
  717.681,1604.65 580.034,1604.65 855.328,1604.65 717.681,1604.65 717.681,1209.07 717.681,1604.65 
  "/>
<path clip-path="url(#clip1202)" d="
M534.151 1209.07 L534.151 1106.21 L901.211 1106.21 L901.211 1209.07 L534.151 1209.07 L534.151 1209.07  Z
  " fill="#0000ff" fill-rule="evenodd" fill-opacity="0.5"/>
<polyline clip-path="url(#clip1202)" style="stroke:#000000; stroke-width:4.8; stroke-opacity:1; fill:none" points="
  534.151,1209.07 534.151,1106.21 901.211,1106.21 901.211,1209.07 534.151,1209.07 
  "/>
<path clip-path="url(#clip1202)" d="
M534.151 942.634 L534.151 1106.21 L901.211 1106.21 L901.211 942.634 L534.151 942.634 L534.151 942.634  Z
  " fill="#0000ff" fill-rule="evenodd" fill-opacity="0.5"/>
<polyline clip-path="url(#clip1202)" style="stroke:#000000; stroke-width:4.8; stroke-opacity:1; fill:none" points="
  534.151,942.634 534.151,1106.21 901.211,1106.21 901.211,942.634 534.151,942.634 
  "/>
<path clip-path="url(#clip1202)" d="
M717.681 581.591 L580.034 581.591 L855.328 581.591 L717.681 581.591 L717.681 942.634 L717.681 581.591  Z
  " fill="#0000ff" fill-rule="evenodd" fill-opacity="0.5"/>
<polyline clip-path="url(#clip1202)" style="stroke:#000000; stroke-width:4.8; stroke-opacity:1; fill:none" points="
  717.681,581.591 580.034,581.591 855.328,581.591 717.681,581.591 717.681,942.634 717.681,581.591 
  "/>
<path clip-path="url(#clip1200)" d="
M1324.33 2193.49 L3529.13 2193.49 L3529.13 70.8661 L1324.33 70.8661  Z
  " fill="#ffffff" fill-rule="evenodd" fill-opacity="1"/>
<defs>
  <clipPath id="clip1203">
    <rect x="1324" y="70" width="2206" height="2124"/>
  </clipPath>
</defs>
<polyline clip-path="url(#clip1203)" style="stroke:#000000; stroke-width:2.4; stroke-opacity:0.1; fill:none" points="
  1553.13,2193.49 1553.13,70.8661 
  "/>
<polyline clip-path="url(#clip1203)" style="stroke:#000000; stroke-width:2.4; stroke-opacity:0.1; fill:none" points="
  2135.53,2193.49 2135.53,70.8661 
  "/>
<polyline clip-path="url(#clip1203)" style="stroke:#000000; stroke-width:2.4; stroke-opacity:0.1; fill:none" points="
  2717.93,2193.49 2717.93,70.8661 
  "/>
<polyline clip-path="url(#clip1203)" style="stroke:#000000; stroke-width:2.4; stroke-opacity:0.1; fill:none" points="
  3300.33,2193.49 3300.33,70.8661 
  "/>
<polyline clip-path="url(#clip1203)" style="stroke:#000000; stroke-width:2.4; stroke-opacity:0.1; fill:none" points="
  1324.33,1726.51 3529.13,1726.51 
  "/>
<polyline clip-path="url(#clip1203)" style="stroke:#000000; stroke-width:2.4; stroke-opacity:0.1; fill:none" points="
  1324.33,1207.28 3529.13,1207.28 
  "/>
<polyline clip-path="url(#clip1203)" style="stroke:#000000; stroke-width:2.4; stroke-opacity:0.1; fill:none" points="
  1324.33,688.058 3529.13,688.058 
  "/>
<polyline clip-path="url(#clip1203)" style="stroke:#000000; stroke-width:2.4; stroke-opacity:0.1; fill:none" points="
  1324.33,168.834 3529.13,168.834 
  "/>
<polyline clip-path="url(#clip1200)" style="stroke:#000000; stroke-width:4.8; stroke-opacity:1; fill:none" points="
  1324.33,2193.49 3529.13,2193.49 
  "/>
<polyline clip-path="url(#clip1200)" style="stroke:#000000; stroke-width:4.8; stroke-opacity:1; fill:none" points="
  1324.33,2193.49 1324.33,70.8661 
  "/>
<polyline clip-path="url(#clip1200)" style="stroke:#000000; stroke-width:4.8; stroke-opacity:1; fill:none" points="
  1553.13,2193.49 1553.13,2161.65 
  "/>
<polyline clip-path="url(#clip1200)" style="stroke:#000000; stroke-width:4.8; stroke-opacity:1; fill:none" points="
  2135.53,2193.49 2135.53,2161.65 
  "/>
<polyline clip-path="url(#clip1200)" style="stroke:#000000; stroke-width:4.8; stroke-opacity:1; fill:none" points="
  2717.93,2193.49 2717.93,2161.65 
  "/>
<polyline clip-path="url(#clip1200)" style="stroke:#000000; stroke-width:4.8; stroke-opacity:1; fill:none" points="
  3300.33,2193.49 3300.33,2161.65 
  "/>
<polyline clip-path="url(#clip1200)" style="stroke:#000000; stroke-width:4.8; stroke-opacity:1; fill:none" points="
  1324.33,1726.51 1357.4,1726.51 
  "/>
<polyline clip-path="url(#clip1200)" style="stroke:#000000; stroke-width:4.8; stroke-opacity:1; fill:none" points="
  1324.33,1207.28 1357.4,1207.28 
  "/>
<polyline clip-path="url(#clip1200)" style="stroke:#000000; stroke-width:4.8; stroke-opacity:1; fill:none" points="
  1324.33,688.058 1357.4,688.058 
  "/>
<polyline clip-path="url(#clip1200)" style="stroke:#000000; stroke-width:4.8; stroke-opacity:1; fill:none" points="
  1324.33,168.834 1357.4,168.834 
  "/>
<g clip-path="url(#clip1200)">
<text style="fill:#000000; fill-opacity:1; font-family:Arial,Helvetica Neue,Helvetica,sans-serif; font-size:125px; text-anchor:middle;" transform="rotate(0, 1553.13, 2320.69)" x="1553.13" y="2320.69">I</text>
</g>
<g clip-path="url(#clip1200)">
<text style="fill:#000000; fill-opacity:1; font-family:Arial,Helvetica Neue,Helvetica,sans-serif; font-size:125px; text-anchor:middle;" transform="rotate(0, 2135.53, 2320.69)" x="2135.53" y="2320.69">II</text>
</g>
<g clip-path="url(#clip1200)">
<text style="fill:#000000; fill-opacity:1; font-family:Arial,Helvetica Neue,Helvetica,sans-serif; font-size:125px; text-anchor:middle;" transform="rotate(0, 2717.93, 2320.69)" x="2717.93" y="2320.69">III</text>
</g>
<g clip-path="url(#clip1200)">
<text style="fill:#000000; fill-opacity:1; font-family:Arial,Helvetica Neue,Helvetica,sans-serif; font-size:125px; text-anchor:middle;" transform="rotate(0, 3300.33, 2320.69)" x="3300.33" y="2320.69">IV</text>
</g>
<g clip-path="url(#clip1200)">
<text style="fill:#000000; fill-opacity:1; font-family:Arial,Helvetica Neue,Helvetica,sans-serif; font-size:125px; text-anchor:end;" transform="rotate(0, 1288.33, 1772.01)" x="1288.33" y="1772.01">300</text>
</g>
<g clip-path="url(#clip1200)">
<text style="fill:#000000; fill-opacity:1; font-family:Arial,Helvetica Neue,Helvetica,sans-serif; font-size:125px; text-anchor:end;" transform="rotate(0, 1288.33, 1252.78)" x="1288.33" y="1252.78">350</text>
</g>
<g clip-path="url(#clip1200)">
<text style="fill:#000000; fill-opacity:1; font-family:Arial,Helvetica Neue,Helvetica,sans-serif; font-size:125px; text-anchor:end;" transform="rotate(0, 1288.33, 733.558)" x="1288.33" y="733.558">400</text>
</g>
<g clip-path="url(#clip1200)">
<text style="fill:#000000; fill-opacity:1; font-family:Arial,Helvetica Neue,Helvetica,sans-serif; font-size:125px; text-anchor:end;" transform="rotate(0, 1288.33, 214.334)" x="1288.33" y="214.334">450</text>
</g>
<circle clip-path="url(#clip1203)" cx="1553.13" cy="130.94" r="21" fill="#000000" fill-rule="evenodd" fill-opacity="1" stroke="#ffffff" stroke-opacity="1" stroke-width="4.8"/>
<circle clip-path="url(#clip1203)" cx="1553.13" cy="130.94" r="17" fill="#ff0000" fill-rule="evenodd" fill-opacity="1" stroke="#ffffff" stroke-opacity="1" stroke-width="4.8"/>
<circle clip-path="url(#clip1203)" cx="1553.13" cy="185.484" r="21" fill="#000000" fill-rule="evenodd" fill-opacity="1" stroke="#ffffff" stroke-opacity="1" stroke-width="4.8"/>
<circle clip-path="url(#clip1203)" cx="1553.13" cy="185.484" r="17" fill="#ff0000" fill-rule="evenodd" fill-opacity="1" stroke="#ffffff" stroke-opacity="1" stroke-width="4.8"/>
<path clip-path="url(#clip1203)" d="
M1553.13 610.251 L1386.73 610.251 L1719.53 610.251 L1553.13 610.251 L1553.13 460.831 L1553.13 610.251  Z
  " fill="#ff0000" fill-rule="evenodd" fill-opacity="0.5"/>
<polyline clip-path="url(#clip1203)" style="stroke:#000000; stroke-width:4.8; stroke-opacity:1; fill:none" points="
  1553.13,610.251 1386.73,610.251 1719.53,610.251 1553.13,610.251 1553.13,460.831 1553.13,610.251 
  "/>
<path clip-path="url(#clip1203)" d="
M1386.73 460.831 L1386.73 398.123 L1719.53 398.123 L1719.53 460.831 L1386.73 460.831 L1386.73 460.831  Z
  " fill="#ff0000" fill-rule="evenodd" fill-opacity="0.5"/>
<polyline clip-path="url(#clip1203)" style="stroke:#000000; stroke-width:4.8; stroke-opacity:1; fill:none" points="
  1386.73,460.831 1386.73,398.123 1719.53,398.123 1719.53,460.831 1386.73,460.831 
  "/>
<path clip-path="url(#clip1203)" d="
M1386.73 352.611 L1386.73 398.123 L1719.53 398.123 L1719.53 352.611 L1386.73 352.611 L1386.73 352.611  Z
  " fill="#ff0000" fill-rule="evenodd" fill-opacity="0.5"/>
<polyline clip-path="url(#clip1203)" style="stroke:#000000; stroke-width:4.8; stroke-opacity:1; fill:none" points="
  1386.73,352.611 1386.73,398.123 1719.53,398.123 1719.53,352.611 1386.73,352.611 
  "/>
<path clip-path="url(#clip1203)" d="
M1553.13 203.524 L1386.73 203.524 L1719.53 203.524 L1553.13 203.524 L1553.13 352.611 L1553.13 203.524  Z
  " fill="#ff0000" fill-rule="evenodd" fill-opacity="0.5"/>
<polyline clip-path="url(#clip1203)" style="stroke:#000000; stroke-width:4.8; stroke-opacity:1; fill:none" points="
  1553.13,203.524 1386.73,203.524 1719.53,203.524 1553.13,203.524 1553.13,352.611 1553.13,203.524 
  "/>
<path clip-path="url(#clip1203)" d="
M2135.53 2133.41 L1969.13 2133.41 L2301.93 2133.41 L2135.53 2133.41 L2135.53 1995.29 L2135.53 2133.41  Z
  " fill="#008000" fill-rule="evenodd" fill-opacity="0.5"/>
<polyline clip-path="url(#clip1203)" style="stroke:#000000; stroke-width:4.8; stroke-opacity:1; fill:none" points="
  2135.53,2133.41 1969.13,2133.41 2301.93,2133.41 2135.53,2133.41 2135.53,1995.29 2135.53,2133.41 
  "/>
<path clip-path="url(#clip1203)" d="
M1969.13 1995.29 L1969.13 1927.2 L2301.93 1927.2 L2301.93 1995.29 L1969.13 1995.29 L1969.13 1995.29  Z
  " fill="#008000" fill-rule="evenodd" fill-opacity="0.5"/>
<polyline clip-path="url(#clip1203)" style="stroke:#000000; stroke-width:4.8; stroke-opacity:1; fill:none" points="
  1969.13,1995.29 1969.13,1927.2 2301.93,1927.2 2301.93,1995.29 1969.13,1995.29 
  "/>
<path clip-path="url(#clip1203)" d="
M1969.13 1864.22 L1969.13 1927.2 L2301.93 1927.2 L2301.93 1864.22 L1969.13 1864.22 L1969.13 1864.22  Z
  " fill="#008000" fill-rule="evenodd" fill-opacity="0.5"/>
<polyline clip-path="url(#clip1203)" style="stroke:#000000; stroke-width:4.8; stroke-opacity:1; fill:none" points="
  1969.13,1864.22 1969.13,1927.2 2301.93,1927.2 2301.93,1864.22 1969.13,1864.22 
  "/>
<path clip-path="url(#clip1203)" d="
M2135.53 1671.09 L1969.13 1671.09 L2301.93 1671.09 L2135.53 1671.09 L2135.53 1864.22 L2135.53 1671.09  Z
  " fill="#008000" fill-rule="evenodd" fill-opacity="0.5"/>
<polyline clip-path="url(#clip1203)" style="stroke:#000000; stroke-width:4.8; stroke-opacity:1; fill:none" points="
  2135.53,1671.09 1969.13,1671.09 2301.93,1671.09 2135.53,1671.09 2135.53,1864.22 2135.53,1671.09 
  "/>
<path clip-path="url(#clip1203)" d="
M2717.93 2045.91 L2551.53 2045.91 L2884.33 2045.91 L2717.93 2045.91 L2717.93 1964.48 L2717.93 2045.91  Z
  " fill="#800080" fill-rule="evenodd" fill-opacity="0.5"/>
<polyline clip-path="url(#clip1203)" style="stroke:#000000; stroke-width:4.8; stroke-opacity:1; fill:none" points="
  2717.93,2045.91 2551.53,2045.91 2884.33,2045.91 2717.93,2045.91 2717.93,1964.48 2717.93,2045.91 
  "/>
<path clip-path="url(#clip1203)" d="
M2551.53 1964.48 L2551.53 1906.69 L2884.33 1906.69 L2884.33 1964.48 L2551.53 1964.48 L2551.53 1964.48  Z
  " fill="#800080" fill-rule="evenodd" fill-opacity="0.5"/>
<polyline clip-path="url(#clip1203)" style="stroke:#000000; stroke-width:4.8; stroke-opacity:1; fill:none" points="
  2551.53,1964.48 2551.53,1906.69 2884.33,1906.69 2884.33,1964.48 2551.53,1964.48 
  "/>
<path clip-path="url(#clip1203)" d="
M2551.53 1833.01 L2551.53 1906.69 L2884.33 1906.69 L2884.33 1833.01 L2551.53 1833.01 L2551.53 1833.01  Z
  " fill="#800080" fill-rule="evenodd" fill-opacity="0.5"/>
<polyline clip-path="url(#clip1203)" style="stroke:#000000; stroke-width:4.8; stroke-opacity:1; fill:none" points="
  2551.53,1833.01 2551.53,1906.69 2884.33,1906.69 2884.33,1833.01 2551.53,1833.01 
  "/>
<path clip-path="url(#clip1203)" d="
M2717.93 1640.93 L2551.53 1640.93 L2884.33 1640.93 L2717.93 1640.93 L2717.93 1833.01 L2717.93 1640.93  Z
  " fill="#800080" fill-rule="evenodd" fill-opacity="0.5"/>
<polyline clip-path="url(#clip1203)" style="stroke:#000000; stroke-width:4.8; stroke-opacity:1; fill:none" points="
  2717.93,1640.93 2551.53,1640.93 2884.33,1640.93 2717.93,1640.93 2717.93,1833.01 2717.93,1640.93 
  "/>
<circle clip-path="url(#clip1203)" cx="3300.33" cy="1449.13" r="21" fill="#000000" fill-rule="evenodd" fill-opacity="1" stroke="#ffffff" stroke-opacity="1" stroke-width="4.8"/>
<circle clip-path="url(#clip1203)" cx="3300.33" cy="1449.13" r="17" fill="#ffa500" fill-rule="evenodd" fill-opacity="1" stroke="#ffffff" stroke-opacity="1" stroke-width="4.8"/>
<path clip-path="url(#clip1203)" d="
M3300.33 1907.93 L3133.93 1907.93 L3466.73 1907.93 L3300.33 1907.93 L3300.33 1791.98 L3300.33 1907.93  Z
  " fill="#ffa500" fill-rule="evenodd" fill-opacity="0.5"/>
<polyline clip-path="url(#clip1203)" style="stroke:#000000; stroke-width:4.8; stroke-opacity:1; fill:none" points="
  3300.33,1907.93 3133.93,1907.93 3466.73,1907.93 3300.33,1907.93 3300.33,1791.98 3300.33,1907.93 
  "/>
<path clip-path="url(#clip1203)" d="
M3133.93 1791.98 L3133.93 1717.77 L3466.73 1717.77 L3466.73 1791.98 L3133.93 1791.98 L3133.93 1791.98  Z
  " fill="#ffa500" fill-rule="evenodd" fill-opacity="0.5"/>
<polyline clip-path="url(#clip1203)" style="stroke:#000000; stroke-width:4.8; stroke-opacity:1; fill:none" points="
  3133.93,1791.98 3133.93,1717.77 3466.73,1717.77 3466.73,1791.98 3133.93,1791.98 
  "/>
<path clip-path="url(#clip1203)" d="
M3133.93 1678.42 L3133.93 1717.77 L3466.73 1717.77 L3466.73 1678.42 L3133.93 1678.42 L3133.93 1678.42  Z
  " fill="#ffa500" fill-rule="evenodd" fill-opacity="0.5"/>
<polyline clip-path="url(#clip1203)" style="stroke:#000000; stroke-width:4.8; stroke-opacity:1; fill:none" points="
  3133.93,1678.42 3133.93,1717.77 3466.73,1717.77 3466.73,1678.42 3133.93,1678.42 
  "/>
<path clip-path="url(#clip1203)" d="
M3300.33 1517.03 L3133.93 1517.03 L3466.73 1517.03 L3300.33 1517.03 L3300.33 1678.42 L3300.33 1517.03  Z
  " fill="#ffa500" fill-rule="evenodd" fill-opacity="0.5"/>
<polyline clip-path="url(#clip1203)" style="stroke:#000000; stroke-width:4.8; stroke-opacity:1; fill:none" points="
  3300.33,1517.03 3133.93,1517.03 3466.73,1517.03 3300.33,1517.03 3300.33,1678.42 3300.33,1517.03 
  "/>
</svg>
