<?xml version="1.0" encoding="utf-8"?>
<svg xmlns="http://www.w3.org/2000/svg" xmlns:xlink="http://www.w3.org/1999/xlink" width="900" height="600" viewBox="0 0 3600 2400">
<defs>
  <clipPath id="clip1600">
    <rect x="0" y="0" width="3600" height="2400"/>
  </clipPath>
</defs>
<path clip-path="url(#clip1600)" d="
M0 2400 L3600 2400 L3600 0 L0 0  Z
  " fill="#ffffff" fill-rule="evenodd" fill-opacity="1"/>
<defs>
  <clipPath id="clip1601">
    <rect x="720" y="0" width="2521" height="2400"/>
  </clipPath>
</defs>
<path clip-path="url(#clip1600)" d="
M523.139 2193.49 L912.222 2193.49 L912.222 70.8661 L523.139 70.8661  Z
  " fill="#ffffff" fill-rule="evenodd" fill-opacity="1"/>
<defs>
  <clipPath id="clip1602">
    <rect x="523" y="70" width="390" height="2124"/>
  </clipPath>
</defs>
<polyline clip-path="url(#clip1602)" style="stroke:#000000; stroke-width:2.4; stroke-opacity:0.1; fill:none" points="
  717.681,2193.49 717.681,70.8661 
  "/>
<polyline clip-path="url(#clip1602)" style="stroke:#000000; stroke-width:2.4; stroke-opacity:0.1; fill:none" points="
  523.139,1769.41 912.222,1769.41 
  "/>
<polyline clip-path="url(#clip1602)" style="stroke:#000000; stroke-width:2.4; stroke-opacity:0.1; fill:none" points="
  523.139,1248.34 912.222,1248.34 
  "/>
<polyline clip-path="url(#clip1602)" style="stroke:#000000; stroke-width:2.4; stroke-opacity:0.1; fill:none" points="
  523.139,727.269 912.222,727.269 
  "/>
<polyline clip-path="url(#clip1602)" style="stroke:#000000; stroke-width:2.4; stroke-opacity:0.1; fill:none" points="
  523.139,206.201 912.222,206.201 
  "/>
<polyline clip-path="url(#clip1600)" style="stroke:#000000; stroke-width:4.8; stroke-opacity:1; fill:none" points="
  523.139,2193.49 912.222,2193.49 
  "/>
<polyline clip-path="url(#clip1600)" style="stroke:#000000; stroke-width:4.8; stroke-opacity:1; fill:none" points="
  523.139,2193.49 523.139,70.8661 
  "/>
<polyline clip-path="url(#clip1600)" style="stroke:#000000; stroke-width:4.8; stroke-opacity:1; fill:none" points="
  717.681,2193.49 717.681,2161.65 
  "/>
<polyline clip-path="url(#clip1600)" style="stroke:#000000; stroke-width:4.8; stroke-opacity:1; fill:none" points="
  523.139,1769.41 528.976,1769.41 
  "/>
<polyline clip-path="url(#clip1600)" style="stroke:#000000; stroke-width:4.8; stroke-opacity:1; fill:none" points="
  523.139,1248.34 528.976,1248.34 
  "/>
<polyline clip-path="url(#clip1600)" style="stroke:#000000; stroke-width:4.8; stroke-opacity:1; fill:none" points="
  523.139,727.269 528.976,727.269 
  "/>
<polyline clip-path="url(#clip1600)" style="stroke:#000000; stroke-width:4.8; stroke-opacity:1; fill:none" points="
  523.139,206.201 528.976,206.201 
  "/>
<g clip-path="url(#clip1600)">
<text style="fill:#000000; fill-opacity:1; font-family:Arial,Helvetica Neue,Helvetica,sans-serif; font-size:125px; text-anchor:middle;" transform="rotate(0, 717.681, 2320.69)" x="717.681" y="2320.69">0</text>
</g>
<g clip-path="url(#clip1600)">
<text style="fill:#000000; fill-opacity:1; font-family:Arial,Helvetica Neue,Helvetica,sans-serif; font-size:125px; text-anchor:end;" transform="rotate(0, 487.139, 1814.91)" x="487.139" y="1814.91">1200</text>
</g>
<g clip-path="url(#clip1600)">
<text style="fill:#000000; fill-opacity:1; font-family:Arial,Helvetica Neue,Helvetica,sans-serif; font-size:125px; text-anchor:end;" transform="rotate(0, 487.139, 1293.84)" x="487.139" y="1293.84">1400</text>
</g>
<g clip-path="url(#clip1600)">
<text style="fill:#000000; fill-opacity:1; font-family:Arial,Helvetica Neue,Helvetica,sans-serif; font-size:125px; text-anchor:end;" transform="rotate(0, 487.139, 772.769)" x="487.139" y="772.769">1600</text>
</g>
<g clip-path="url(#clip1600)">
<text style="fill:#000000; fill-opacity:1; font-family:Arial,Helvetica Neue,Helvetica,sans-serif; font-size:125px; text-anchor:end;" transform="rotate(0, 487.139, 251.701)" x="487.139" y="251.701">1800</text>
</g>
<g clip-path="url(#clip1600)">
<text style="fill:#000000; fill-opacity:1; font-family:Arial,Helvetica Neue,Helvetica,sans-serif; font-size:125px; text-anchor:middle;" transform="rotate(-90, 147.298, 1132.18)" x="147.298" y="1132.18">Overall cost [a.u.]</text>
</g>
<circle clip-path="url(#clip1602)" cx="717.681" cy="641.165" r="21" fill="#000000" fill-rule="evenodd" fill-opacity="1" stroke="#ffffff" stroke-opacity="1" stroke-width="4.8"/>
<circle clip-path="url(#clip1602)" cx="717.681" cy="641.165" r="17" fill="#0000ff" fill-rule="evenodd" fill-opacity="1" stroke="#ffffff" stroke-opacity="1" stroke-width="4.8"/>
<circle clip-path="url(#clip1602)" cx="717.681" cy="184.369" r="21" fill="#000000" fill-rule="evenodd" fill-opacity="1" stroke="#ffffff" stroke-opacity="1" stroke-width="4.8"/>
<circle clip-path="url(#clip1602)" cx="717.681" cy="184.369" r="17" fill="#0000ff" fill-rule="evenodd" fill-opacity="1" stroke="#ffffff" stroke-opacity="1" stroke-width="4.8"/>
<circle clip-path="url(#clip1602)" cx="717.681" cy="516.073" r="21" fill="#000000" fill-rule="evenodd" fill-opacity="1" stroke="#ffffff" stroke-opacity="1" stroke-width="4.8"/>
<circle clip-path="url(#clip1602)" cx="717.681" cy="516.073" r="17" fill="#0000ff" fill-rule="evenodd" fill-opacity="1" stroke="#ffffff" stroke-opacity="1" stroke-width="4.8"/>
<circle clip-path="url(#clip1602)" cx="717.681" cy="396.827" r="21" fill="#000000" fill-rule="evenodd" fill-opacity="1" stroke="#ffffff" stroke-opacity="1" stroke-width="4.8"/>
<circle clip-path="url(#clip1602)" cx="717.681" cy="396.827" r="17" fill="#0000ff" fill-rule="evenodd" fill-opacity="1" stroke="#ffffff" stroke-opacity="1" stroke-width="4.8"/>
<circle clip-path="url(#clip1602)" cx="717.681" cy="1618.75" r="21" fill="#000000" fill-rule="evenodd" fill-opacity="1" stroke="#ffffff" stroke-opacity="1" stroke-width="4.8"/>
<circle clip-path="url(#clip1602)" cx="717.681" cy="1618.75" r="17" fill="#0000ff" fill-rule="evenodd" fill-opacity="1" stroke="#ffffff" stroke-opacity="1" stroke-width="4.8"/>
<circle clip-path="url(#clip1602)" cx="717.681" cy="190.069" r="21" fill="#000000" fill-rule="evenodd" fill-opacity="1" stroke="#ffffff" stroke-opacity="1" stroke-width="4.8"/>
<circle clip-path="url(#clip1602)" cx="717.681" cy="190.069" r="17" fill="#0000ff" fill-rule="evenodd" fill-opacity="1" stroke="#ffffff" stroke-opacity="1" stroke-width="4.8"/>
<circle clip-path="url(#clip1602)" cx="717.681" cy="188.969" r="21" fill="#000000" fill-rule="evenodd" fill-opacity="1" stroke="#ffffff" stroke-opacity="1" stroke-width="4.8"/>
<circle clip-path="url(#clip1602)" cx="717.681" cy="188.969" r="17" fill="#0000ff" fill-rule="evenodd" fill-opacity="1" stroke="#ffffff" stroke-opacity="1" stroke-width="4.8"/>
<circle clip-path="url(#clip1602)" cx="717.681" cy="641.748" r="21" fill="#000000" fill-rule="evenodd" fill-opacity="1" stroke="#ffffff" stroke-opacity="1" stroke-width="4.8"/>
<circle clip-path="url(#clip1602)" cx="717.681" cy="641.748" r="17" fill="#0000ff" fill-rule="evenodd" fill-opacity="1" stroke="#ffffff" stroke-opacity="1" stroke-width="4.8"/>
<circle clip-path="url(#clip1602)" cx="717.681" cy="530.901" r="21" fill="#000000" fill-rule="evenodd" fill-opacity="1" stroke="#ffffff" stroke-opacity="1" stroke-width="4.8"/>
<circle clip-path="url(#clip1602)" cx="717.681" cy="530.901" r="17" fill="#0000ff" fill-rule="evenodd" fill-opacity="1" stroke="#ffffff" stroke-opacity="1" stroke-width="4.8"/>
<circle clip-path="url(#clip1602)" cx="717.681" cy="1617.94" r="21" fill="#000000" fill-rule="evenodd" fill-opacity="1" stroke="#ffffff" stroke-opacity="1" stroke-width="4.8"/>
<circle clip-path="url(#clip1602)" cx="717.681" cy="1617.94" r="17" fill="#0000ff" fill-rule="evenodd" fill-opacity="1" stroke="#ffffff" stroke-opacity="1" stroke-width="4.8"/>
<circle clip-path="url(#clip1602)" cx="717.681" cy="1668.26" r="21" fill="#000000" fill-rule="evenodd" fill-opacity="1" stroke="#ffffff" stroke-opacity="1" stroke-width="4.8"/>
<circle clip-path="url(#clip1602)" cx="717.681" cy="1668.26" r="17" fill="#0000ff" fill-rule="evenodd" fill-opacity="1" stroke="#ffffff" stroke-opacity="1" stroke-width="4.8"/>
<circle clip-path="url(#clip1602)" cx="717.681" cy="399.42" r="21" fill="#000000" fill-rule="evenodd" fill-opacity="1" stroke="#ffffff" stroke-opacity="1" stroke-width="4.8"/>
<circle clip-path="url(#clip1602)" cx="717.681" cy="399.42" r="17" fill="#0000ff" fill-rule="evenodd" fill-opacity="1" stroke="#ffffff" stroke-opacity="1" stroke-width="4.8"/>
<circle clip-path="url(#clip1602)" cx="717.681" cy="1803.73" r="21" fill="#000000" fill-rule="evenodd" fill-opacity="1" stroke="#ffffff" stroke-opacity="1" stroke-width="4.8"/>
<circle clip-path="url(#clip1602)" cx="717.681" cy="1803.73" r="17" fill="#0000ff" fill-rule="evenodd" fill-opacity="1" stroke="#ffffff" stroke-opacity="1" stroke-width="4.8"/>
<circle clip-path="url(#clip1602)" cx="717.681" cy="401.017" r="21" fill="#000000" fill-rule="evenodd" fill-opacity="1" stroke="#ffffff" stroke-opacity="1" stroke-width="4.8"/>
<circle clip-path="url(#clip1602)" cx="717.681" cy="401.017" r="17" fill="#0000ff" fill-rule="evenodd" fill-opacity="1" stroke="#ffffff" stroke-opacity="1" stroke-width="4.8"/>
<circle clip-path="url(#clip1602)" cx="717.681" cy="1656.65" r="21" fill="#000000" fill-rule="evenodd" fill-opacity="1" stroke="#ffffff" stroke-opacity="1" stroke-width="4.8"/>
<circle clip-path="url(#clip1602)" cx="717.681" cy="1656.65" r="17" fill="#0000ff" fill-rule="evenodd" fill-opacity="1" stroke="#ffffff" stroke-opacity="1" stroke-width="4.8"/>
<circle clip-path="url(#clip1602)" cx="717.681" cy="530.647" r="21" fill="#000000" fill-rule="evenodd" fill-opacity="1" stroke="#ffffff" stroke-opacity="1" stroke-width="4.8"/>
<circle clip-path="url(#clip1602)" cx="717.681" cy="530.647" r="17" fill="#0000ff" fill-rule="evenodd" fill-opacity="1" stroke="#ffffff" stroke-opacity="1" stroke-width="4.8"/>
<circle clip-path="url(#clip1602)" cx="717.681" cy="1800.41" r="21" fill="#000000" fill-rule="evenodd" fill-opacity="1" stroke="#ffffff" stroke-opacity="1" stroke-width="4.8"/>
<circle clip-path="url(#clip1602)" cx="717.681" cy="1800.41" r="17" fill="#0000ff" fill-rule="evenodd" fill-opacity="1" stroke="#ffffff" stroke-opacity="1" stroke-width="4.8"/>
<circle clip-path="url(#clip1602)" cx="717.681" cy="188.943" r="21" fill="#000000" fill-rule="evenodd" fill-opacity="1" stroke="#ffffff" stroke-opacity="1" stroke-width="4.8"/>
<circle clip-path="url(#clip1602)" cx="717.681" cy="188.943" r="17" fill="#0000ff" fill-rule="evenodd" fill-opacity="1" stroke="#ffffff" stroke-opacity="1" stroke-width="4.8"/>
<circle clip-path="url(#clip1602)" cx="717.681" cy="1805.41" r="21" fill="#000000" fill-rule="evenodd" fill-opacity="1" stroke="#ffffff" stroke-opacity="1" stroke-width="4.8"/>
<circle clip-path="url(#clip1602)" cx="717.681" cy="1805.41" r="17" fill="#0000ff" fill-rule="evenodd" fill-opacity="1" stroke="#ffffff" stroke-opacity="1" stroke-width="4.8"/>
<circle clip-path="url(#clip1602)" cx="717.681" cy="1650.57" r="21" fill="#000000" fill-rule="evenodd" fill-opacity="1" stroke="#ffffff" stroke-opacity="1" stroke-width="4.8"/>
<circle clip-path="url(#clip1602)" cx="717.681" cy="1650.57" r="17" fill="#0000ff" fill-rule="evenodd" fill-opacity="1" stroke="#ffffff" stroke-opacity="1" stroke-width="4.8"/>
<circle clip-path="url(#clip1602)" cx="717.681" cy="394.29" r="21" fill="#000000" fill-rule="evenodd" fill-opacity="1" stroke="#ffffff" stroke-opacity="1" stroke-width="4.8"/>
<circle clip-path="url(#clip1602)" cx="717.681" cy="394.29" r="17" fill="#0000ff" fill-rule="evenodd" fill-opacity="1" stroke="#ffffff" stroke-opacity="1" stroke-width="4.8"/>
<circle clip-path="url(#clip1602)" cx="717.681" cy="130.94" r="21" fill="#000000" fill-rule="evenodd" fill-opacity="1" stroke="#ffffff" stroke-opacity="1" stroke-width="4.8"/>
<circle clip-path="url(#clip1602)" cx="717.681" cy="130.94" r="17" fill="#0000ff" fill-rule="evenodd" fill-opacity="1" stroke="#ffffff" stroke-opacity="1" stroke-width="4.8"/>
<circle clip-path="url(#clip1602)" cx="717.681" cy="395.416" r="21" fill="#000000" fill-rule="evenodd" fill-opacity="1" stroke="#ffffff" stroke-opacity="1" stroke-width="4.8"/>
<circle clip-path="url(#clip1602)" cx="717.681" cy="395.416" r="17" fill="#0000ff" fill-rule="evenodd" fill-opacity="1" stroke="#ffffff" stroke-opacity="1" stroke-width="4.8"/>
<circle clip-path="url(#clip1602)" cx="717.681" cy="2124.4" r="21" fill="#000000" fill-rule="evenodd" fill-opacity="1" stroke="#ffffff" stroke-opacity="1" stroke-width="4.8"/>
<circle clip-path="url(#clip1602)" cx="717.681" cy="2124.4" r="17" fill="#0000ff" fill-rule="evenodd" fill-opacity="1" stroke="#ffffff" stroke-opacity="1" stroke-width="4.8"/>
<circle clip-path="url(#clip1602)" cx="717.681" cy="134.83" r="21" fill="#000000" fill-rule="evenodd" fill-opacity="1" stroke="#ffffff" stroke-opacity="1" stroke-width="4.8"/>
<circle clip-path="url(#clip1602)" cx="717.681" cy="134.83" r="17" fill="#0000ff" fill-rule="evenodd" fill-opacity="1" stroke="#ffffff" stroke-opacity="1" stroke-width="4.8"/>
<circle clip-path="url(#clip1602)" cx="717.681" cy="1619.44" r="21" fill="#000000" fill-rule="evenodd" fill-opacity="1" stroke="#ffffff" stroke-opacity="1" stroke-width="4.8"/>
<circle clip-path="url(#clip1602)" cx="717.681" cy="1619.44" r="17" fill="#0000ff" fill-rule="evenodd" fill-opacity="1" stroke="#ffffff" stroke-opacity="1" stroke-width="4.8"/>
<circle clip-path="url(#clip1602)" cx="717.681" cy="1805.24" r="21" fill="#000000" fill-rule="evenodd" fill-opacity="1" stroke="#ffffff" stroke-opacity="1" stroke-width="4.8"/>
<circle clip-path="url(#clip1602)" cx="717.681" cy="1805.24" r="17" fill="#0000ff" fill-rule="evenodd" fill-opacity="1" stroke="#ffffff" stroke-opacity="1" stroke-width="4.8"/>
<circle clip-path="url(#clip1602)" cx="717.681" cy="1805.01" r="21" fill="#000000" fill-rule="evenodd" fill-opacity="1" stroke="#ffffff" stroke-opacity="1" stroke-width="4.8"/>
<circle clip-path="url(#clip1602)" cx="717.681" cy="1805.01" r="17" fill="#0000ff" fill-rule="evenodd" fill-opacity="1" stroke="#ffffff" stroke-opacity="1" stroke-width="4.8"/>
<circle clip-path="url(#clip1602)" cx="717.681" cy="2133.41" r="21" fill="#000000" fill-rule="evenodd" fill-opacity="1" stroke="#ffffff" stroke-opacity="1" stroke-width="4.8"/>
<circle clip-path="url(#clip1602)" cx="717.681" cy="2133.41" r="17" fill="#0000ff" fill-rule="evenodd" fill-opacity="1" stroke="#ffffff" stroke-opacity="1" stroke-width="4.8"/>
<path clip-path="url(#clip1602)" d="
M717.681 1557.74 L580.034 1557.74 L855.328 1557.74 L717.681 1557.74 L717.681 1277.47 L717.681 1557.74  Z
  " fill="#0000ff" fill-rule="evenodd" fill-opacity="0.5"/>
<polyline clip-path="url(#clip1602)" style="stroke:#000000; stroke-width:4.8; stroke-opacity:1; fill:none" points="
  717.681,1557.74 580.034,1557.74 855.328,1557.74 717.681,1557.74 717.681,1277.47 717.681,1557.74 
  "/>
<path clip-path="url(#clip1602)" d="
M534.151 1277.47 L534.151 1240.67 L901.211 1240.67 L901.211 1277.47 L534.151 1277.47 L534.151 1277.47  Z
  " fill="#0000ff" fill-rule="evenodd" fill-opacity="0.5"/>
<polyline clip-path="url(#clip1602)" style="stroke:#000000; stroke-width:4.8; stroke-opacity:1; fill:none" points="
  534.151,1277.47 534.151,1240.67 901.211,1240.67 901.211,1277.47 534.151,1277.47 
  "/>
<path clip-path="url(#clip1602)" d="
M534.151 1053.08 L534.151 1240.67 L901.211 1240.67 L901.211 1053.08 L534.151 1053.08 L534.151 1053.08  Z
  " fill="#0000ff" fill-rule="evenodd" fill-opacity="0.5"/>
<polyline clip-path="url(#clip1602)" style="stroke:#000000; stroke-width:4.8; stroke-opacity:1; fill:none" points="
  534.151,1053.08 534.151,1240.67 901.211,1240.67 901.211,1053.08 534.151,1053.08 
  "/>
<path clip-path="url(#clip1602)" d="
M717.681 776.284 L580.034 776.284 L855.328 776.284 L717.681 776.284 L717.681 1053.08 L717.681 776.284  Z
  " fill="#0000ff" fill-rule="evenodd" fill-opacity="0.5"/>
<polyline clip-path="url(#clip1602)" style="stroke:#000000; stroke-width:4.8; stroke-opacity:1; fill:none" points="
  717.681,776.284 580.034,776.284 855.328,776.284 717.681,776.284 717.681,1053.08 717.681,776.284 
  "/>
<path clip-path="url(#clip1600)" d="
M1324.33 2193.49 L3529.13 2193.49 L3529.13 70.8661 L1324.33 70.8661  Z
  " fill="#ffffff" fill-rule="evenodd" fill-opacity="1"/>
<defs>
  <clipPath id="clip1603">
    <rect x="1324" y="70" width="2206" height="2124"/>
  </clipPath>
</defs>
<polyline clip-path="url(#clip1603)" style="stroke:#000000; stroke-width:2.4; stroke-opacity:0.1; fill:none" points="
  1553.13,2193.49 1553.13,70.8661 
  "/>
<polyline clip-path="url(#clip1603)" style="stroke:#000000; stroke-width:2.4; stroke-opacity:0.1; fill:none" points="
  2135.53,2193.49 2135.53,70.8661 
  "/>
<polyline clip-path="url(#clip1603)" style="stroke:#000000; stroke-width:2.4; stroke-opacity:0.1; fill:none" points="
  2717.93,2193.49 2717.93,70.8661 
  "/>
<polyline clip-path="url(#clip1603)" style="stroke:#000000; stroke-width:2.4; stroke-opacity:0.1; fill:none" points="
  3300.33,2193.49 3300.33,70.8661 
  "/>
<polyline clip-path="url(#clip1603)" style="stroke:#000000; stroke-width:2.4; stroke-opacity:0.1; fill:none" points="
  1324.33,2047.02 3529.13,2047.02 
  "/>
<polyline clip-path="url(#clip1603)" style="stroke:#000000; stroke-width:2.4; stroke-opacity:0.1; fill:none" points="
  1324.33,1586.28 3529.13,1586.28 
  "/>
<polyline clip-path="url(#clip1603)" style="stroke:#000000; stroke-width:2.4; stroke-opacity:0.1; fill:none" points="
  1324.33,1125.55 3529.13,1125.55 
  "/>
<polyline clip-path="url(#clip1603)" style="stroke:#000000; stroke-width:2.4; stroke-opacity:0.1; fill:none" points="
  1324.33,664.814 3529.13,664.814 
  "/>
<polyline clip-path="url(#clip1603)" style="stroke:#000000; stroke-width:2.4; stroke-opacity:0.1; fill:none" points="
  1324.33,204.08 3529.13,204.08 
  "/>
<polyline clip-path="url(#clip1600)" style="stroke:#000000; stroke-width:4.8; stroke-opacity:1; fill:none" points="
  1324.33,2193.49 3529.13,2193.49 
  "/>
<polyline clip-path="url(#clip1600)" style="stroke:#000000; stroke-width:4.8; stroke-opacity:1; fill:none" points="
  1324.33,2193.49 1324.33,70.8661 
  "/>
<polyline clip-path="url(#clip1600)" style="stroke:#000000; stroke-width:4.8; stroke-opacity:1; fill:none" points="
  1553.13,2193.49 1553.13,2161.65 
  "/>
<polyline clip-path="url(#clip1600)" style="stroke:#000000; stroke-width:4.8; stroke-opacity:1; fill:none" points="
  2135.53,2193.49 2135.53,2161.65 
  "/>
<polyline clip-path="url(#clip1600)" style="stroke:#000000; stroke-width:4.8; stroke-opacity:1; fill:none" points="
  2717.93,2193.49 2717.93,2161.65 
  "/>
<polyline clip-path="url(#clip1600)" style="stroke:#000000; stroke-width:4.8; stroke-opacity:1; fill:none" points="
  3300.33,2193.49 3300.33,2161.65 
  "/>
<polyline clip-path="url(#clip1600)" style="stroke:#000000; stroke-width:4.8; stroke-opacity:1; fill:none" points="
  1324.33,2047.02 1357.4,2047.02 
  "/>
<polyline clip-path="url(#clip1600)" style="stroke:#000000; stroke-width:4.8; stroke-opacity:1; fill:none" points="
  1324.33,1586.28 1357.4,1586.28 
  "/>
<polyline clip-path="url(#clip1600)" style="stroke:#000000; stroke-width:4.8; stroke-opacity:1; fill:none" points="
  1324.33,1125.55 1357.4,1125.55 
  "/>
<polyline clip-path="url(#clip1600)" style="stroke:#000000; stroke-width:4.8; stroke-opacity:1; fill:none" points="
  1324.33,664.814 1357.4,664.814 
  "/>
<polyline clip-path="url(#clip1600)" style="stroke:#000000; stroke-width:4.8; stroke-opacity:1; fill:none" points="
  1324.33,204.08 1357.4,204.08 
  "/>
<g clip-path="url(#clip1600)">
<text style="fill:#000000; fill-opacity:1; font-family:Arial,Helvetica Neue,Helvetica,sans-serif; font-size:125px; text-anchor:middle;" transform="rotate(0, 1553.13, 2320.69)" x="1553.13" y="2320.69">I</text>
</g>
<g clip-path="url(#clip1600)">
<text style="fill:#000000; fill-opacity:1; font-family:Arial,Helvetica Neue,Helvetica,sans-serif; font-size:125px; text-anchor:middle;" transform="rotate(0, 2135.53, 2320.69)" x="2135.53" y="2320.69">II</text>
</g>
<g clip-path="url(#clip1600)">
<text style="fill:#000000; fill-opacity:1; font-family:Arial,Helvetica Neue,Helvetica,sans-serif; font-size:125px; text-anchor:middle;" transform="rotate(0, 2717.93, 2320.69)" x="2717.93" y="2320.69">III</text>
</g>
<g clip-path="url(#clip1600)">
<text style="fill:#000000; fill-opacity:1; font-family:Arial,Helvetica Neue,Helvetica,sans-serif; font-size:125px; text-anchor:middle;" transform="rotate(0, 3300.33, 2320.69)" x="3300.33" y="2320.69">IV</text>
</g>
<g clip-path="url(#clip1600)">
<text style="fill:#000000; fill-opacity:1; font-family:Arial,Helvetica Neue,Helvetica,sans-serif; font-size:125px; text-anchor:end;" transform="rotate(0, 1288.33, 2092.52)" x="1288.33" y="2092.52">250</text>
</g>
<g clip-path="url(#clip1600)">
<text style="fill:#000000; fill-opacity:1; font-family:Arial,Helvetica Neue,Helvetica,sans-serif; font-size:125px; text-anchor:end;" transform="rotate(0, 1288.33, 1631.78)" x="1288.33" y="1631.78">300</text>
</g>
<g clip-path="url(#clip1600)">
<text style="fill:#000000; fill-opacity:1; font-family:Arial,Helvetica Neue,Helvetica,sans-serif; font-size:125px; text-anchor:end;" transform="rotate(0, 1288.33, 1171.05)" x="1288.33" y="1171.05">350</text>
</g>
<g clip-path="url(#clip1600)">
<text style="fill:#000000; fill-opacity:1; font-family:Arial,Helvetica Neue,Helvetica,sans-serif; font-size:125px; text-anchor:end;" transform="rotate(0, 1288.33, 710.314)" x="1288.33" y="710.314">400</text>
</g>
<g clip-path="url(#clip1600)">
<text style="fill:#000000; fill-opacity:1; font-family:Arial,Helvetica Neue,Helvetica,sans-serif; font-size:125px; text-anchor:end;" transform="rotate(0, 1288.33, 249.58)" x="1288.33" y="249.58">450</text>
</g>
<circle clip-path="url(#clip1603)" cx="1553.13" cy="445.37" r="21" fill="#000000" fill-rule="evenodd" fill-opacity="1" stroke="#ffffff" stroke-opacity="1" stroke-width="4.8"/>
<circle clip-path="url(#clip1603)" cx="1553.13" cy="445.37" r="17" fill="#ff0000" fill-rule="evenodd" fill-opacity="1" stroke="#ffffff" stroke-opacity="1" stroke-width="4.8"/>
<circle clip-path="url(#clip1603)" cx="1553.13" cy="607.72" r="21" fill="#000000" fill-rule="evenodd" fill-opacity="1" stroke="#ffffff" stroke-opacity="1" stroke-width="4.8"/>
<circle clip-path="url(#clip1603)" cx="1553.13" cy="607.72" r="17" fill="#ff0000" fill-rule="evenodd" fill-opacity="1" stroke="#ffffff" stroke-opacity="1" stroke-width="4.8"/>
<circle clip-path="url(#clip1603)" cx="1553.13" cy="130.94" r="21" fill="#000000" fill-rule="evenodd" fill-opacity="1" stroke="#ffffff" stroke-opacity="1" stroke-width="4.8"/>
<circle clip-path="url(#clip1603)" cx="1553.13" cy="130.94" r="17" fill="#ff0000" fill-rule="evenodd" fill-opacity="1" stroke="#ffffff" stroke-opacity="1" stroke-width="4.8"/>
<circle clip-path="url(#clip1603)" cx="1553.13" cy="452.366" r="21" fill="#000000" fill-rule="evenodd" fill-opacity="1" stroke="#ffffff" stroke-opacity="1" stroke-width="4.8"/>
<circle clip-path="url(#clip1603)" cx="1553.13" cy="452.366" r="17" fill="#ff0000" fill-rule="evenodd" fill-opacity="1" stroke="#ffffff" stroke-opacity="1" stroke-width="4.8"/>
<path clip-path="url(#clip1603)" d="
M1553.13 391.304 L1386.73 391.304 L1719.53 391.304 L1553.13 391.304 L1553.13 310.148 L1553.13 391.304  Z
  " fill="#ff0000" fill-rule="evenodd" fill-opacity="0.5"/>
<polyline clip-path="url(#clip1603)" style="stroke:#000000; stroke-width:4.8; stroke-opacity:1; fill:none" points="
  1553.13,391.304 1386.73,391.304 1719.53,391.304 1553.13,391.304 1553.13,310.148 1553.13,391.304 
  "/>
<path clip-path="url(#clip1603)" d="
M1386.73 310.148 L1386.73 263.944 L1719.53 263.944 L1719.53 310.148 L1386.73 310.148 L1386.73 310.148  Z
  " fill="#ff0000" fill-rule="evenodd" fill-opacity="0.5"/>
<polyline clip-path="url(#clip1603)" style="stroke:#000000; stroke-width:4.8; stroke-opacity:1; fill:none" points="
  1386.73,310.148 1386.73,263.944 1719.53,263.944 1719.53,310.148 1386.73,310.148 
  "/>
<path clip-path="url(#clip1603)" d="
M1386.73 239.729 L1386.73 263.944 L1719.53 263.944 L1719.53 239.729 L1386.73 239.729 L1386.73 239.729  Z
  " fill="#ff0000" fill-rule="evenodd" fill-opacity="0.5"/>
<polyline clip-path="url(#clip1603)" style="stroke:#000000; stroke-width:4.8; stroke-opacity:1; fill:none" points="
  1386.73,239.729 1386.73,263.944 1719.53,263.944 1719.53,239.729 1386.73,239.729 
  "/>
<path clip-path="url(#clip1603)" d="
M1553.13 138.151 L1386.73 138.151 L1719.53 138.151 L1553.13 138.151 L1553.13 239.729 L1553.13 138.151  Z
  " fill="#ff0000" fill-rule="evenodd" fill-opacity="0.5"/>
<polyline clip-path="url(#clip1603)" style="stroke:#000000; stroke-width:4.8; stroke-opacity:1; fill:none" points="
  1553.13,138.151 1386.73,138.151 1719.53,138.151 1553.13,138.151 1553.13,239.729 1553.13,138.151 
  "/>
<path clip-path="url(#clip1603)" d="
M2135.53 2133.41 L1969.13 2133.41 L2301.93 2133.41 L2135.53 2133.41 L2135.53 2026.79 L2135.53 2133.41  Z
  " fill="#008000" fill-rule="evenodd" fill-opacity="0.5"/>
<polyline clip-path="url(#clip1603)" style="stroke:#000000; stroke-width:4.8; stroke-opacity:1; fill:none" points="
  2135.53,2133.41 1969.13,2133.41 2301.93,2133.41 2135.53,2133.41 2135.53,2026.79 2135.53,2133.41 
  "/>
<path clip-path="url(#clip1603)" d="
M1969.13 2026.79 L1969.13 1987.69 L2301.93 1987.69 L2301.93 2026.79 L1969.13 2026.79 L1969.13 2026.79  Z
  " fill="#008000" fill-rule="evenodd" fill-opacity="0.5"/>
<polyline clip-path="url(#clip1603)" style="stroke:#000000; stroke-width:4.8; stroke-opacity:1; fill:none" points="
  1969.13,2026.79 1969.13,1987.69 2301.93,1987.69 2301.93,2026.79 1969.13,2026.79 
  "/>
<path clip-path="url(#clip1603)" d="
M1969.13 1954.88 L1969.13 1987.69 L2301.93 1987.69 L2301.93 1954.88 L1969.13 1954.88 L1969.13 1954.88  Z
  " fill="#008000" fill-rule="evenodd" fill-opacity="0.5"/>
<polyline clip-path="url(#clip1603)" style="stroke:#000000; stroke-width:4.8; stroke-opacity:1; fill:none" points="
  1969.13,1954.88 1969.13,1987.69 2301.93,1987.69 2301.93,1954.88 1969.13,1954.88 
  "/>
<path clip-path="url(#clip1603)" d="
M2135.53 1864.58 L1969.13 1864.58 L2301.93 1864.58 L2135.53 1864.58 L2135.53 1954.88 L2135.53 1864.58  Z
  " fill="#008000" fill-rule="evenodd" fill-opacity="0.5"/>
<polyline clip-path="url(#clip1603)" style="stroke:#000000; stroke-width:4.8; stroke-opacity:1; fill:none" points="
  2135.53,1864.58 1969.13,1864.58 2301.93,1864.58 2135.53,1864.58 2135.53,1954.88 2135.53,1864.58 
  "/>
<circle clip-path="url(#clip1603)" cx="2717.93" cy="2103.19" r="21" fill="#000000" fill-rule="evenodd" fill-opacity="1" stroke="#ffffff" stroke-opacity="1" stroke-width="4.8"/>
<circle clip-path="url(#clip1603)" cx="2717.93" cy="2103.19" r="17" fill="#800080" fill-rule="evenodd" fill-opacity="1" stroke="#ffffff" stroke-opacity="1" stroke-width="4.8"/>
<circle clip-path="url(#clip1603)" cx="2717.93" cy="1852.26" r="21" fill="#000000" fill-rule="evenodd" fill-opacity="1" stroke="#ffffff" stroke-opacity="1" stroke-width="4.8"/>
<circle clip-path="url(#clip1603)" cx="2717.93" cy="1852.26" r="17" fill="#800080" fill-rule="evenodd" fill-opacity="1" stroke="#ffffff" stroke-opacity="1" stroke-width="4.8"/>
<circle clip-path="url(#clip1603)" cx="2717.93" cy="1855.79" r="21" fill="#000000" fill-rule="evenodd" fill-opacity="1" stroke="#ffffff" stroke-opacity="1" stroke-width="4.8"/>
<circle clip-path="url(#clip1603)" cx="2717.93" cy="1855.79" r="17" fill="#800080" fill-rule="evenodd" fill-opacity="1" stroke="#ffffff" stroke-opacity="1" stroke-width="4.8"/>
<circle clip-path="url(#clip1603)" cx="2717.93" cy="1867.45" r="21" fill="#000000" fill-rule="evenodd" fill-opacity="1" stroke="#ffffff" stroke-opacity="1" stroke-width="4.8"/>
<circle clip-path="url(#clip1603)" cx="2717.93" cy="1867.45" r="17" fill="#800080" fill-rule="evenodd" fill-opacity="1" stroke="#ffffff" stroke-opacity="1" stroke-width="4.8"/>
<circle clip-path="url(#clip1603)" cx="2717.93" cy="2111.25" r="21" fill="#000000" fill-rule="evenodd" fill-opacity="1" stroke="#ffffff" stroke-opacity="1" stroke-width="4.8"/>
<circle clip-path="url(#clip1603)" cx="2717.93" cy="2111.25" r="17" fill="#800080" fill-rule="evenodd" fill-opacity="1" stroke="#ffffff" stroke-opacity="1" stroke-width="4.8"/>
<path clip-path="url(#clip1603)" d="
M2717.93 2089.49 L2551.53 2089.49 L2884.33 2089.49 L2717.93 2089.49 L2717.93 2010.6 L2717.93 2089.49  Z
  " fill="#800080" fill-rule="evenodd" fill-opacity="0.5"/>
<polyline clip-path="url(#clip1603)" style="stroke:#000000; stroke-width:4.8; stroke-opacity:1; fill:none" points="
  2717.93,2089.49 2551.53,2089.49 2884.33,2089.49 2717.93,2089.49 2717.93,2010.6 2717.93,2089.49 
  "/>
<path clip-path="url(#clip1603)" d="
M2551.53 2010.6 L2551.53 1977.74 L2884.33 1977.74 L2884.33 2010.6 L2551.53 2010.6 L2551.53 2010.6  Z
  " fill="#800080" fill-rule="evenodd" fill-opacity="0.5"/>
<polyline clip-path="url(#clip1603)" style="stroke:#000000; stroke-width:4.8; stroke-opacity:1; fill:none" points="
  2551.53,2010.6 2551.53,1977.74 2884.33,1977.74 2884.33,2010.6 2551.53,2010.6 
  "/>
<path clip-path="url(#clip1603)" d="
M2551.53 1954.59 L2551.53 1977.74 L2884.33 1977.74 L2884.33 1954.59 L2551.53 1954.59 L2551.53 1954.59  Z
  " fill="#800080" fill-rule="evenodd" fill-opacity="0.5"/>
<polyline clip-path="url(#clip1603)" style="stroke:#000000; stroke-width:4.8; stroke-opacity:1; fill:none" points="
  2551.53,1954.59 2551.53,1977.74 2884.33,1977.74 2884.33,1954.59 2551.53,1954.59 
  "/>
<path clip-path="url(#clip1603)" d="
M2717.93 1872.36 L2551.53 1872.36 L2884.33 1872.36 L2717.93 1872.36 L2717.93 1954.59 L2717.93 1872.36  Z
  " fill="#800080" fill-rule="evenodd" fill-opacity="0.5"/>
<polyline clip-path="url(#clip1603)" style="stroke:#000000; stroke-width:4.8; stroke-opacity:1; fill:none" points="
  2717.93,1872.36 2551.53,1872.36 2884.33,1872.36 2717.93,1872.36 2717.93,1954.59 2717.93,1872.36 
  "/>
<path clip-path="url(#clip1603)" d="
M3300.33 1939.86 L3133.93 1939.86 L3466.73 1939.86 L3300.33 1939.86 L3300.33 1850.12 L3300.33 1939.86  Z
  " fill="#ffa500" fill-rule="evenodd" fill-opacity="0.5"/>
<polyline clip-path="url(#clip1603)" style="stroke:#000000; stroke-width:4.8; stroke-opacity:1; fill:none" points="
  3300.33,1939.86 3133.93,1939.86 3466.73,1939.86 3300.33,1939.86 3300.33,1850.12 3300.33,1939.86 
  "/>
<path clip-path="url(#clip1603)" d="
M3133.93 1850.12 L3133.93 1808.91 L3466.73 1808.91 L3466.73 1850.12 L3133.93 1850.12 L3133.93 1850.12  Z
  " fill="#ffa500" fill-rule="evenodd" fill-opacity="0.5"/>
<polyline clip-path="url(#clip1603)" style="stroke:#000000; stroke-width:4.8; stroke-opacity:1; fill:none" points="
  3133.93,1850.12 3133.93,1808.91 3466.73,1808.91 3466.73,1850.12 3133.93,1850.12 
  "/>
<path clip-path="url(#clip1603)" d="
M3133.93 1773.88 L3133.93 1808.91 L3466.73 1808.91 L3466.73 1773.88 L3133.93 1773.88 L3133.93 1773.88  Z
  " fill="#ffa500" fill-rule="evenodd" fill-opacity="0.5"/>
<polyline clip-path="url(#clip1603)" style="stroke:#000000; stroke-width:4.8; stroke-opacity:1; fill:none" points="
  3133.93,1773.88 3133.93,1808.91 3466.73,1808.91 3466.73,1773.88 3133.93,1773.88 
  "/>
<path clip-path="url(#clip1603)" d="
M3300.33 1676.88 L3133.93 1676.88 L3466.73 1676.88 L3300.33 1676.88 L3300.33 1773.88 L3300.33 1676.88  Z
  " fill="#ffa500" fill-rule="evenodd" fill-opacity="0.5"/>
<polyline clip-path="url(#clip1603)" style="stroke:#000000; stroke-width:4.8; stroke-opacity:1; fill:none" points="
  3300.33,1676.88 3133.93,1676.88 3466.73,1676.88 3300.33,1676.88 3300.33,1773.88 3300.33,1676.88 
  "/>
</svg>
