<?xml version="1.0" encoding="utf-8"?>
<svg xmlns="http://www.w3.org/2000/svg" xmlns:xlink="http://www.w3.org/1999/xlink" width="900" height="600" viewBox="0 0 3600 2400">
<defs>
  <clipPath id="clip0000">
    <rect x="0" y="0" width="3600" height="2400"/>
  </clipPath>
</defs>
<path clip-path="url(#clip0000)" d="
M0 2400 L3600 2400 L3600 0 L0 0  Z
  " fill="#ffffff" fill-rule="evenodd" fill-opacity="1"/>
<defs>
  <clipPath id="clip0001">
    <rect x="720" y="0" width="2521" height="2400"/>
  </clipPath>
</defs>
<path clip-path="url(#clip0000)" d="
M523.139 2193.49 L912.222 2193.49 L912.222 70.8661 L523.139 70.8661  Z
  " fill="#ffffff" fill-rule="evenodd" fill-opacity="1"/>
<defs>
  <clipPath id="clip0002">
    <rect x="523" y="70" width="390" height="2124"/>
  </clipPath>
</defs>
<polyline clip-path="url(#clip0002)" style="stroke:#000000; stroke-width:2.4; stroke-opacity:0.1; fill:none" points="
  717.681,2193.49 717.681,70.8661 
  "/>
<polyline clip-path="url(#clip0002)" style="stroke:#000000; stroke-width:2.4; stroke-opacity:0.1; fill:none" points="
  523.139,1814.28 912.222,1814.28 
  "/>
<polyline clip-path="url(#clip0002)" style="stroke:#000000; stroke-width:2.4; stroke-opacity:0.1; fill:none" points="
  523.139,1410.78 912.222,1410.78 
  "/>
<polyline clip-path="url(#clip0002)" style="stroke:#000000; stroke-width:2.4; stroke-opacity:0.1; fill:none" points="
  523.139,1007.27 912.222,1007.27 
  "/>
<polyline clip-path="url(#clip0002)" style="stroke:#000000; stroke-width:2.4; stroke-opacity:0.1; fill:none" points="
  523.139,603.765 912.222,603.765 
  "/>
<polyline clip-path="url(#clip0002)" style="stroke:#000000; stroke-width:2.4; stroke-opacity:0.1; fill:none" points="
  523.139,200.259 912.222,200.259 
  "/>
<polyline clip-path="url(#clip0000)" style="stroke:#000000; stroke-width:4.8; stroke-opacity:1; fill:none" points="
  523.139,2193.49 912.222,2193.49 
  "/>
<polyline clip-path="url(#clip0000)" style="stroke:#000000; stroke-width:4.8; stroke-opacity:1; fill:none" points="
  523.139,2193.49 523.139,70.8661 
  "/>
<polyline clip-path="url(#clip0000)" style="stroke:#000000; stroke-width:4.8; stroke-opacity:1; fill:none" points="
  717.681,2193.49 717.681,2161.65 
  "/>
<polyline clip-path="url(#clip0000)" style="stroke:#000000; stroke-width:4.8; stroke-opacity:1; fill:none" points="
  523.139,1814.28 528.976,1814.28 
  "/>
<polyline clip-path="url(#clip0000)" style="stroke:#000000; stroke-width:4.8; stroke-opacity:1; fill:none" points="
  523.139,1410.78 528.976,1410.78 
  "/>
<polyline clip-path="url(#clip0000)" style="stroke:#000000; stroke-width:4.8; stroke-opacity:1; fill:none" points="
  523.139,1007.27 528.976,1007.27 
  "/>
<polyline clip-path="url(#clip0000)" style="stroke:#000000; stroke-width:4.8; stroke-opacity:1; fill:none" points="
  523.139,603.765 528.976,603.765 
  "/>
<polyline clip-path="url(#clip0000)" style="stroke:#000000; stroke-width:4.8; stroke-opacity:1; fill:none" points="
  523.139,200.259 528.976,200.259 
  "/>
<g clip-path="url(#clip0000)">
<text style="fill:#000000; fill-opacity:1; font-family:Arial,Helvetica Neue,Helvetica,sans-serif; font-size:125px; text-anchor:middle;" transform="rotate(0, 717.681, 2320.69)" x="717.681" y="2320.69">0</text>
</g>
<g clip-path="url(#clip0000)">
<text style="fill:#000000; fill-opacity:1; font-family:Arial,Helvetica Neue,Helvetica,sans-serif; font-size:125px; text-anchor:end;" transform="rotate(0, 487.139, 1859.78)" x="487.139" y="1859.78">700</text>
</g>
<g clip-path="url(#clip0000)">
<text style="fill:#000000; fill-opacity:1; font-family:Arial,Helvetica Neue,Helvetica,sans-serif; font-size:125px; text-anchor:end;" transform="rotate(0, 487.139, 1456.28)" x="487.139" y="1456.28">800</text>
</g>
<g clip-path="url(#clip0000)">
<text style="fill:#000000; fill-opacity:1; font-family:Arial,Helvetica Neue,Helvetica,sans-serif; font-size:125px; text-anchor:end;" transform="rotate(0, 487.139, 1052.77)" x="487.139" y="1052.77">900</text>
</g>
<g clip-path="url(#clip0000)">
<text style="fill:#000000; fill-opacity:1; font-family:Arial,Helvetica Neue,Helvetica,sans-serif; font-size:125px; text-anchor:end;" transform="rotate(0, 487.139, 649.265)" x="487.139" y="649.265">1000</text>
</g>
<g clip-path="url(#clip0000)">
<text style="fill:#000000; fill-opacity:1; font-family:Arial,Helvetica Neue,Helvetica,sans-serif; font-size:125px; text-anchor:end;" transform="rotate(0, 487.139, 245.759)" x="487.139" y="245.759">1100</text>
</g>
<g clip-path="url(#clip0000)">
<text style="fill:#000000; fill-opacity:1; font-family:Arial,Helvetica Neue,Helvetica,sans-serif; font-size:125px; text-anchor:middle;" transform="rotate(-90, 147.298, 1132.18)" x="147.298" y="1132.18">Overall cost [a.u.]</text>
</g>
<path clip-path="url(#clip0002)" d="
M717.681 2133.41 L580.034 2133.41 L855.328 2133.41 L717.681 2133.41 L717.681 1436.01 L717.681 2133.41  Z
  " fill="#0000ff" fill-rule="evenodd" fill-opacity="0.5"/>
<polyline clip-path="url(#clip0002)" style="stroke:#000000; stroke-width:4.8; stroke-opacity:1; fill:none" points="
  717.681,2133.41 580.034,2133.41 855.328,2133.41 717.681,2133.41 717.681,1436.01 717.681,2133.41 
  "/>
<path clip-path="url(#clip0002)" d="
M534.151 1436.01 L534.151 1154.39 L901.211 1154.39 L901.211 1436.01 L534.151 1436.01 L534.151 1436.01  Z
  " fill="#0000ff" fill-rule="evenodd" fill-opacity="0.5"/>
<polyline clip-path="url(#clip0002)" style="stroke:#000000; stroke-width:4.8; stroke-opacity:1; fill:none" points="
  534.151,1436.01 534.151,1154.39 901.211,1154.39 901.211,1436.01 534.151,1436.01 
  "/>
<path clip-path="url(#clip0002)" d="
M534.151 842.222 L534.151 1154.39 L901.211 1154.39 L901.211 842.222 L534.151 842.222 L534.151 842.222  Z
  " fill="#0000ff" fill-rule="evenodd" fill-opacity="0.5"/>
<polyline clip-path="url(#clip0002)" style="stroke:#000000; stroke-width:4.8; stroke-opacity:1; fill:none" points="
  534.151,842.222 534.151,1154.39 901.211,1154.39 901.211,842.222 534.151,842.222 
  "/>
<path clip-path="url(#clip0002)" d="
M717.681 130.94 L580.034 130.94 L855.328 130.94 L717.681 130.94 L717.681 842.222 L717.681 130.94  Z
  " fill="#0000ff" fill-rule="evenodd" fill-opacity="0.5"/>
<polyline clip-path="url(#clip0002)" style="stroke:#000000; stroke-width:4.8; stroke-opacity:1; fill:none" points="
  717.681,130.94 580.034,130.94 855.328,130.94 717.681,130.94 717.681,842.222 717.681,130.94 
  "/>
<path clip-path="url(#clip0000)" d="
M1324.33 2193.49 L3529.13 2193.49 L3529.13 70.8661 L1324.33 70.8661  Z
  " fill="#ffffff" fill-rule="evenodd" fill-opacity="1"/>
<defs>
  <clipPath id="clip0003">
    <rect x="1324" y="70" width="2206" height="2124"/>
  </clipPath>
</defs>
<polyline clip-path="url(#clip0003)" style="stroke:#000000; stroke-width:2.4; stroke-opacity:0.1; fill:none" points="
  1553.13,2193.49 1553.13,70.8661 
  "/>
<polyline clip-path="url(#clip0003)" style="stroke:#000000; stroke-width:2.4; stroke-opacity:0.1; fill:none" points="
  2135.53,2193.49 2135.53,70.8661 
  "/>
<polyline clip-path="url(#clip0003)" style="stroke:#000000; stroke-width:2.4; stroke-opacity:0.1; fill:none" points="
  2717.93,2193.49 2717.93,70.8661 
  "/>
<polyline clip-path="url(#clip0003)" style="stroke:#000000; stroke-width:2.4; stroke-opacity:0.1; fill:none" points="
  3300.33,2193.49 3300.33,70.8661 
  "/>
<polyline clip-path="url(#clip0003)" style="stroke:#000000; stroke-width:2.4; stroke-opacity:0.1; fill:none" points="
  1324.33,2006.97 3529.13,2006.97 
  "/>
<polyline clip-path="url(#clip0003)" style="stroke:#000000; stroke-width:2.4; stroke-opacity:0.1; fill:none" points="
  1324.33,1635.55 3529.13,1635.55 
  "/>
<polyline clip-path="url(#clip0003)" style="stroke:#000000; stroke-width:2.4; stroke-opacity:0.1; fill:none" points="
  1324.33,1264.13 3529.13,1264.13 
  "/>
<polyline clip-path="url(#clip0003)" style="stroke:#000000; stroke-width:2.4; stroke-opacity:0.1; fill:none" points="
  1324.33,892.719 3529.13,892.719 
  "/>
<polyline clip-path="url(#clip0003)" style="stroke:#000000; stroke-width:2.4; stroke-opacity:0.1; fill:none" points="
  1324.33,521.303 3529.13,521.303 
  "/>
<polyline clip-path="url(#clip0003)" style="stroke:#000000; stroke-width:2.4; stroke-opacity:0.1; fill:none" points="
  1324.33,149.887 3529.13,149.887 
  "/>
<polyline clip-path="url(#clip0000)" style="stroke:#000000; stroke-width:4.8; stroke-opacity:1; fill:none" points="
  1324.33,2193.49 3529.13,2193.49 
  "/>
<polyline clip-path="url(#clip0000)" style="stroke:#000000; stroke-width:4.8; stroke-opacity:1; fill:none" points="
  1324.33,2193.49 1324.33,70.8661 
  "/>
<polyline clip-path="url(#clip0000)" style="stroke:#000000; stroke-width:4.8; stroke-opacity:1; fill:none" points="
  1553.13,2193.49 1553.13,2161.65 
  "/>
<polyline clip-path="url(#clip0000)" style="stroke:#000000; stroke-width:4.8; stroke-opacity:1; fill:none" points="
  2135.53,2193.49 2135.53,2161.65 
  "/>
<polyline clip-path="url(#clip0000)" style="stroke:#000000; stroke-width:4.8; stroke-opacity:1; fill:none" points="
  2717.93,2193.49 2717.93,2161.65 
  "/>
<polyline clip-path="url(#clip0000)" style="stroke:#000000; stroke-width:4.8; stroke-opacity:1; fill:none" points="
  3300.33,2193.49 3300.33,2161.65 
  "/>
<polyline clip-path="url(#clip0000)" style="stroke:#000000; stroke-width:4.8; stroke-opacity:1; fill:none" points="
  1324.33,2006.97 1357.4,2006.97 
  "/>
<polyline clip-path="url(#clip0000)" style="stroke:#000000; stroke-width:4.8; stroke-opacity:1; fill:none" points="
  1324.33,1635.55 1357.4,1635.55 
  "/>
<polyline clip-path="url(#clip0000)" style="stroke:#000000; stroke-width:4.8; stroke-opacity:1; fill:none" points="
  1324.33,1264.13 1357.4,1264.13 
  "/>
<polyline clip-path="url(#clip0000)" style="stroke:#000000; stroke-width:4.8; stroke-opacity:1; fill:none" points="
  1324.33,892.719 1357.4,892.719 
  "/>
<polyline clip-path="url(#clip0000)" style="stroke:#000000; stroke-width:4.8; stroke-opacity:1; fill:none" points="
  1324.33,521.303 1357.4,521.303 
  "/>
<polyline clip-path="url(#clip0000)" style="stroke:#000000; stroke-width:4.8; stroke-opacity:1; fill:none" points="
  1324.33,149.887 1357.4,149.887 
  "/>
<g clip-path="url(#clip0000)">
<text style="fill:#000000; fill-opacity:1; font-family:Arial,Helvetica Neue,Helvetica,sans-serif; font-size:125px; text-anchor:middle;" transform="rotate(0, 1553.13, 2320.69)" x="1553.13" y="2320.69">I</text>
</g>
<g clip-path="url(#clip0000)">
<text style="fill:#000000; fill-opacity:1; font-family:Arial,Helvetica Neue,Helvetica,sans-serif; font-size:125px; text-anchor:middle;" transform="rotate(0, 2135.53, 2320.69)" x="2135.53" y="2320.69">II</text>
</g>
<g clip-path="url(#clip0000)">
<text style="fill:#000000; fill-opacity:1; font-family:Arial,Helvetica Neue,Helvetica,sans-serif; font-size:125px; text-anchor:middle;" transform="rotate(0, 2717.93, 2320.69)" x="2717.93" y="2320.69">III</text>
</g>
<g clip-path="url(#clip0000)">
<text style="fill:#000000; fill-opacity:1; font-family:Arial,Helvetica Neue,Helvetica,sans-serif; font-size:125px; text-anchor:middle;" transform="rotate(0, 3300.33, 2320.69)" x="3300.33" y="2320.69">IV</text>
</g>
<g clip-path="url(#clip0000)">
<text style="fill:#000000; fill-opacity:1; font-family:Arial,Helvetica Neue,Helvetica,sans-serif; font-size:125px; text-anchor:end;" transform="rotate(0, 1288.33, 2052.47)" x="1288.33" y="2052.47">300</text>
</g>
<g clip-path="url(#clip0000)">
<text style="fill:#000000; fill-opacity:1; font-family:Arial,Helvetica Neue,Helvetica,sans-serif; font-size:125px; text-anchor:end;" transform="rotate(0, 1288.33, 1681.05)" x="1288.33" y="1681.05">350</text>
</g>
<g clip-path="url(#clip0000)">
<text style="fill:#000000; fill-opacity:1; font-family:Arial,Helvetica Neue,Helvetica,sans-serif; font-size:125px; text-anchor:end;" transform="rotate(0, 1288.33, 1309.63)" x="1288.33" y="1309.63">400</text>
</g>
<g clip-path="url(#clip0000)">
<text style="fill:#000000; fill-opacity:1; font-family:Arial,Helvetica Neue,Helvetica,sans-serif; font-size:125px; text-anchor:end;" transform="rotate(0, 1288.33, 938.219)" x="1288.33" y="938.219">450</text>
</g>
<g clip-path="url(#clip0000)">
<text style="fill:#000000; fill-opacity:1; font-family:Arial,Helvetica Neue,Helvetica,sans-serif; font-size:125px; text-anchor:end;" transform="rotate(0, 1288.33, 566.803)" x="1288.33" y="566.803">500</text>
</g>
<g clip-path="url(#clip0000)">
<text style="fill:#000000; fill-opacity:1; font-family:Arial,Helvetica Neue,Helvetica,sans-serif; font-size:125px; text-anchor:end;" transform="rotate(0, 1288.33, 195.387)" x="1288.33" y="195.387">550</text>
</g>
<circle clip-path="url(#clip0003)" cx="1553.13" cy="517.994" r="21" fill="#000000" fill-rule="evenodd" fill-opacity="1" stroke="#ffffff" stroke-opacity="1" stroke-width="4.8"/>
<circle clip-path="url(#clip0003)" cx="1553.13" cy="517.994" r="17" fill="#ff0000" fill-rule="evenodd" fill-opacity="1" stroke="#ffffff" stroke-opacity="1" stroke-width="4.8"/>
<circle clip-path="url(#clip0003)" cx="1553.13" cy="500.411" r="21" fill="#000000" fill-rule="evenodd" fill-opacity="1" stroke="#ffffff" stroke-opacity="1" stroke-width="4.8"/>
<circle clip-path="url(#clip0003)" cx="1553.13" cy="500.411" r="17" fill="#ff0000" fill-rule="evenodd" fill-opacity="1" stroke="#ffffff" stroke-opacity="1" stroke-width="4.8"/>
<circle clip-path="url(#clip0003)" cx="1553.13" cy="130.94" r="21" fill="#000000" fill-rule="evenodd" fill-opacity="1" stroke="#ffffff" stroke-opacity="1" stroke-width="4.8"/>
<circle clip-path="url(#clip0003)" cx="1553.13" cy="130.94" r="17" fill="#ff0000" fill-rule="evenodd" fill-opacity="1" stroke="#ffffff" stroke-opacity="1" stroke-width="4.8"/>
<path clip-path="url(#clip0003)" d="
M1553.13 1489.73 L1386.73 1489.73 L1719.53 1489.73 L1553.13 1489.73 L1553.13 1173.75 L1553.13 1489.73  Z
  " fill="#ff0000" fill-rule="evenodd" fill-opacity="0.5"/>
<polyline clip-path="url(#clip0003)" style="stroke:#000000; stroke-width:4.8; stroke-opacity:1; fill:none" points="
  1553.13,1489.73 1386.73,1489.73 1719.53,1489.73 1553.13,1489.73 1553.13,1173.75 1553.13,1489.73 
  "/>
<path clip-path="url(#clip0003)" d="
M1386.73 1173.75 L1386.73 1060.99 L1719.53 1060.99 L1719.53 1173.75 L1386.73 1173.75 L1386.73 1173.75  Z
  " fill="#ff0000" fill-rule="evenodd" fill-opacity="0.5"/>
<polyline clip-path="url(#clip0003)" style="stroke:#000000; stroke-width:4.8; stroke-opacity:1; fill:none" points="
  1386.73,1173.75 1386.73,1060.99 1719.53,1060.99 1719.53,1173.75 1386.73,1173.75 
  "/>
<path clip-path="url(#clip0003)" d="
M1386.73 925.548 L1386.73 1060.99 L1719.53 1060.99 L1719.53 925.548 L1386.73 925.548 L1386.73 925.548  Z
  " fill="#ff0000" fill-rule="evenodd" fill-opacity="0.5"/>
<polyline clip-path="url(#clip0003)" style="stroke:#000000; stroke-width:4.8; stroke-opacity:1; fill:none" points="
  1386.73,925.548 1386.73,1060.99 1719.53,1060.99 1719.53,925.548 1386.73,925.548 
  "/>
<path clip-path="url(#clip0003)" d="
M1553.13 589.571 L1386.73 589.571 L1719.53 589.571 L1553.13 589.571 L1553.13 925.548 L1553.13 589.571  Z
  " fill="#ff0000" fill-rule="evenodd" fill-opacity="0.5"/>
<polyline clip-path="url(#clip0003)" style="stroke:#000000; stroke-width:4.8; stroke-opacity:1; fill:none" points="
  1553.13,589.571 1386.73,589.571 1719.53,589.571 1553.13,589.571 1553.13,925.548 1553.13,589.571 
  "/>
<path clip-path="url(#clip0003)" d="
M2135.53 2133.41 L1969.13 2133.41 L2301.93 2133.41 L2135.53 2133.41 L2135.53 1798.76 L2135.53 2133.41  Z
  " fill="#008000" fill-rule="evenodd" fill-opacity="0.5"/>
<polyline clip-path="url(#clip0003)" style="stroke:#000000; stroke-width:4.8; stroke-opacity:1; fill:none" points="
  2135.53,2133.41 1969.13,2133.41 2301.93,2133.41 2135.53,2133.41 2135.53,1798.76 2135.53,2133.41 
  "/>
<path clip-path="url(#clip0003)" d="
M1969.13 1798.76 L1969.13 1668.63 L2301.93 1668.63 L2301.93 1798.76 L1969.13 1798.76 L1969.13 1798.76  Z
  " fill="#008000" fill-rule="evenodd" fill-opacity="0.5"/>
<polyline clip-path="url(#clip0003)" style="stroke:#000000; stroke-width:4.8; stroke-opacity:1; fill:none" points="
  1969.13,1798.76 1969.13,1668.63 2301.93,1668.63 2301.93,1798.76 1969.13,1798.76 
  "/>
<path clip-path="url(#clip0003)" d="
M1969.13 1454.32 L1969.13 1668.63 L2301.93 1668.63 L2301.93 1454.32 L1969.13 1454.32 L1969.13 1454.32  Z
  " fill="#008000" fill-rule="evenodd" fill-opacity="0.5"/>
<polyline clip-path="url(#clip0003)" style="stroke:#000000; stroke-width:4.8; stroke-opacity:1; fill:none" points="
  1969.13,1454.32 1969.13,1668.63 2301.93,1668.63 2301.93,1454.32 1969.13,1454.32 
  "/>
<path clip-path="url(#clip0003)" d="
M2135.53 1054 L1969.13 1054 L2301.93 1054 L2135.53 1054 L2135.53 1454.32 L2135.53 1054  Z
  " fill="#008000" fill-rule="evenodd" fill-opacity="0.5"/>
<polyline clip-path="url(#clip0003)" style="stroke:#000000; stroke-width:4.8; stroke-opacity:1; fill:none" points="
  2135.53,1054 1969.13,1054 2301.93,1054 2135.53,1054 2135.53,1454.32 2135.53,1054 
  "/>
<path clip-path="url(#clip0003)" d="
M2717.93 2049.95 L2551.53 2049.95 L2884.33 2049.95 L2717.93 2049.95 L2717.93 1742.88 L2717.93 2049.95  Z
  " fill="#800080" fill-rule="evenodd" fill-opacity="0.5"/>
<polyline clip-path="url(#clip0003)" style="stroke:#000000; stroke-width:4.8; stroke-opacity:1; fill:none" points="
  2717.93,2049.95 2551.53,2049.95 2884.33,2049.95 2717.93,2049.95 2717.93,1742.88 2717.93,2049.95 
  "/>
<path clip-path="url(#clip0003)" d="
M2551.53 1742.88 L2551.53 1601.74 L2884.33 1601.74 L2884.33 1742.88 L2551.53 1742.88 L2551.53 1742.88  Z
  " fill="#800080" fill-rule="evenodd" fill-opacity="0.5"/>
<polyline clip-path="url(#clip0003)" style="stroke:#000000; stroke-width:4.8; stroke-opacity:1; fill:none" points="
  2551.53,1742.88 2551.53,1601.74 2884.33,1601.74 2884.33,1742.88 2551.53,1742.88 
  "/>
<path clip-path="url(#clip0003)" d="
M2551.53 1440.41 L2551.53 1601.74 L2884.33 1601.74 L2884.33 1440.41 L2551.53 1440.41 L2551.53 1440.41  Z
  " fill="#800080" fill-rule="evenodd" fill-opacity="0.5"/>
<polyline clip-path="url(#clip0003)" style="stroke:#000000; stroke-width:4.8; stroke-opacity:1; fill:none" points="
  2551.53,1440.41 2551.53,1601.74 2884.33,1601.74 2884.33,1440.41 2551.53,1440.41 
  "/>
<path clip-path="url(#clip0003)" d="
M2717.93 989.108 L2551.53 989.108 L2884.33 989.108 L2717.93 989.108 L2717.93 1440.41 L2717.93 989.108  Z
  " fill="#800080" fill-rule="evenodd" fill-opacity="0.5"/>
<polyline clip-path="url(#clip0003)" style="stroke:#000000; stroke-width:4.8; stroke-opacity:1; fill:none" points="
  2717.93,989.108 2551.53,989.108 2884.33,989.108 2717.93,989.108 2717.93,1440.41 2717.93,989.108 
  "/>
<path clip-path="url(#clip0003)" d="
M3300.33 2041.38 L3133.93 2041.38 L3466.73 2041.38 L3300.33 2041.38 L3300.33 1725.97 L3300.33 2041.38  Z
  " fill="#ffa500" fill-rule="evenodd" fill-opacity="0.5"/>
<polyline clip-path="url(#clip0003)" style="stroke:#000000; stroke-width:4.8; stroke-opacity:1; fill:none" points="
  3300.33,2041.38 3133.93,2041.38 3466.73,2041.38 3300.33,2041.38 3300.33,1725.97 3300.33,2041.38 
  "/>
<path clip-path="url(#clip0003)" d="
M3133.93 1725.97 L3133.93 1618.14 L3466.73 1618.14 L3466.73 1725.97 L3133.93 1725.97 L3133.93 1725.97  Z
  " fill="#ffa500" fill-rule="evenodd" fill-opacity="0.5"/>
<polyline clip-path="url(#clip0003)" style="stroke:#000000; stroke-width:4.8; stroke-opacity:1; fill:none" points="
  3133.93,1725.97 3133.93,1618.14 3466.73,1618.14 3466.73,1725.97 3133.93,1725.97 
  "/>
<path clip-path="url(#clip0003)" d="
M3133.93 1362.87 L3133.93 1618.14 L3466.73 1618.14 L3466.73 1362.87 L3133.93 1362.87 L3133.93 1362.87  Z
  " fill="#ffa500" fill-rule="evenodd" fill-opacity="0.5"/>
<polyline clip-path="url(#clip0003)" style="stroke:#000000; stroke-width:4.8; stroke-opacity:1; fill:none" points="
  3133.93,1362.87 3133.93,1618.14 3466.73,1618.14 3466.73,1362.87 3133.93,1362.87 
  "/>
<path clip-path="url(#clip0003)" d="
M3300.33 1162.41 L3133.93 1162.41 L3466.73 1162.41 L3300.33 1162.41 L3300.33 1362.87 L3300.33 1162.41  Z
  " fill="#ffa500" fill-rule="evenodd" fill-opacity="0.5"/>
<polyline clip-path="url(#clip0003)" style="stroke:#000000; stroke-width:4.8; stroke-opacity:1; fill:none" points="
  3300.33,1162.41 3133.93,1162.41 3466.73,1162.41 3300.33,1162.41 3300.33,1362.87 3300.33,1162.41 
  "/>
</svg>
