<?xml version="1.0" encoding="utf-8"?>
<svg xmlns="http://www.w3.org/2000/svg" xmlns:xlink="http://www.w3.org/1999/xlink" width="900" height="600" viewBox="0 0 3600 2400">
<defs>
  <clipPath id="clip0800">
    <rect x="0" y="0" width="3600" height="2400"/>
  </clipPath>
</defs>
<path clip-path="url(#clip0800)" d="
M0 2400 L3600 2400 L3600 0 L0 0  Z
  " fill="#ffffff" fill-rule="evenodd" fill-opacity="1"/>
<defs>
  <clipPath id="clip0801">
    <rect x="720" y="0" width="2521" height="2400"/>
  </clipPath>
</defs>
<path clip-path="url(#clip0800)" d="
M523.139 2193.49 L912.222 2193.49 L912.222 70.8661 L523.139 70.8661  Z
  " fill="#ffffff" fill-rule="evenodd" fill-opacity="1"/>
<defs>
  <clipPath id="clip0802">
    <rect x="523" y="70" width="390" height="2124"/>
  </clipPath>
</defs>
<polyline clip-path="url(#clip0802)" style="stroke:#000000; stroke-width:2.4; stroke-opacity:0.1; fill:none" points="
  717.681,2193.49 717.681,70.8661 
  "/>
<polyline clip-path="url(#clip0802)" style="stroke:#000000; stroke-width:2.4; stroke-opacity:0.1; fill:none" points="
  523.139,1899.07 912.222,1899.07 
  "/>
<polyline clip-path="url(#clip0802)" style="stroke:#000000; stroke-width:2.4; stroke-opacity:0.1; fill:none" points="
  523.139,1574.85 912.222,1574.85 
  "/>
<polyline clip-path="url(#clip0802)" style="stroke:#000000; stroke-width:2.4; stroke-opacity:0.1; fill:none" points="
  523.139,1250.63 912.222,1250.63 
  "/>
<polyline clip-path="url(#clip0802)" style="stroke:#000000; stroke-width:2.4; stroke-opacity:0.1; fill:none" points="
  523.139,926.418 912.222,926.418 
  "/>
<polyline clip-path="url(#clip0802)" style="stroke:#000000; stroke-width:2.4; stroke-opacity:0.1; fill:none" points="
  523.139,602.201 912.222,602.201 
  "/>
<polyline clip-path="url(#clip0802)" style="stroke:#000000; stroke-width:2.4; stroke-opacity:0.1; fill:none" points="
  523.139,277.985 912.222,277.985 
  "/>
<polyline clip-path="url(#clip0800)" style="stroke:#000000; stroke-width:4.8; stroke-opacity:1; fill:none" points="
  523.139,2193.49 912.222,2193.49 
  "/>
<polyline clip-path="url(#clip0800)" style="stroke:#000000; stroke-width:4.8; stroke-opacity:1; fill:none" points="
  523.139,2193.49 523.139,70.8661 
  "/>
<polyline clip-path="url(#clip0800)" style="stroke:#000000; stroke-width:4.8; stroke-opacity:1; fill:none" points="
  717.681,2193.49 717.681,2161.65 
  "/>
<polyline clip-path="url(#clip0800)" style="stroke:#000000; stroke-width:4.8; stroke-opacity:1; fill:none" points="
  523.139,1899.07 528.976,1899.07 
  "/>
<polyline clip-path="url(#clip0800)" style="stroke:#000000; stroke-width:4.8; stroke-opacity:1; fill:none" points="
  523.139,1574.85 528.976,1574.85 
  "/>
<polyline clip-path="url(#clip0800)" style="stroke:#000000; stroke-width:4.8; stroke-opacity:1; fill:none" points="
  523.139,1250.63 528.976,1250.63 
  "/>
<polyline clip-path="url(#clip0800)" style="stroke:#000000; stroke-width:4.8; stroke-opacity:1; fill:none" points="
  523.139,926.418 528.976,926.418 
  "/>
<polyline clip-path="url(#clip0800)" style="stroke:#000000; stroke-width:4.8; stroke-opacity:1; fill:none" points="
  523.139,602.201 528.976,602.201 
  "/>
<polyline clip-path="url(#clip0800)" style="stroke:#000000; stroke-width:4.8; stroke-opacity:1; fill:none" points="
  523.139,277.985 528.976,277.985 
  "/>
<g clip-path="url(#clip0800)">
<text style="fill:#000000; fill-opacity:1; font-family:Arial,Helvetica Neue,Helvetica,sans-serif; font-size:125px; text-anchor:middle;" transform="rotate(0, 717.681, 2320.69)" x="717.681" y="2320.69">0</text>
</g>
<g clip-path="url(#clip0800)">
<text style="fill:#000000; fill-opacity:1; font-family:Arial,Helvetica Neue,Helvetica,sans-serif; font-size:125px; text-anchor:end;" transform="rotate(0, 487.139, 1944.57)" x="487.139" y="1944.57">900</text>
</g>
<g clip-path="url(#clip0800)">
<text style="fill:#000000; fill-opacity:1; font-family:Arial,Helvetica Neue,Helvetica,sans-serif; font-size:125px; text-anchor:end;" transform="rotate(0, 487.139, 1620.35)" x="487.139" y="1620.35">1000</text>
</g>
<g clip-path="url(#clip0800)">
<text style="fill:#000000; fill-opacity:1; font-family:Arial,Helvetica Neue,Helvetica,sans-serif; font-size:125px; text-anchor:end;" transform="rotate(0, 487.139, 1296.13)" x="487.139" y="1296.13">1100</text>
</g>
<g clip-path="url(#clip0800)">
<text style="fill:#000000; fill-opacity:1; font-family:Arial,Helvetica Neue,Helvetica,sans-serif; font-size:125px; text-anchor:end;" transform="rotate(0, 487.139, 971.918)" x="487.139" y="971.918">1200</text>
</g>
<g clip-path="url(#clip0800)">
<text style="fill:#000000; fill-opacity:1; font-family:Arial,Helvetica Neue,Helvetica,sans-serif; font-size:125px; text-anchor:end;" transform="rotate(0, 487.139, 647.701)" x="487.139" y="647.701">1300</text>
</g>
<g clip-path="url(#clip0800)">
<text style="fill:#000000; fill-opacity:1; font-family:Arial,Helvetica Neue,Helvetica,sans-serif; font-size:125px; text-anchor:end;" transform="rotate(0, 487.139, 323.485)" x="487.139" y="323.485">1400</text>
</g>
<g clip-path="url(#clip0800)">
<text style="fill:#000000; fill-opacity:1; font-family:Arial,Helvetica Neue,Helvetica,sans-serif; font-size:125px; text-anchor:middle;" transform="rotate(-90, 147.298, 1132.18)" x="147.298" y="1132.18">Overall cost [a.u.]</text>
</g>
<path clip-path="url(#clip0802)" d="
M717.681 2133.41 L580.034 2133.41 L855.328 2133.41 L717.681 2133.41 L717.681 1421.79 L717.681 2133.41  Z
  " fill="#0000ff" fill-rule="evenodd" fill-opacity="0.5"/>
<polyline clip-path="url(#clip0802)" style="stroke:#000000; stroke-width:4.8; stroke-opacity:1; fill:none" points="
  717.681,2133.41 580.034,2133.41 855.328,2133.41 717.681,2133.41 717.681,1421.79 717.681,2133.41 
  "/>
<path clip-path="url(#clip0802)" d="
M534.151 1421.79 L534.151 1155.32 L901.211 1155.32 L901.211 1421.79 L534.151 1421.79 L534.151 1421.79  Z
  " fill="#0000ff" fill-rule="evenodd" fill-opacity="0.5"/>
<polyline clip-path="url(#clip0802)" style="stroke:#000000; stroke-width:4.8; stroke-opacity:1; fill:none" points="
  534.151,1421.79 534.151,1155.32 901.211,1155.32 901.211,1421.79 534.151,1421.79 
  "/>
<path clip-path="url(#clip0802)" d="
M534.151 808.816 L534.151 1155.32 L901.211 1155.32 L901.211 808.816 L534.151 808.816 L534.151 808.816  Z
  " fill="#0000ff" fill-rule="evenodd" fill-opacity="0.5"/>
<polyline clip-path="url(#clip0802)" style="stroke:#000000; stroke-width:4.8; stroke-opacity:1; fill:none" points="
  534.151,808.816 534.151,1155.32 901.211,1155.32 901.211,808.816 534.151,808.816 
  "/>
<path clip-path="url(#clip0802)" d="
M717.681 130.94 L580.034 130.94 L855.328 130.94 L717.681 130.94 L717.681 808.816 L717.681 130.94  Z
  " fill="#0000ff" fill-rule="evenodd" fill-opacity="0.5"/>
<polyline clip-path="url(#clip0802)" style="stroke:#000000; stroke-width:4.8; stroke-opacity:1; fill:none" points="
  717.681,130.94 580.034,130.94 855.328,130.94 717.681,130.94 717.681,808.816 717.681,130.94 
  "/>
<path clip-path="url(#clip0800)" d="
M1324.33 2193.49 L3529.13 2193.49 L3529.13 70.8661 L1324.33 70.8661  Z
  " fill="#ffffff" fill-rule="evenodd" fill-opacity="1"/>
<defs>
  <clipPath id="clip0803">
    <rect x="1324" y="70" width="2206" height="2124"/>
  </clipPath>
</defs>
<polyline clip-path="url(#clip0803)" style="stroke:#000000; stroke-width:2.4; stroke-opacity:0.1; fill:none" points="
  1553.13,2193.49 1553.13,70.8661 
  "/>
<polyline clip-path="url(#clip0803)" style="stroke:#000000; stroke-width:2.4; stroke-opacity:0.1; fill:none" points="
  2135.53,2193.49 2135.53,70.8661 
  "/>
<polyline clip-path="url(#clip0803)" style="stroke:#000000; stroke-width:2.4; stroke-opacity:0.1; fill:none" points="
  2717.93,2193.49 2717.93,70.8661 
  "/>
<polyline clip-path="url(#clip0803)" style="stroke:#000000; stroke-width:2.4; stroke-opacity:0.1; fill:none" points="
  3300.33,2193.49 3300.33,70.8661 
  "/>
<polyline clip-path="url(#clip0803)" style="stroke:#000000; stroke-width:2.4; stroke-opacity:0.1; fill:none" points="
  1324.33,1962.54 3529.13,1962.54 
  "/>
<polyline clip-path="url(#clip0803)" style="stroke:#000000; stroke-width:2.4; stroke-opacity:0.1; fill:none" points="
  1324.33,1454.65 3529.13,1454.65 
  "/>
<polyline clip-path="url(#clip0803)" style="stroke:#000000; stroke-width:2.4; stroke-opacity:0.1; fill:none" points="
  1324.33,946.767 3529.13,946.767 
  "/>
<polyline clip-path="url(#clip0803)" style="stroke:#000000; stroke-width:2.4; stroke-opacity:0.1; fill:none" points="
  1324.33,438.882 3529.13,438.882 
  "/>
<polyline clip-path="url(#clip0800)" style="stroke:#000000; stroke-width:4.8; stroke-opacity:1; fill:none" points="
  1324.33,2193.49 3529.13,2193.49 
  "/>
<polyline clip-path="url(#clip0800)" style="stroke:#000000; stroke-width:4.8; stroke-opacity:1; fill:none" points="
  1324.33,2193.49 1324.33,70.8661 
  "/>
<polyline clip-path="url(#clip0800)" style="stroke:#000000; stroke-width:4.8; stroke-opacity:1; fill:none" points="
  1553.13,2193.49 1553.13,2161.65 
  "/>
<polyline clip-path="url(#clip0800)" style="stroke:#000000; stroke-width:4.8; stroke-opacity:1; fill:none" points="
  2135.53,2193.49 2135.53,2161.65 
  "/>
<polyline clip-path="url(#clip0800)" style="stroke:#000000; stroke-width:4.8; stroke-opacity:1; fill:none" points="
  2717.93,2193.49 2717.93,2161.65 
  "/>
<polyline clip-path="url(#clip0800)" style="stroke:#000000; stroke-width:4.8; stroke-opacity:1; fill:none" points="
  3300.33,2193.49 3300.33,2161.65 
  "/>
<polyline clip-path="url(#clip0800)" style="stroke:#000000; stroke-width:4.8; stroke-opacity:1; fill:none" points="
  1324.33,1962.54 1357.4,1962.54 
  "/>
<polyline clip-path="url(#clip0800)" style="stroke:#000000; stroke-width:4.8; stroke-opacity:1; fill:none" points="
  1324.33,1454.65 1357.4,1454.65 
  "/>
<polyline clip-path="url(#clip0800)" style="stroke:#000000; stroke-width:4.8; stroke-opacity:1; fill:none" points="
  1324.33,946.767 1357.4,946.767 
  "/>
<polyline clip-path="url(#clip0800)" style="stroke:#000000; stroke-width:4.8; stroke-opacity:1; fill:none" points="
  1324.33,438.882 1357.4,438.882 
  "/>
<g clip-path="url(#clip0800)">
<text style="fill:#000000; fill-opacity:1; font-family:Arial,Helvetica Neue,Helvetica,sans-serif; font-size:125px; text-anchor:middle;" transform="rotate(0, 1553.13, 2320.69)" x="1553.13" y="2320.69">I</text>
</g>
<g clip-path="url(#clip0800)">
<text style="fill:#000000; fill-opacity:1; font-family:Arial,Helvetica Neue,Helvetica,sans-serif; font-size:125px; text-anchor:middle;" transform="rotate(0, 2135.53, 2320.69)" x="2135.53" y="2320.69">II</text>
</g>
<g clip-path="url(#clip0800)">
<text style="fill:#000000; fill-opacity:1; font-family:Arial,Helvetica Neue,Helvetica,sans-serif; font-size:125px; text-anchor:middle;" transform="rotate(0, 2717.93, 2320.69)" x="2717.93" y="2320.69">III</text>
</g>
<g clip-path="url(#clip0800)">
<text style="fill:#000000; fill-opacity:1; font-family:Arial,Helvetica Neue,Helvetica,sans-serif; font-size:125px; text-anchor:middle;" transform="rotate(0, 3300.33, 2320.69)" x="3300.33" y="2320.69">IV</text>
</g>
<g clip-path="url(#clip0800)">
<text style="fill:#000000; fill-opacity:1; font-family:Arial,Helvetica Neue,Helvetica,sans-serif; font-size:125px; text-anchor:end;" transform="rotate(0, 1288.33, 2008.04)" x="1288.33" y="2008.04">300</text>
</g>
<g clip-path="url(#clip0800)">
<text style="fill:#000000; fill-opacity:1; font-family:Arial,Helvetica Neue,Helvetica,sans-serif; font-size:125px; text-anchor:end;" transform="rotate(0, 1288.33, 1500.15)" x="1288.33" y="1500.15">350</text>
</g>
<g clip-path="url(#clip0800)">
<text style="fill:#000000; fill-opacity:1; font-family:Arial,Helvetica Neue,Helvetica,sans-serif; font-size:125px; text-anchor:end;" transform="rotate(0, 1288.33, 992.267)" x="1288.33" y="992.267">400</text>
</g>
<g clip-path="url(#clip0800)">
<text style="fill:#000000; fill-opacity:1; font-family:Arial,Helvetica Neue,Helvetica,sans-serif; font-size:125px; text-anchor:end;" transform="rotate(0, 1288.33, 484.382)" x="1288.33" y="484.382">450</text>
</g>
<circle clip-path="url(#clip0803)" cx="1553.13" cy="130.94" r="21" fill="#000000" fill-rule="evenodd" fill-opacity="1" stroke="#ffffff" stroke-opacity="1" stroke-width="4.8"/>
<circle clip-path="url(#clip0803)" cx="1553.13" cy="130.94" r="17" fill="#ff0000" fill-rule="evenodd" fill-opacity="1" stroke="#ffffff" stroke-opacity="1" stroke-width="4.8"/>
<path clip-path="url(#clip0803)" d="
M1553.13 975.402 L1386.73 975.402 L1719.53 975.402 L1553.13 975.402 L1553.13 743.436 L1553.13 975.402  Z
  " fill="#ff0000" fill-rule="evenodd" fill-opacity="0.5"/>
<polyline clip-path="url(#clip0803)" style="stroke:#000000; stroke-width:4.8; stroke-opacity:1; fill:none" points="
  1553.13,975.402 1386.73,975.402 1719.53,975.402 1553.13,975.402 1553.13,743.436 1553.13,975.402 
  "/>
<path clip-path="url(#clip0803)" d="
M1386.73 743.436 L1386.73 655.376 L1719.53 655.376 L1719.53 743.436 L1386.73 743.436 L1386.73 743.436  Z
  " fill="#ff0000" fill-rule="evenodd" fill-opacity="0.5"/>
<polyline clip-path="url(#clip0803)" style="stroke:#000000; stroke-width:4.8; stroke-opacity:1; fill:none" points="
  1386.73,743.436 1386.73,655.376 1719.53,655.376 1719.53,743.436 1386.73,743.436 
  "/>
<path clip-path="url(#clip0803)" d="
M1386.73 567.885 L1386.73 655.376 L1719.53 655.376 L1719.53 567.885 L1386.73 567.885 L1386.73 567.885  Z
  " fill="#ff0000" fill-rule="evenodd" fill-opacity="0.5"/>
<polyline clip-path="url(#clip0803)" style="stroke:#000000; stroke-width:4.8; stroke-opacity:1; fill:none" points="
  1386.73,567.885 1386.73,655.376 1719.53,655.376 1719.53,567.885 1386.73,567.885 
  "/>
<path clip-path="url(#clip0803)" d="
M1553.13 400.262 L1386.73 400.262 L1719.53 400.262 L1553.13 400.262 L1553.13 567.885 L1553.13 400.262  Z
  " fill="#ff0000" fill-rule="evenodd" fill-opacity="0.5"/>
<polyline clip-path="url(#clip0803)" style="stroke:#000000; stroke-width:4.8; stroke-opacity:1; fill:none" points="
  1553.13,400.262 1386.73,400.262 1719.53,400.262 1553.13,400.262 1553.13,567.885 1553.13,400.262 
  "/>
<path clip-path="url(#clip0803)" d="
M2135.53 2133.41 L1969.13 2133.41 L2301.93 2133.41 L2135.53 2133.41 L2135.53 1964.92 L2135.53 2133.41  Z
  " fill="#008000" fill-rule="evenodd" fill-opacity="0.5"/>
<polyline clip-path="url(#clip0803)" style="stroke:#000000; stroke-width:4.8; stroke-opacity:1; fill:none" points="
  2135.53,2133.41 1969.13,2133.41 2301.93,2133.41 2135.53,2133.41 2135.53,1964.92 2135.53,2133.41 
  "/>
<path clip-path="url(#clip0803)" d="
M1969.13 1964.92 L1969.13 1843.49 L2301.93 1843.49 L2301.93 1964.92 L1969.13 1964.92 L1969.13 1964.92  Z
  " fill="#008000" fill-rule="evenodd" fill-opacity="0.5"/>
<polyline clip-path="url(#clip0803)" style="stroke:#000000; stroke-width:4.8; stroke-opacity:1; fill:none" points="
  1969.13,1964.92 1969.13,1843.49 2301.93,1843.49 2301.93,1964.92 1969.13,1964.92 
  "/>
<path clip-path="url(#clip0803)" d="
M1969.13 1752.26 L1969.13 1843.49 L2301.93 1843.49 L2301.93 1752.26 L1969.13 1752.26 L1969.13 1752.26  Z
  " fill="#008000" fill-rule="evenodd" fill-opacity="0.5"/>
<polyline clip-path="url(#clip0803)" style="stroke:#000000; stroke-width:4.8; stroke-opacity:1; fill:none" points="
  1969.13,1752.26 1969.13,1843.49 2301.93,1843.49 2301.93,1752.26 1969.13,1752.26 
  "/>
<path clip-path="url(#clip0803)" d="
M2135.53 1546.82 L1969.13 1546.82 L2301.93 1546.82 L2135.53 1546.82 L2135.53 1752.26 L2135.53 1546.82  Z
  " fill="#008000" fill-rule="evenodd" fill-opacity="0.5"/>
<polyline clip-path="url(#clip0803)" style="stroke:#000000; stroke-width:4.8; stroke-opacity:1; fill:none" points="
  2135.53,1546.82 1969.13,1546.82 2301.93,1546.82 2135.53,1546.82 2135.53,1752.26 2135.53,1546.82 
  "/>
<path clip-path="url(#clip0803)" d="
M2717.93 2117.01 L2551.53 2117.01 L2884.33 2117.01 L2717.93 2117.01 L2717.93 1903 L2717.93 2117.01  Z
  " fill="#800080" fill-rule="evenodd" fill-opacity="0.5"/>
<polyline clip-path="url(#clip0803)" style="stroke:#000000; stroke-width:4.8; stroke-opacity:1; fill:none" points="
  2717.93,2117.01 2551.53,2117.01 2884.33,2117.01 2717.93,2117.01 2717.93,1903 2717.93,2117.01 
  "/>
<path clip-path="url(#clip0803)" d="
M2551.53 1903 L2551.53 1809.44 L2884.33 1809.44 L2884.33 1903 L2551.53 1903 L2551.53 1903  Z
  " fill="#800080" fill-rule="evenodd" fill-opacity="0.5"/>
<polyline clip-path="url(#clip0803)" style="stroke:#000000; stroke-width:4.8; stroke-opacity:1; fill:none" points="
  2551.53,1903 2551.53,1809.44 2884.33,1809.44 2884.33,1903 2551.53,1903 
  "/>
<path clip-path="url(#clip0803)" d="
M2551.53 1721.74 L2551.53 1809.44 L2884.33 1809.44 L2884.33 1721.74 L2551.53 1721.74 L2551.53 1721.74  Z
  " fill="#800080" fill-rule="evenodd" fill-opacity="0.5"/>
<polyline clip-path="url(#clip0803)" style="stroke:#000000; stroke-width:4.8; stroke-opacity:1; fill:none" points="
  2551.53,1721.74 2551.53,1809.44 2884.33,1809.44 2884.33,1721.74 2551.53,1721.74 
  "/>
<path clip-path="url(#clip0803)" d="
M2717.93 1508.24 L2551.53 1508.24 L2884.33 1508.24 L2717.93 1508.24 L2717.93 1721.74 L2717.93 1508.24  Z
  " fill="#800080" fill-rule="evenodd" fill-opacity="0.5"/>
<polyline clip-path="url(#clip0803)" style="stroke:#000000; stroke-width:4.8; stroke-opacity:1; fill:none" points="
  2717.93,1508.24 2551.53,1508.24 2884.33,1508.24 2717.93,1508.24 2717.93,1721.74 2717.93,1508.24 
  "/>
<circle clip-path="url(#clip0803)" cx="3300.33" cy="1258.57" r="21" fill="#000000" fill-rule="evenodd" fill-opacity="1" stroke="#ffffff" stroke-opacity="1" stroke-width="4.8"/>
<circle clip-path="url(#clip0803)" cx="3300.33" cy="1258.57" r="17" fill="#ffa500" fill-rule="evenodd" fill-opacity="1" stroke="#ffffff" stroke-opacity="1" stroke-width="4.8"/>
<path clip-path="url(#clip0803)" d="
M3300.33 2008.57 L3133.93 2008.57 L3466.73 2008.57 L3300.33 2008.57 L3300.33 1828.8 L3300.33 2008.57  Z
  " fill="#ffa500" fill-rule="evenodd" fill-opacity="0.5"/>
<polyline clip-path="url(#clip0803)" style="stroke:#000000; stroke-width:4.8; stroke-opacity:1; fill:none" points="
  3300.33,2008.57 3133.93,2008.57 3466.73,2008.57 3300.33,2008.57 3300.33,1828.8 3300.33,2008.57 
  "/>
<path clip-path="url(#clip0803)" d="
M3133.93 1828.8 L3133.93 1715.66 L3466.73 1715.66 L3466.73 1828.8 L3133.93 1828.8 L3133.93 1828.8  Z
  " fill="#ffa500" fill-rule="evenodd" fill-opacity="0.5"/>
<polyline clip-path="url(#clip0803)" style="stroke:#000000; stroke-width:4.8; stroke-opacity:1; fill:none" points="
  3133.93,1828.8 3133.93,1715.66 3466.73,1715.66 3466.73,1828.8 3133.93,1828.8 
  "/>
<path clip-path="url(#clip0803)" d="
M3133.93 1638.57 L3133.93 1715.66 L3466.73 1715.66 L3466.73 1638.57 L3133.93 1638.57 L3133.93 1638.57  Z
  " fill="#ffa500" fill-rule="evenodd" fill-opacity="0.5"/>
<polyline clip-path="url(#clip0803)" style="stroke:#000000; stroke-width:4.8; stroke-opacity:1; fill:none" points="
  3133.93,1638.57 3133.93,1715.66 3466.73,1715.66 3466.73,1638.57 3133.93,1638.57 
  "/>
<path clip-path="url(#clip0803)" d="
M3300.33 1355.21 L3133.93 1355.21 L3466.73 1355.21 L3300.33 1355.21 L3300.33 1638.57 L3300.33 1355.21  Z
  " fill="#ffa500" fill-rule="evenodd" fill-opacity="0.5"/>
<polyline clip-path="url(#clip0803)" style="stroke:#000000; stroke-width:4.8; stroke-opacity:1; fill:none" points="
  3300.33,1355.21 3133.93,1355.21 3466.73,1355.21 3300.33,1355.21 3300.33,1638.57 3300.33,1355.21 
  "/>
</svg>
