<?xml version="1.0" encoding="utf-8"?>
<svg xmlns="http://www.w3.org/2000/svg" xmlns:xlink="http://www.w3.org/1999/xlink" width="900" height="600" viewBox="0 0 3600 2400">
<defs>
  <clipPath id="clip9600">
    <rect x="0" y="0" width="3600" height="2400"/>
  </clipPath>
</defs>
<path clip-path="url(#clip9600)" d="
M0 2400 L3600 2400 L3600 0 L0 0  Z
  " fill="#ffffff" fill-rule="evenodd" fill-opacity="1"/>
<defs>
  <clipPath id="clip9601">
    <rect x="720" y="0" width="2521" height="2400"/>
  </clipPath>
</defs>
<path clip-path="url(#clip9600)" d="
M452.888 2193.49 L841.971 2193.49 L841.971 70.8661 L452.888 70.8661  Z
  " fill="#ffffff" fill-rule="evenodd" fill-opacity="1"/>
<defs>
  <clipPath id="clip9602">
    <rect x="452" y="70" width="390" height="2124"/>
  </clipPath>
</defs>
<polyline clip-path="url(#clip9602)" style="stroke:#000000; stroke-width:2.4; stroke-opacity:0.1; fill:none" points="
  647.43,2193.49 647.43,70.8661 
  "/>
<polyline clip-path="url(#clip9602)" style="stroke:#000000; stroke-width:2.4; stroke-opacity:0.1; fill:none" points="
  452.888,1730.31 841.971,1730.31 
  "/>
<polyline clip-path="url(#clip9602)" style="stroke:#000000; stroke-width:2.4; stroke-opacity:0.1; fill:none" points="
  452.888,1245.62 841.971,1245.62 
  "/>
<polyline clip-path="url(#clip9602)" style="stroke:#000000; stroke-width:2.4; stroke-opacity:0.1; fill:none" points="
  452.888,760.935 841.971,760.935 
  "/>
<polyline clip-path="url(#clip9602)" style="stroke:#000000; stroke-width:2.4; stroke-opacity:0.1; fill:none" points="
  452.888,276.25 841.971,276.25 
  "/>
<polyline clip-path="url(#clip9600)" style="stroke:#000000; stroke-width:4.8; stroke-opacity:1; fill:none" points="
  452.888,2193.49 841.971,2193.49 
  "/>
<polyline clip-path="url(#clip9600)" style="stroke:#000000; stroke-width:4.8; stroke-opacity:1; fill:none" points="
  452.888,2193.49 452.888,70.8661 
  "/>
<polyline clip-path="url(#clip9600)" style="stroke:#000000; stroke-width:4.8; stroke-opacity:1; fill:none" points="
  647.43,2193.49 647.43,2161.65 
  "/>
<polyline clip-path="url(#clip9600)" style="stroke:#000000; stroke-width:4.8; stroke-opacity:1; fill:none" points="
  452.888,1730.31 458.724,1730.31 
  "/>
<polyline clip-path="url(#clip9600)" style="stroke:#000000; stroke-width:4.8; stroke-opacity:1; fill:none" points="
  452.888,1245.62 458.724,1245.62 
  "/>
<polyline clip-path="url(#clip9600)" style="stroke:#000000; stroke-width:4.8; stroke-opacity:1; fill:none" points="
  452.888,760.935 458.724,760.935 
  "/>
<polyline clip-path="url(#clip9600)" style="stroke:#000000; stroke-width:4.8; stroke-opacity:1; fill:none" points="
  452.888,276.25 458.724,276.25 
  "/>
<g clip-path="url(#clip9600)">
<text style="fill:#000000; fill-opacity:1; font-family:Arial,Helvetica Neue,Helvetica,sans-serif; font-size:125px; text-anchor:middle;" transform="rotate(0, 647.43, 2320.69)" x="647.43" y="2320.69">0</text>
</g>
<g clip-path="url(#clip9600)">
<text style="fill:#000000; fill-opacity:1; font-family:Arial,Helvetica Neue,Helvetica,sans-serif; font-size:125px; text-anchor:end;" transform="rotate(0, 416.888, 1775.81)" x="416.888" y="1775.81">600</text>
</g>
<g clip-path="url(#clip9600)">
<text style="fill:#000000; fill-opacity:1; font-family:Arial,Helvetica Neue,Helvetica,sans-serif; font-size:125px; text-anchor:end;" transform="rotate(0, 416.888, 1291.12)" x="416.888" y="1291.12">700</text>
</g>
<g clip-path="url(#clip9600)">
<text style="fill:#000000; fill-opacity:1; font-family:Arial,Helvetica Neue,Helvetica,sans-serif; font-size:125px; text-anchor:end;" transform="rotate(0, 416.888, 806.435)" x="416.888" y="806.435">800</text>
</g>
<g clip-path="url(#clip9600)">
<text style="fill:#000000; fill-opacity:1; font-family:Arial,Helvetica Neue,Helvetica,sans-serif; font-size:125px; text-anchor:end;" transform="rotate(0, 416.888, 321.75)" x="416.888" y="321.75">900</text>
</g>
<g clip-path="url(#clip9600)">
<text style="fill:#000000; fill-opacity:1; font-family:Arial,Helvetica Neue,Helvetica,sans-serif; font-size:125px; text-anchor:middle;" transform="rotate(-90, 147.298, 1132.18)" x="147.298" y="1132.18">Overall cost [a.u.]</text>
</g>
<path clip-path="url(#clip9602)" d="
M647.43 2133.41 L509.782 2133.41 L785.077 2133.41 L647.43 2133.41 L647.43 1444.3 L647.43 2133.41  Z
  " fill="#0000ff" fill-rule="evenodd" fill-opacity="0.5"/>
<polyline clip-path="url(#clip9602)" style="stroke:#000000; stroke-width:4.8; stroke-opacity:1; fill:none" points="
  647.43,2133.41 509.782,2133.41 785.077,2133.41 647.43,2133.41 647.43,1444.3 647.43,2133.41 
  "/>
<path clip-path="url(#clip9602)" d="
M463.9 1444.3 L463.9 1151.65 L830.959 1151.65 L830.959 1444.3 L463.9 1444.3 L463.9 1444.3  Z
  " fill="#0000ff" fill-rule="evenodd" fill-opacity="0.5"/>
<polyline clip-path="url(#clip9602)" style="stroke:#000000; stroke-width:4.8; stroke-opacity:1; fill:none" points="
  463.9,1444.3 463.9,1151.65 830.959,1151.65 830.959,1444.3 463.9,1444.3 
  "/>
<path clip-path="url(#clip9602)" d="
M463.9 851.164 L463.9 1151.65 L830.959 1151.65 L830.959 851.164 L463.9 851.164 L463.9 851.164  Z
  " fill="#0000ff" fill-rule="evenodd" fill-opacity="0.5"/>
<polyline clip-path="url(#clip9602)" style="stroke:#000000; stroke-width:4.8; stroke-opacity:1; fill:none" points="
  463.9,851.164 463.9,1151.65 830.959,1151.65 830.959,851.164 463.9,851.164 
  "/>
<path clip-path="url(#clip9602)" d="
M647.43 130.94 L509.782 130.94 L785.077 130.94 L647.43 130.94 L647.43 851.164 L647.43 130.94  Z
  " fill="#0000ff" fill-rule="evenodd" fill-opacity="0.5"/>
<polyline clip-path="url(#clip9602)" style="stroke:#000000; stroke-width:4.8; stroke-opacity:1; fill:none" points="
  647.43,130.94 509.782,130.94 785.077,130.94 647.43,130.94 647.43,851.164 647.43,130.94 
  "/>
<path clip-path="url(#clip9600)" d="
M1324.33 2193.49 L3529.13 2193.49 L3529.13 70.8661 L1324.33 70.8661  Z
  " fill="#ffffff" fill-rule="evenodd" fill-opacity="1"/>
<defs>
  <clipPath id="clip9603">
    <rect x="1324" y="70" width="2206" height="2124"/>
  </clipPath>
</defs>
<polyline clip-path="url(#clip9603)" style="stroke:#000000; stroke-width:2.4; stroke-opacity:0.1; fill:none" points="
  1553.13,2193.49 1553.13,70.8661 
  "/>
<polyline clip-path="url(#clip9603)" style="stroke:#000000; stroke-width:2.4; stroke-opacity:0.1; fill:none" points="
  2135.53,2193.49 2135.53,70.8661 
  "/>
<polyline clip-path="url(#clip9603)" style="stroke:#000000; stroke-width:2.4; stroke-opacity:0.1; fill:none" points="
  2717.93,2193.49 2717.93,70.8661 
  "/>
<polyline clip-path="url(#clip9603)" style="stroke:#000000; stroke-width:2.4; stroke-opacity:0.1; fill:none" points="
  3300.33,2193.49 3300.33,70.8661 
  "/>
<polyline clip-path="url(#clip9603)" style="stroke:#000000; stroke-width:2.4; stroke-opacity:0.1; fill:none" points="
  1324.33,2169.57 3529.13,2169.57 
  "/>
<polyline clip-path="url(#clip9603)" style="stroke:#000000; stroke-width:2.4; stroke-opacity:0.1; fill:none" points="
  1324.33,1629.68 3529.13,1629.68 
  "/>
<polyline clip-path="url(#clip9603)" style="stroke:#000000; stroke-width:2.4; stroke-opacity:0.1; fill:none" points="
  1324.33,1089.79 3529.13,1089.79 
  "/>
<polyline clip-path="url(#clip9603)" style="stroke:#000000; stroke-width:2.4; stroke-opacity:0.1; fill:none" points="
  1324.33,549.9 3529.13,549.9 
  "/>
<polyline clip-path="url(#clip9600)" style="stroke:#000000; stroke-width:4.8; stroke-opacity:1; fill:none" points="
  1324.33,2193.49 3529.13,2193.49 
  "/>
<polyline clip-path="url(#clip9600)" style="stroke:#000000; stroke-width:4.8; stroke-opacity:1; fill:none" points="
  1324.33,2193.49 1324.33,70.8661 
  "/>
<polyline clip-path="url(#clip9600)" style="stroke:#000000; stroke-width:4.8; stroke-opacity:1; fill:none" points="
  1553.13,2193.49 1553.13,2161.65 
  "/>
<polyline clip-path="url(#clip9600)" style="stroke:#000000; stroke-width:4.8; stroke-opacity:1; fill:none" points="
  2135.53,2193.49 2135.53,2161.65 
  "/>
<polyline clip-path="url(#clip9600)" style="stroke:#000000; stroke-width:4.8; stroke-opacity:1; fill:none" points="
  2717.93,2193.49 2717.93,2161.65 
  "/>
<polyline clip-path="url(#clip9600)" style="stroke:#000000; stroke-width:4.8; stroke-opacity:1; fill:none" points="
  3300.33,2193.49 3300.33,2161.65 
  "/>
<polyline clip-path="url(#clip9600)" style="stroke:#000000; stroke-width:4.8; stroke-opacity:1; fill:none" points="
  1324.33,2169.57 1357.4,2169.57 
  "/>
<polyline clip-path="url(#clip9600)" style="stroke:#000000; stroke-width:4.8; stroke-opacity:1; fill:none" points="
  1324.33,1629.68 1357.4,1629.68 
  "/>
<polyline clip-path="url(#clip9600)" style="stroke:#000000; stroke-width:4.8; stroke-opacity:1; fill:none" points="
  1324.33,1089.79 1357.4,1089.79 
  "/>
<polyline clip-path="url(#clip9600)" style="stroke:#000000; stroke-width:4.8; stroke-opacity:1; fill:none" points="
  1324.33,549.9 1357.4,549.9 
  "/>
<g clip-path="url(#clip9600)">
<text style="fill:#000000; fill-opacity:1; font-family:Arial,Helvetica Neue,Helvetica,sans-serif; font-size:125px; text-anchor:middle;" transform="rotate(0, 1553.13, 2320.69)" x="1553.13" y="2320.69">I</text>
</g>
<g clip-path="url(#clip9600)">
<text style="fill:#000000; fill-opacity:1; font-family:Arial,Helvetica Neue,Helvetica,sans-serif; font-size:125px; text-anchor:middle;" transform="rotate(0, 2135.53, 2320.69)" x="2135.53" y="2320.69">II</text>
</g>
<g clip-path="url(#clip9600)">
<text style="fill:#000000; fill-opacity:1; font-family:Arial,Helvetica Neue,Helvetica,sans-serif; font-size:125px; text-anchor:middle;" transform="rotate(0, 2717.93, 2320.69)" x="2717.93" y="2320.69">III</text>
</g>
<g clip-path="url(#clip9600)">
<text style="fill:#000000; fill-opacity:1; font-family:Arial,Helvetica Neue,Helvetica,sans-serif; font-size:125px; text-anchor:middle;" transform="rotate(0, 3300.33, 2320.69)" x="3300.33" y="2320.69">IV</text>
</g>
<g clip-path="url(#clip9600)">
<text style="fill:#000000; fill-opacity:1; font-family:Arial,Helvetica Neue,Helvetica,sans-serif; font-size:125px; text-anchor:end;" transform="rotate(0, 1288.33, 2215.07)" x="1288.33" y="2215.07">700</text>
</g>
<g clip-path="url(#clip9600)">
<text style="fill:#000000; fill-opacity:1; font-family:Arial,Helvetica Neue,Helvetica,sans-serif; font-size:125px; text-anchor:end;" transform="rotate(0, 1288.33, 1675.18)" x="1288.33" y="1675.18">800</text>
</g>
<g clip-path="url(#clip9600)">
<text style="fill:#000000; fill-opacity:1; font-family:Arial,Helvetica Neue,Helvetica,sans-serif; font-size:125px; text-anchor:end;" transform="rotate(0, 1288.33, 1135.29)" x="1288.33" y="1135.29">900</text>
</g>
<g clip-path="url(#clip9600)">
<text style="fill:#000000; fill-opacity:1; font-family:Arial,Helvetica Neue,Helvetica,sans-serif; font-size:125px; text-anchor:end;" transform="rotate(0, 1288.33, 595.4)" x="1288.33" y="595.4">1000</text>
</g>
<path clip-path="url(#clip9603)" d="
M1553.13 1908.47 L1386.73 1908.47 L1719.53 1908.47 L1553.13 1908.47 L1553.13 1629.22 L1553.13 1908.47  Z
  " fill="#ff0000" fill-rule="evenodd" fill-opacity="0.5"/>
<polyline clip-path="url(#clip9603)" style="stroke:#000000; stroke-width:4.8; stroke-opacity:1; fill:none" points="
  1553.13,1908.47 1386.73,1908.47 1719.53,1908.47 1553.13,1908.47 1553.13,1629.22 1553.13,1908.47 
  "/>
<path clip-path="url(#clip9603)" d="
M1386.73 1629.22 L1386.73 1523.12 L1719.53 1523.12 L1719.53 1629.22 L1386.73 1629.22 L1386.73 1629.22  Z
  " fill="#ff0000" fill-rule="evenodd" fill-opacity="0.5"/>
<polyline clip-path="url(#clip9603)" style="stroke:#000000; stroke-width:4.8; stroke-opacity:1; fill:none" points="
  1386.73,1629.22 1386.73,1523.12 1719.53,1523.12 1719.53,1629.22 1386.73,1629.22 
  "/>
<path clip-path="url(#clip9603)" d="
M1386.73 587.41 L1386.73 1523.12 L1719.53 1523.12 L1719.53 587.41 L1386.73 587.41 L1386.73 587.41  Z
  " fill="#ff0000" fill-rule="evenodd" fill-opacity="0.5"/>
<polyline clip-path="url(#clip9603)" style="stroke:#000000; stroke-width:4.8; stroke-opacity:1; fill:none" points="
  1386.73,587.41 1386.73,1523.12 1719.53,1523.12 1719.53,587.41 1386.73,587.41 
  "/>
<path clip-path="url(#clip9603)" d="
M1553.13 130.94 L1386.73 130.94 L1719.53 130.94 L1553.13 130.94 L1553.13 587.41 L1553.13 130.94  Z
  " fill="#ff0000" fill-rule="evenodd" fill-opacity="0.5"/>
<polyline clip-path="url(#clip9603)" style="stroke:#000000; stroke-width:4.8; stroke-opacity:1; fill:none" points="
  1553.13,130.94 1386.73,130.94 1719.53,130.94 1553.13,130.94 1553.13,587.41 1553.13,130.94 
  "/>
<path clip-path="url(#clip9603)" d="
M2135.53 2133.41 L1969.13 2133.41 L2301.93 2133.41 L2135.53 2133.41 L2135.53 1966.59 L2135.53 2133.41  Z
  " fill="#008000" fill-rule="evenodd" fill-opacity="0.5"/>
<polyline clip-path="url(#clip9603)" style="stroke:#000000; stroke-width:4.8; stroke-opacity:1; fill:none" points="
  2135.53,2133.41 1969.13,2133.41 2301.93,2133.41 2135.53,2133.41 2135.53,1966.59 2135.53,2133.41 
  "/>
<path clip-path="url(#clip9603)" d="
M1969.13 1966.59 L1969.13 1831.72 L2301.93 1831.72 L2301.93 1966.59 L1969.13 1966.59 L1969.13 1966.59  Z
  " fill="#008000" fill-rule="evenodd" fill-opacity="0.5"/>
<polyline clip-path="url(#clip9603)" style="stroke:#000000; stroke-width:4.8; stroke-opacity:1; fill:none" points="
  1969.13,1966.59 1969.13,1831.72 2301.93,1831.72 2301.93,1966.59 1969.13,1966.59 
  "/>
<path clip-path="url(#clip9603)" d="
M1969.13 822.018 L1969.13 1831.72 L2301.93 1831.72 L2301.93 822.018 L1969.13 822.018 L1969.13 822.018  Z
  " fill="#008000" fill-rule="evenodd" fill-opacity="0.5"/>
<polyline clip-path="url(#clip9603)" style="stroke:#000000; stroke-width:4.8; stroke-opacity:1; fill:none" points="
  1969.13,822.018 1969.13,1831.72 2301.93,1831.72 2301.93,822.018 1969.13,822.018 
  "/>
<path clip-path="url(#clip9603)" d="
M2135.53 495.815 L1969.13 495.815 L2301.93 495.815 L2135.53 495.815 L2135.53 822.018 L2135.53 495.815  Z
  " fill="#008000" fill-rule="evenodd" fill-opacity="0.5"/>
<polyline clip-path="url(#clip9603)" style="stroke:#000000; stroke-width:4.8; stroke-opacity:1; fill:none" points="
  2135.53,495.815 1969.13,495.815 2301.93,495.815 2135.53,495.815 2135.53,822.018 2135.53,495.815 
  "/>
<path clip-path="url(#clip9603)" d="
M2717.93 2126.73 L2551.53 2126.73 L2884.33 2126.73 L2717.93 2126.73 L2717.93 1970.48 L2717.93 2126.73  Z
  " fill="#800080" fill-rule="evenodd" fill-opacity="0.5"/>
<polyline clip-path="url(#clip9603)" style="stroke:#000000; stroke-width:4.8; stroke-opacity:1; fill:none" points="
  2717.93,2126.73 2551.53,2126.73 2884.33,2126.73 2717.93,2126.73 2717.93,1970.48 2717.93,2126.73 
  "/>
<path clip-path="url(#clip9603)" d="
M2551.53 1970.48 L2551.53 1842.04 L2884.33 1842.04 L2884.33 1970.48 L2551.53 1970.48 L2551.53 1970.48  Z
  " fill="#800080" fill-rule="evenodd" fill-opacity="0.5"/>
<polyline clip-path="url(#clip9603)" style="stroke:#000000; stroke-width:4.8; stroke-opacity:1; fill:none" points="
  2551.53,1970.48 2551.53,1842.04 2884.33,1842.04 2884.33,1970.48 2551.53,1970.48 
  "/>
<path clip-path="url(#clip9603)" d="
M2551.53 843.104 L2551.53 1842.04 L2884.33 1842.04 L2884.33 843.104 L2551.53 843.104 L2551.53 843.104  Z
  " fill="#800080" fill-rule="evenodd" fill-opacity="0.5"/>
<polyline clip-path="url(#clip9603)" style="stroke:#000000; stroke-width:4.8; stroke-opacity:1; fill:none" points="
  2551.53,843.104 2551.53,1842.04 2884.33,1842.04 2884.33,843.104 2551.53,843.104 
  "/>
<path clip-path="url(#clip9603)" d="
M2717.93 514.707 L2551.53 514.707 L2884.33 514.707 L2717.93 514.707 L2717.93 843.104 L2717.93 514.707  Z
  " fill="#800080" fill-rule="evenodd" fill-opacity="0.5"/>
<polyline clip-path="url(#clip9603)" style="stroke:#000000; stroke-width:4.8; stroke-opacity:1; fill:none" points="
  2717.93,514.707 2551.53,514.707 2884.33,514.707 2717.93,514.707 2717.93,843.104 2717.93,514.707 
  "/>
<path clip-path="url(#clip9603)" d="
M3300.33 2091.22 L3133.93 2091.22 L3466.73 2091.22 L3300.33 2091.22 L3300.33 1924.43 L3300.33 2091.22  Z
  " fill="#ffa500" fill-rule="evenodd" fill-opacity="0.5"/>
<polyline clip-path="url(#clip9603)" style="stroke:#000000; stroke-width:4.8; stroke-opacity:1; fill:none" points="
  3300.33,2091.22 3133.93,2091.22 3466.73,2091.22 3300.33,2091.22 3300.33,1924.43 3300.33,2091.22 
  "/>
<path clip-path="url(#clip9603)" d="
M3133.93 1924.43 L3133.93 1807.56 L3466.73 1807.56 L3466.73 1924.43 L3133.93 1924.43 L3133.93 1924.43  Z
  " fill="#ffa500" fill-rule="evenodd" fill-opacity="0.5"/>
<polyline clip-path="url(#clip9603)" style="stroke:#000000; stroke-width:4.8; stroke-opacity:1; fill:none" points="
  3133.93,1924.43 3133.93,1807.56 3466.73,1807.56 3466.73,1924.43 3133.93,1924.43 
  "/>
<path clip-path="url(#clip9603)" d="
M3133.93 822.367 L3133.93 1807.56 L3466.73 1807.56 L3466.73 822.367 L3133.93 822.367 L3133.93 822.367  Z
  " fill="#ffa500" fill-rule="evenodd" fill-opacity="0.5"/>
<polyline clip-path="url(#clip9603)" style="stroke:#000000; stroke-width:4.8; stroke-opacity:1; fill:none" points="
  3133.93,822.367 3133.93,1807.56 3466.73,1807.56 3466.73,822.367 3133.93,822.367 
  "/>
<path clip-path="url(#clip9603)" d="
M3300.33 471.826 L3133.93 471.826 L3466.73 471.826 L3300.33 471.826 L3300.33 822.367 L3300.33 471.826  Z
  " fill="#ffa500" fill-rule="evenodd" fill-opacity="0.5"/>
<polyline clip-path="url(#clip9603)" style="stroke:#000000; stroke-width:4.8; stroke-opacity:1; fill:none" points="
  3300.33,471.826 3133.93,471.826 3466.73,471.826 3300.33,471.826 3300.33,822.367 3300.33,471.826 
  "/>
</svg>
