<?xml version="1.0" encoding="utf-8"?>
<svg xmlns="http://www.w3.org/2000/svg" xmlns:xlink="http://www.w3.org/1999/xlink" width="900" height="600" viewBox="0 0 3600 2400">
<defs>
  <clipPath id="clip9200">
    <rect x="0" y="0" width="3600" height="2400"/>
  </clipPath>
</defs>
<path clip-path="url(#clip9200)" d="
M0 2400 L3600 2400 L3600 0 L0 0  Z
  " fill="#ffffff" fill-rule="evenodd" fill-opacity="1"/>
<defs>
  <clipPath id="clip9201">
    <rect x="720" y="0" width="2521" height="2400"/>
  </clipPath>
</defs>
<path clip-path="url(#clip9200)" d="
M452.888 2193.49 L841.971 2193.49 L841.971 70.8661 L452.888 70.8661  Z
  " fill="#ffffff" fill-rule="evenodd" fill-opacity="1"/>
<defs>
  <clipPath id="clip9202">
    <rect x="452" y="70" width="390" height="2124"/>
  </clipPath>
</defs>
<polyline clip-path="url(#clip9202)" style="stroke:#000000; stroke-width:2.4; stroke-opacity:0.1; fill:none" points="
  647.43,2193.49 647.43,70.8661 
  "/>
<polyline clip-path="url(#clip9202)" style="stroke:#000000; stroke-width:2.4; stroke-opacity:0.1; fill:none" points="
  452.888,2127.37 841.971,2127.37 
  "/>
<polyline clip-path="url(#clip9202)" style="stroke:#000000; stroke-width:2.4; stroke-opacity:0.1; fill:none" points="
  452.888,1718.88 841.971,1718.88 
  "/>
<polyline clip-path="url(#clip9202)" style="stroke:#000000; stroke-width:2.4; stroke-opacity:0.1; fill:none" points="
  452.888,1310.39 841.971,1310.39 
  "/>
<polyline clip-path="url(#clip9202)" style="stroke:#000000; stroke-width:2.4; stroke-opacity:0.1; fill:none" points="
  452.888,901.903 841.971,901.903 
  "/>
<polyline clip-path="url(#clip9202)" style="stroke:#000000; stroke-width:2.4; stroke-opacity:0.1; fill:none" points="
  452.888,493.415 841.971,493.415 
  "/>
<polyline clip-path="url(#clip9202)" style="stroke:#000000; stroke-width:2.4; stroke-opacity:0.1; fill:none" points="
  452.888,84.9268 841.971,84.9268 
  "/>
<polyline clip-path="url(#clip9200)" style="stroke:#000000; stroke-width:4.8; stroke-opacity:1; fill:none" points="
  452.888,2193.49 841.971,2193.49 
  "/>
<polyline clip-path="url(#clip9200)" style="stroke:#000000; stroke-width:4.8; stroke-opacity:1; fill:none" points="
  452.888,2193.49 452.888,70.8661 
  "/>
<polyline clip-path="url(#clip9200)" style="stroke:#000000; stroke-width:4.8; stroke-opacity:1; fill:none" points="
  647.43,2193.49 647.43,2161.65 
  "/>
<polyline clip-path="url(#clip9200)" style="stroke:#000000; stroke-width:4.8; stroke-opacity:1; fill:none" points="
  452.888,2127.37 458.724,2127.37 
  "/>
<polyline clip-path="url(#clip9200)" style="stroke:#000000; stroke-width:4.8; stroke-opacity:1; fill:none" points="
  452.888,1718.88 458.724,1718.88 
  "/>
<polyline clip-path="url(#clip9200)" style="stroke:#000000; stroke-width:4.8; stroke-opacity:1; fill:none" points="
  452.888,1310.39 458.724,1310.39 
  "/>
<polyline clip-path="url(#clip9200)" style="stroke:#000000; stroke-width:4.8; stroke-opacity:1; fill:none" points="
  452.888,901.903 458.724,901.903 
  "/>
<polyline clip-path="url(#clip9200)" style="stroke:#000000; stroke-width:4.8; stroke-opacity:1; fill:none" points="
  452.888,493.415 458.724,493.415 
  "/>
<polyline clip-path="url(#clip9200)" style="stroke:#000000; stroke-width:4.8; stroke-opacity:1; fill:none" points="
  452.888,84.9268 458.724,84.9268 
  "/>
<g clip-path="url(#clip9200)">
<text style="fill:#000000; fill-opacity:1; font-family:Arial,Helvetica Neue,Helvetica,sans-serif; font-size:125px; text-anchor:middle;" transform="rotate(0, 647.43, 2320.69)" x="647.43" y="2320.69">0</text>
</g>
<g clip-path="url(#clip9200)">
<text style="fill:#000000; fill-opacity:1; font-family:Arial,Helvetica Neue,Helvetica,sans-serif; font-size:125px; text-anchor:end;" transform="rotate(0, 416.888, 2172.87)" x="416.888" y="2172.87">500</text>
</g>
<g clip-path="url(#clip9200)">
<text style="fill:#000000; fill-opacity:1; font-family:Arial,Helvetica Neue,Helvetica,sans-serif; font-size:125px; text-anchor:end;" transform="rotate(0, 416.888, 1764.38)" x="416.888" y="1764.38">550</text>
</g>
<g clip-path="url(#clip9200)">
<text style="fill:#000000; fill-opacity:1; font-family:Arial,Helvetica Neue,Helvetica,sans-serif; font-size:125px; text-anchor:end;" transform="rotate(0, 416.888, 1355.89)" x="416.888" y="1355.89">600</text>
</g>
<g clip-path="url(#clip9200)">
<text style="fill:#000000; fill-opacity:1; font-family:Arial,Helvetica Neue,Helvetica,sans-serif; font-size:125px; text-anchor:end;" transform="rotate(0, 416.888, 947.403)" x="416.888" y="947.403">650</text>
</g>
<g clip-path="url(#clip9200)">
<text style="fill:#000000; fill-opacity:1; font-family:Arial,Helvetica Neue,Helvetica,sans-serif; font-size:125px; text-anchor:end;" transform="rotate(0, 416.888, 538.915)" x="416.888" y="538.915">700</text>
</g>
<g clip-path="url(#clip9200)">
<text style="fill:#000000; fill-opacity:1; font-family:Arial,Helvetica Neue,Helvetica,sans-serif; font-size:125px; text-anchor:end;" transform="rotate(0, 416.888, 130.427)" x="416.888" y="130.427">750</text>
</g>
<g clip-path="url(#clip9200)">
<text style="fill:#000000; fill-opacity:1; font-family:Arial,Helvetica Neue,Helvetica,sans-serif; font-size:125px; text-anchor:middle;" transform="rotate(-90, 147.298, 1132.18)" x="147.298" y="1132.18">Overall cost [a.u.]</text>
</g>
<path clip-path="url(#clip9202)" d="
M647.43 2133.41 L509.782 2133.41 L785.077 2133.41 L647.43 2133.41 L647.43 1708.86 L647.43 2133.41  Z
  " fill="#0000ff" fill-rule="evenodd" fill-opacity="0.5"/>
<polyline clip-path="url(#clip9202)" style="stroke:#000000; stroke-width:4.8; stroke-opacity:1; fill:none" points="
  647.43,2133.41 509.782,2133.41 785.077,2133.41 647.43,2133.41 647.43,1708.86 647.43,2133.41 
  "/>
<path clip-path="url(#clip9202)" d="
M463.9 1708.86 L463.9 1393.25 L830.959 1393.25 L830.959 1708.86 L463.9 1708.86 L463.9 1708.86  Z
  " fill="#0000ff" fill-rule="evenodd" fill-opacity="0.5"/>
<polyline clip-path="url(#clip9202)" style="stroke:#000000; stroke-width:4.8; stroke-opacity:1; fill:none" points="
  463.9,1708.86 463.9,1393.25 830.959,1393.25 830.959,1708.86 463.9,1708.86 
  "/>
<path clip-path="url(#clip9202)" d="
M463.9 949.241 L463.9 1393.25 L830.959 1393.25 L830.959 949.241 L463.9 949.241 L463.9 949.241  Z
  " fill="#0000ff" fill-rule="evenodd" fill-opacity="0.5"/>
<polyline clip-path="url(#clip9202)" style="stroke:#000000; stroke-width:4.8; stroke-opacity:1; fill:none" points="
  463.9,949.241 463.9,1393.25 830.959,1393.25 830.959,949.241 463.9,949.241 
  "/>
<path clip-path="url(#clip9202)" d="
M647.43 130.94 L509.782 130.94 L785.077 130.94 L647.43 130.94 L647.43 949.241 L647.43 130.94  Z
  " fill="#0000ff" fill-rule="evenodd" fill-opacity="0.5"/>
<polyline clip-path="url(#clip9202)" style="stroke:#000000; stroke-width:4.8; stroke-opacity:1; fill:none" points="
  647.43,130.94 509.782,130.94 785.077,130.94 647.43,130.94 647.43,949.241 647.43,130.94 
  "/>
<path clip-path="url(#clip9200)" d="
M1324.33 2193.49 L3529.13 2193.49 L3529.13 70.8661 L1324.33 70.8661  Z
  " fill="#ffffff" fill-rule="evenodd" fill-opacity="1"/>
<defs>
  <clipPath id="clip9203">
    <rect x="1324" y="70" width="2206" height="2124"/>
  </clipPath>
</defs>
<polyline clip-path="url(#clip9203)" style="stroke:#000000; stroke-width:2.4; stroke-opacity:0.1; fill:none" points="
  1553.13,2193.49 1553.13,70.8661 
  "/>
<polyline clip-path="url(#clip9203)" style="stroke:#000000; stroke-width:2.4; stroke-opacity:0.1; fill:none" points="
  2135.53,2193.49 2135.53,70.8661 
  "/>
<polyline clip-path="url(#clip9203)" style="stroke:#000000; stroke-width:2.4; stroke-opacity:0.1; fill:none" points="
  2717.93,2193.49 2717.93,70.8661 
  "/>
<polyline clip-path="url(#clip9203)" style="stroke:#000000; stroke-width:2.4; stroke-opacity:0.1; fill:none" points="
  3300.33,2193.49 3300.33,70.8661 
  "/>
<polyline clip-path="url(#clip9203)" style="stroke:#000000; stroke-width:2.4; stroke-opacity:0.1; fill:none" points="
  1324.33,1900.23 3529.13,1900.23 
  "/>
<polyline clip-path="url(#clip9203)" style="stroke:#000000; stroke-width:2.4; stroke-opacity:0.1; fill:none" points="
  1324.33,1392.37 3529.13,1392.37 
  "/>
<polyline clip-path="url(#clip9203)" style="stroke:#000000; stroke-width:2.4; stroke-opacity:0.1; fill:none" points="
  1324.33,884.512 3529.13,884.512 
  "/>
<polyline clip-path="url(#clip9203)" style="stroke:#000000; stroke-width:2.4; stroke-opacity:0.1; fill:none" points="
  1324.33,376.655 3529.13,376.655 
  "/>
<polyline clip-path="url(#clip9200)" style="stroke:#000000; stroke-width:4.8; stroke-opacity:1; fill:none" points="
  1324.33,2193.49 3529.13,2193.49 
  "/>
<polyline clip-path="url(#clip9200)" style="stroke:#000000; stroke-width:4.8; stroke-opacity:1; fill:none" points="
  1324.33,2193.49 1324.33,70.8661 
  "/>
<polyline clip-path="url(#clip9200)" style="stroke:#000000; stroke-width:4.8; stroke-opacity:1; fill:none" points="
  1553.13,2193.49 1553.13,2161.65 
  "/>
<polyline clip-path="url(#clip9200)" style="stroke:#000000; stroke-width:4.8; stroke-opacity:1; fill:none" points="
  2135.53,2193.49 2135.53,2161.65 
  "/>
<polyline clip-path="url(#clip9200)" style="stroke:#000000; stroke-width:4.8; stroke-opacity:1; fill:none" points="
  2717.93,2193.49 2717.93,2161.65 
  "/>
<polyline clip-path="url(#clip9200)" style="stroke:#000000; stroke-width:4.8; stroke-opacity:1; fill:none" points="
  3300.33,2193.49 3300.33,2161.65 
  "/>
<polyline clip-path="url(#clip9200)" style="stroke:#000000; stroke-width:4.8; stroke-opacity:1; fill:none" points="
  1324.33,1900.23 1357.4,1900.23 
  "/>
<polyline clip-path="url(#clip9200)" style="stroke:#000000; stroke-width:4.8; stroke-opacity:1; fill:none" points="
  1324.33,1392.37 1357.4,1392.37 
  "/>
<polyline clip-path="url(#clip9200)" style="stroke:#000000; stroke-width:4.8; stroke-opacity:1; fill:none" points="
  1324.33,884.512 1357.4,884.512 
  "/>
<polyline clip-path="url(#clip9200)" style="stroke:#000000; stroke-width:4.8; stroke-opacity:1; fill:none" points="
  1324.33,376.655 1357.4,376.655 
  "/>
<g clip-path="url(#clip9200)">
<text style="fill:#000000; fill-opacity:1; font-family:Arial,Helvetica Neue,Helvetica,sans-serif; font-size:125px; text-anchor:middle;" transform="rotate(0, 1553.13, 2320.69)" x="1553.13" y="2320.69">I</text>
</g>
<g clip-path="url(#clip9200)">
<text style="fill:#000000; fill-opacity:1; font-family:Arial,Helvetica Neue,Helvetica,sans-serif; font-size:125px; text-anchor:middle;" transform="rotate(0, 2135.53, 2320.69)" x="2135.53" y="2320.69">II</text>
</g>
<g clip-path="url(#clip9200)">
<text style="fill:#000000; fill-opacity:1; font-family:Arial,Helvetica Neue,Helvetica,sans-serif; font-size:125px; text-anchor:middle;" transform="rotate(0, 2717.93, 2320.69)" x="2717.93" y="2320.69">III</text>
</g>
<g clip-path="url(#clip9200)">
<text style="fill:#000000; fill-opacity:1; font-family:Arial,Helvetica Neue,Helvetica,sans-serif; font-size:125px; text-anchor:middle;" transform="rotate(0, 3300.33, 2320.69)" x="3300.33" y="2320.69">IV</text>
</g>
<g clip-path="url(#clip9200)">
<text style="fill:#000000; fill-opacity:1; font-family:Arial,Helvetica Neue,Helvetica,sans-serif; font-size:125px; text-anchor:end;" transform="rotate(0, 1288.33, 1945.73)" x="1288.33" y="1945.73">3000</text>
</g>
<g clip-path="url(#clip9200)">
<text style="fill:#000000; fill-opacity:1; font-family:Arial,Helvetica Neue,Helvetica,sans-serif; font-size:125px; text-anchor:end;" transform="rotate(0, 1288.33, 1437.87)" x="1288.33" y="1437.87">4000</text>
</g>
<g clip-path="url(#clip9200)">
<text style="fill:#000000; fill-opacity:1; font-family:Arial,Helvetica Neue,Helvetica,sans-serif; font-size:125px; text-anchor:end;" transform="rotate(0, 1288.33, 930.012)" x="1288.33" y="930.012">5000</text>
</g>
<g clip-path="url(#clip9200)">
<text style="fill:#000000; fill-opacity:1; font-family:Arial,Helvetica Neue,Helvetica,sans-serif; font-size:125px; text-anchor:end;" transform="rotate(0, 1288.33, 422.155)" x="1288.33" y="422.155">6000</text>
</g>
<circle clip-path="url(#clip9203)" cx="1553.13" cy="259.174" r="21" fill="#000000" fill-rule="evenodd" fill-opacity="1" stroke="#ffffff" stroke-opacity="1" stroke-width="4.8"/>
<circle clip-path="url(#clip9203)" cx="1553.13" cy="259.174" r="17" fill="#ff0000" fill-rule="evenodd" fill-opacity="1" stroke="#ffffff" stroke-opacity="1" stroke-width="4.8"/>
<circle clip-path="url(#clip9203)" cx="1553.13" cy="131.798" r="21" fill="#000000" fill-rule="evenodd" fill-opacity="1" stroke="#ffffff" stroke-opacity="1" stroke-width="4.8"/>
<circle clip-path="url(#clip9203)" cx="1553.13" cy="131.798" r="17" fill="#ff0000" fill-rule="evenodd" fill-opacity="1" stroke="#ffffff" stroke-opacity="1" stroke-width="4.8"/>
<circle clip-path="url(#clip9203)" cx="1553.13" cy="260.607" r="21" fill="#000000" fill-rule="evenodd" fill-opacity="1" stroke="#ffffff" stroke-opacity="1" stroke-width="4.8"/>
<circle clip-path="url(#clip9203)" cx="1553.13" cy="260.607" r="17" fill="#ff0000" fill-rule="evenodd" fill-opacity="1" stroke="#ffffff" stroke-opacity="1" stroke-width="4.8"/>
<circle clip-path="url(#clip9203)" cx="1553.13" cy="259.341" r="21" fill="#000000" fill-rule="evenodd" fill-opacity="1" stroke="#ffffff" stroke-opacity="1" stroke-width="4.8"/>
<circle clip-path="url(#clip9203)" cx="1553.13" cy="259.341" r="17" fill="#ff0000" fill-rule="evenodd" fill-opacity="1" stroke="#ffffff" stroke-opacity="1" stroke-width="4.8"/>
<circle clip-path="url(#clip9203)" cx="1553.13" cy="257.555" r="21" fill="#000000" fill-rule="evenodd" fill-opacity="1" stroke="#ffffff" stroke-opacity="1" stroke-width="4.8"/>
<circle clip-path="url(#clip9203)" cx="1553.13" cy="257.555" r="17" fill="#ff0000" fill-rule="evenodd" fill-opacity="1" stroke="#ffffff" stroke-opacity="1" stroke-width="4.8"/>
<circle clip-path="url(#clip9203)" cx="1553.13" cy="257.295" r="21" fill="#000000" fill-rule="evenodd" fill-opacity="1" stroke="#ffffff" stroke-opacity="1" stroke-width="4.8"/>
<circle clip-path="url(#clip9203)" cx="1553.13" cy="257.295" r="17" fill="#ff0000" fill-rule="evenodd" fill-opacity="1" stroke="#ffffff" stroke-opacity="1" stroke-width="4.8"/>
<circle clip-path="url(#clip9203)" cx="1553.13" cy="260.596" r="21" fill="#000000" fill-rule="evenodd" fill-opacity="1" stroke="#ffffff" stroke-opacity="1" stroke-width="4.8"/>
<circle clip-path="url(#clip9203)" cx="1553.13" cy="260.596" r="17" fill="#ff0000" fill-rule="evenodd" fill-opacity="1" stroke="#ffffff" stroke-opacity="1" stroke-width="4.8"/>
<circle clip-path="url(#clip9203)" cx="1553.13" cy="260.272" r="21" fill="#000000" fill-rule="evenodd" fill-opacity="1" stroke="#ffffff" stroke-opacity="1" stroke-width="4.8"/>
<circle clip-path="url(#clip9203)" cx="1553.13" cy="260.272" r="17" fill="#ff0000" fill-rule="evenodd" fill-opacity="1" stroke="#ffffff" stroke-opacity="1" stroke-width="4.8"/>
<circle clip-path="url(#clip9203)" cx="1553.13" cy="130.94" r="21" fill="#000000" fill-rule="evenodd" fill-opacity="1" stroke="#ffffff" stroke-opacity="1" stroke-width="4.8"/>
<circle clip-path="url(#clip9203)" cx="1553.13" cy="130.94" r="17" fill="#ff0000" fill-rule="evenodd" fill-opacity="1" stroke="#ffffff" stroke-opacity="1" stroke-width="4.8"/>
<circle clip-path="url(#clip9203)" cx="1553.13" cy="131.6" r="21" fill="#000000" fill-rule="evenodd" fill-opacity="1" stroke="#ffffff" stroke-opacity="1" stroke-width="4.8"/>
<circle clip-path="url(#clip9203)" cx="1553.13" cy="131.6" r="17" fill="#ff0000" fill-rule="evenodd" fill-opacity="1" stroke="#ffffff" stroke-opacity="1" stroke-width="4.8"/>
<circle clip-path="url(#clip9203)" cx="1553.13" cy="131.106" r="21" fill="#000000" fill-rule="evenodd" fill-opacity="1" stroke="#ffffff" stroke-opacity="1" stroke-width="4.8"/>
<circle clip-path="url(#clip9203)" cx="1553.13" cy="131.106" r="17" fill="#ff0000" fill-rule="evenodd" fill-opacity="1" stroke="#ffffff" stroke-opacity="1" stroke-width="4.8"/>
<path clip-path="url(#clip9203)" d="
M1553.13 225.069 L1386.73 225.069 L1719.53 225.069 L1553.13 225.069 L1553.13 210.46 L1553.13 225.069  Z
  " fill="#ff0000" fill-rule="evenodd" fill-opacity="0.5"/>
<polyline clip-path="url(#clip9203)" style="stroke:#000000; stroke-width:4.8; stroke-opacity:1; fill:none" points="
  1553.13,225.069 1386.73,225.069 1719.53,225.069 1553.13,225.069 1553.13,210.46 1553.13,225.069 
  "/>
<path clip-path="url(#clip9203)" d="
M1386.73 210.46 L1386.73 183.426 L1719.53 183.426 L1719.53 210.46 L1386.73 210.46 L1386.73 210.46  Z
  " fill="#ff0000" fill-rule="evenodd" fill-opacity="0.5"/>
<polyline clip-path="url(#clip9203)" style="stroke:#000000; stroke-width:4.8; stroke-opacity:1; fill:none" points="
  1386.73,210.46 1386.73,183.426 1719.53,183.426 1719.53,210.46 1386.73,210.46 
  "/>
<path clip-path="url(#clip9203)" d="
M1386.73 181.215 L1386.73 183.426 L1719.53 183.426 L1719.53 181.215 L1386.73 181.215 L1386.73 181.215  Z
  " fill="#ff0000" fill-rule="evenodd" fill-opacity="0.5"/>
<polyline clip-path="url(#clip9203)" style="stroke:#000000; stroke-width:4.8; stroke-opacity:1; fill:none" points="
  1386.73,181.215 1386.73,183.426 1719.53,183.426 1719.53,181.215 1386.73,181.215 
  "/>
<path clip-path="url(#clip9203)" d="
M1553.13 153.119 L1386.73 153.119 L1719.53 153.119 L1553.13 153.119 L1553.13 181.215 L1553.13 153.119  Z
  " fill="#ff0000" fill-rule="evenodd" fill-opacity="0.5"/>
<polyline clip-path="url(#clip9203)" style="stroke:#000000; stroke-width:4.8; stroke-opacity:1; fill:none" points="
  1553.13,153.119 1386.73,153.119 1719.53,153.119 1553.13,153.119 1553.13,181.215 1553.13,153.119 
  "/>
<circle clip-path="url(#clip9203)" cx="2135.53" cy="1797.71" r="21" fill="#000000" fill-rule="evenodd" fill-opacity="1" stroke="#ffffff" stroke-opacity="1" stroke-width="4.8"/>
<circle clip-path="url(#clip9203)" cx="2135.53" cy="1797.71" r="17" fill="#008000" fill-rule="evenodd" fill-opacity="1" stroke="#ffffff" stroke-opacity="1" stroke-width="4.8"/>
<circle clip-path="url(#clip9203)" cx="2135.53" cy="1768.13" r="21" fill="#000000" fill-rule="evenodd" fill-opacity="1" stroke="#ffffff" stroke-opacity="1" stroke-width="4.8"/>
<circle clip-path="url(#clip9203)" cx="2135.53" cy="1768.13" r="17" fill="#008000" fill-rule="evenodd" fill-opacity="1" stroke="#ffffff" stroke-opacity="1" stroke-width="4.8"/>
<circle clip-path="url(#clip9203)" cx="2135.53" cy="1777.36" r="21" fill="#000000" fill-rule="evenodd" fill-opacity="1" stroke="#ffffff" stroke-opacity="1" stroke-width="4.8"/>
<circle clip-path="url(#clip9203)" cx="2135.53" cy="1777.36" r="17" fill="#008000" fill-rule="evenodd" fill-opacity="1" stroke="#ffffff" stroke-opacity="1" stroke-width="4.8"/>
<circle clip-path="url(#clip9203)" cx="2135.53" cy="2014.11" r="21" fill="#000000" fill-rule="evenodd" fill-opacity="1" stroke="#ffffff" stroke-opacity="1" stroke-width="4.8"/>
<circle clip-path="url(#clip9203)" cx="2135.53" cy="2014.11" r="17" fill="#008000" fill-rule="evenodd" fill-opacity="1" stroke="#ffffff" stroke-opacity="1" stroke-width="4.8"/>
<circle clip-path="url(#clip9203)" cx="2135.53" cy="1762.25" r="21" fill="#000000" fill-rule="evenodd" fill-opacity="1" stroke="#ffffff" stroke-opacity="1" stroke-width="4.8"/>
<circle clip-path="url(#clip9203)" cx="2135.53" cy="1762.25" r="17" fill="#008000" fill-rule="evenodd" fill-opacity="1" stroke="#ffffff" stroke-opacity="1" stroke-width="4.8"/>
<circle clip-path="url(#clip9203)" cx="2135.53" cy="1766.25" r="21" fill="#000000" fill-rule="evenodd" fill-opacity="1" stroke="#ffffff" stroke-opacity="1" stroke-width="4.8"/>
<circle clip-path="url(#clip9203)" cx="2135.53" cy="1766.25" r="17" fill="#008000" fill-rule="evenodd" fill-opacity="1" stroke="#ffffff" stroke-opacity="1" stroke-width="4.8"/>
<circle clip-path="url(#clip9203)" cx="2135.53" cy="2040.42" r="21" fill="#000000" fill-rule="evenodd" fill-opacity="1" stroke="#ffffff" stroke-opacity="1" stroke-width="4.8"/>
<circle clip-path="url(#clip9203)" cx="2135.53" cy="2040.42" r="17" fill="#008000" fill-rule="evenodd" fill-opacity="1" stroke="#ffffff" stroke-opacity="1" stroke-width="4.8"/>
<circle clip-path="url(#clip9203)" cx="2135.53" cy="2040.4" r="21" fill="#000000" fill-rule="evenodd" fill-opacity="1" stroke="#ffffff" stroke-opacity="1" stroke-width="4.8"/>
<circle clip-path="url(#clip9203)" cx="2135.53" cy="2040.4" r="17" fill="#008000" fill-rule="evenodd" fill-opacity="1" stroke="#ffffff" stroke-opacity="1" stroke-width="4.8"/>
<circle clip-path="url(#clip9203)" cx="2135.53" cy="2039.75" r="21" fill="#000000" fill-rule="evenodd" fill-opacity="1" stroke="#ffffff" stroke-opacity="1" stroke-width="4.8"/>
<circle clip-path="url(#clip9203)" cx="2135.53" cy="2039.75" r="17" fill="#008000" fill-rule="evenodd" fill-opacity="1" stroke="#ffffff" stroke-opacity="1" stroke-width="4.8"/>
<circle clip-path="url(#clip9203)" cx="2135.53" cy="1797.19" r="21" fill="#000000" fill-rule="evenodd" fill-opacity="1" stroke="#ffffff" stroke-opacity="1" stroke-width="4.8"/>
<circle clip-path="url(#clip9203)" cx="2135.53" cy="1797.19" r="17" fill="#008000" fill-rule="evenodd" fill-opacity="1" stroke="#ffffff" stroke-opacity="1" stroke-width="4.8"/>
<circle clip-path="url(#clip9203)" cx="2135.53" cy="2007.7" r="21" fill="#000000" fill-rule="evenodd" fill-opacity="1" stroke="#ffffff" stroke-opacity="1" stroke-width="4.8"/>
<circle clip-path="url(#clip9203)" cx="2135.53" cy="2007.7" r="17" fill="#008000" fill-rule="evenodd" fill-opacity="1" stroke="#ffffff" stroke-opacity="1" stroke-width="4.8"/>
<circle clip-path="url(#clip9203)" cx="2135.53" cy="1764.43" r="21" fill="#000000" fill-rule="evenodd" fill-opacity="1" stroke="#ffffff" stroke-opacity="1" stroke-width="4.8"/>
<circle clip-path="url(#clip9203)" cx="2135.53" cy="1764.43" r="17" fill="#008000" fill-rule="evenodd" fill-opacity="1" stroke="#ffffff" stroke-opacity="1" stroke-width="4.8"/>
<circle clip-path="url(#clip9203)" cx="2135.53" cy="2036.16" r="21" fill="#000000" fill-rule="evenodd" fill-opacity="1" stroke="#ffffff" stroke-opacity="1" stroke-width="4.8"/>
<circle clip-path="url(#clip9203)" cx="2135.53" cy="2036.16" r="17" fill="#008000" fill-rule="evenodd" fill-opacity="1" stroke="#ffffff" stroke-opacity="1" stroke-width="4.8"/>
<circle clip-path="url(#clip9203)" cx="2135.53" cy="2133.41" r="21" fill="#000000" fill-rule="evenodd" fill-opacity="1" stroke="#ffffff" stroke-opacity="1" stroke-width="4.8"/>
<circle clip-path="url(#clip9203)" cx="2135.53" cy="2133.41" r="17" fill="#008000" fill-rule="evenodd" fill-opacity="1" stroke="#ffffff" stroke-opacity="1" stroke-width="4.8"/>
<circle clip-path="url(#clip9203)" cx="2135.53" cy="2006.02" r="21" fill="#000000" fill-rule="evenodd" fill-opacity="1" stroke="#ffffff" stroke-opacity="1" stroke-width="4.8"/>
<circle clip-path="url(#clip9203)" cx="2135.53" cy="2006.02" r="17" fill="#008000" fill-rule="evenodd" fill-opacity="1" stroke="#ffffff" stroke-opacity="1" stroke-width="4.8"/>
<circle clip-path="url(#clip9203)" cx="2135.53" cy="2011.81" r="21" fill="#000000" fill-rule="evenodd" fill-opacity="1" stroke="#ffffff" stroke-opacity="1" stroke-width="4.8"/>
<circle clip-path="url(#clip9203)" cx="2135.53" cy="2011.81" r="17" fill="#008000" fill-rule="evenodd" fill-opacity="1" stroke="#ffffff" stroke-opacity="1" stroke-width="4.8"/>
<circle clip-path="url(#clip9203)" cx="2135.53" cy="1763.5" r="21" fill="#000000" fill-rule="evenodd" fill-opacity="1" stroke="#ffffff" stroke-opacity="1" stroke-width="4.8"/>
<circle clip-path="url(#clip9203)" cx="2135.53" cy="1763.5" r="17" fill="#008000" fill-rule="evenodd" fill-opacity="1" stroke="#ffffff" stroke-opacity="1" stroke-width="4.8"/>
<circle clip-path="url(#clip9203)" cx="2135.53" cy="1763.51" r="21" fill="#000000" fill-rule="evenodd" fill-opacity="1" stroke="#ffffff" stroke-opacity="1" stroke-width="4.8"/>
<circle clip-path="url(#clip9203)" cx="2135.53" cy="1763.51" r="17" fill="#008000" fill-rule="evenodd" fill-opacity="1" stroke="#ffffff" stroke-opacity="1" stroke-width="4.8"/>
<circle clip-path="url(#clip9203)" cx="2135.53" cy="2006.55" r="21" fill="#000000" fill-rule="evenodd" fill-opacity="1" stroke="#ffffff" stroke-opacity="1" stroke-width="4.8"/>
<circle clip-path="url(#clip9203)" cx="2135.53" cy="2006.55" r="17" fill="#008000" fill-rule="evenodd" fill-opacity="1" stroke="#ffffff" stroke-opacity="1" stroke-width="4.8"/>
<circle clip-path="url(#clip9203)" cx="2135.53" cy="1763.57" r="21" fill="#000000" fill-rule="evenodd" fill-opacity="1" stroke="#ffffff" stroke-opacity="1" stroke-width="4.8"/>
<circle clip-path="url(#clip9203)" cx="2135.53" cy="1763.57" r="17" fill="#008000" fill-rule="evenodd" fill-opacity="1" stroke="#ffffff" stroke-opacity="1" stroke-width="4.8"/>
<circle clip-path="url(#clip9203)" cx="2135.53" cy="2078.86" r="21" fill="#000000" fill-rule="evenodd" fill-opacity="1" stroke="#ffffff" stroke-opacity="1" stroke-width="4.8"/>
<circle clip-path="url(#clip9203)" cx="2135.53" cy="2078.86" r="17" fill="#008000" fill-rule="evenodd" fill-opacity="1" stroke="#ffffff" stroke-opacity="1" stroke-width="4.8"/>
<circle clip-path="url(#clip9203)" cx="2135.53" cy="2033.83" r="21" fill="#000000" fill-rule="evenodd" fill-opacity="1" stroke="#ffffff" stroke-opacity="1" stroke-width="4.8"/>
<circle clip-path="url(#clip9203)" cx="2135.53" cy="2033.83" r="17" fill="#008000" fill-rule="evenodd" fill-opacity="1" stroke="#ffffff" stroke-opacity="1" stroke-width="4.8"/>
<circle clip-path="url(#clip9203)" cx="2135.53" cy="1767.98" r="21" fill="#000000" fill-rule="evenodd" fill-opacity="1" stroke="#ffffff" stroke-opacity="1" stroke-width="4.8"/>
<circle clip-path="url(#clip9203)" cx="2135.53" cy="1767.98" r="17" fill="#008000" fill-rule="evenodd" fill-opacity="1" stroke="#ffffff" stroke-opacity="1" stroke-width="4.8"/>
<circle clip-path="url(#clip9203)" cx="2135.53" cy="1767.55" r="21" fill="#000000" fill-rule="evenodd" fill-opacity="1" stroke="#ffffff" stroke-opacity="1" stroke-width="4.8"/>
<circle clip-path="url(#clip9203)" cx="2135.53" cy="1767.55" r="17" fill="#008000" fill-rule="evenodd" fill-opacity="1" stroke="#ffffff" stroke-opacity="1" stroke-width="4.8"/>
<circle clip-path="url(#clip9203)" cx="2135.53" cy="2034.27" r="21" fill="#000000" fill-rule="evenodd" fill-opacity="1" stroke="#ffffff" stroke-opacity="1" stroke-width="4.8"/>
<circle clip-path="url(#clip9203)" cx="2135.53" cy="2034.27" r="17" fill="#008000" fill-rule="evenodd" fill-opacity="1" stroke="#ffffff" stroke-opacity="1" stroke-width="4.8"/>
<circle clip-path="url(#clip9203)" cx="2135.53" cy="1767.29" r="21" fill="#000000" fill-rule="evenodd" fill-opacity="1" stroke="#ffffff" stroke-opacity="1" stroke-width="4.8"/>
<circle clip-path="url(#clip9203)" cx="2135.53" cy="1767.29" r="17" fill="#008000" fill-rule="evenodd" fill-opacity="1" stroke="#ffffff" stroke-opacity="1" stroke-width="4.8"/>
<circle clip-path="url(#clip9203)" cx="2135.53" cy="2033.65" r="21" fill="#000000" fill-rule="evenodd" fill-opacity="1" stroke="#ffffff" stroke-opacity="1" stroke-width="4.8"/>
<circle clip-path="url(#clip9203)" cx="2135.53" cy="2033.65" r="17" fill="#008000" fill-rule="evenodd" fill-opacity="1" stroke="#ffffff" stroke-opacity="1" stroke-width="4.8"/>
<circle clip-path="url(#clip9203)" cx="2135.53" cy="2035" r="21" fill="#000000" fill-rule="evenodd" fill-opacity="1" stroke="#ffffff" stroke-opacity="1" stroke-width="4.8"/>
<circle clip-path="url(#clip9203)" cx="2135.53" cy="2035" r="17" fill="#008000" fill-rule="evenodd" fill-opacity="1" stroke="#ffffff" stroke-opacity="1" stroke-width="4.8"/>
<circle clip-path="url(#clip9203)" cx="2135.53" cy="1792.83" r="21" fill="#000000" fill-rule="evenodd" fill-opacity="1" stroke="#ffffff" stroke-opacity="1" stroke-width="4.8"/>
<circle clip-path="url(#clip9203)" cx="2135.53" cy="1792.83" r="17" fill="#008000" fill-rule="evenodd" fill-opacity="1" stroke="#ffffff" stroke-opacity="1" stroke-width="4.8"/>
<circle clip-path="url(#clip9203)" cx="2135.53" cy="2080.47" r="21" fill="#000000" fill-rule="evenodd" fill-opacity="1" stroke="#ffffff" stroke-opacity="1" stroke-width="4.8"/>
<circle clip-path="url(#clip9203)" cx="2135.53" cy="2080.47" r="17" fill="#008000" fill-rule="evenodd" fill-opacity="1" stroke="#ffffff" stroke-opacity="1" stroke-width="4.8"/>
<circle clip-path="url(#clip9203)" cx="2135.53" cy="2035.02" r="21" fill="#000000" fill-rule="evenodd" fill-opacity="1" stroke="#ffffff" stroke-opacity="1" stroke-width="4.8"/>
<circle clip-path="url(#clip9203)" cx="2135.53" cy="2035.02" r="17" fill="#008000" fill-rule="evenodd" fill-opacity="1" stroke="#ffffff" stroke-opacity="1" stroke-width="4.8"/>
<circle clip-path="url(#clip9203)" cx="2135.53" cy="2034.26" r="21" fill="#000000" fill-rule="evenodd" fill-opacity="1" stroke="#ffffff" stroke-opacity="1" stroke-width="4.8"/>
<circle clip-path="url(#clip9203)" cx="2135.53" cy="2034.26" r="17" fill="#008000" fill-rule="evenodd" fill-opacity="1" stroke="#ffffff" stroke-opacity="1" stroke-width="4.8"/>
<path clip-path="url(#clip9203)" d="
M2135.53 1959.02 L1969.13 1959.02 L2301.93 1959.02 L2135.53 1959.02 L2135.53 1933.51 L2135.53 1959.02  Z
  " fill="#008000" fill-rule="evenodd" fill-opacity="0.5"/>
<polyline clip-path="url(#clip9203)" style="stroke:#000000; stroke-width:4.8; stroke-opacity:1; fill:none" points="
  2135.53,1959.02 1969.13,1959.02 2301.93,1959.02 2135.53,1959.02 2135.53,1933.51 2135.53,1959.02 
  "/>
<path clip-path="url(#clip9203)" d="
M1969.13 1933.51 L1969.13 1898.96 L2301.93 1898.96 L2301.93 1933.51 L1969.13 1933.51 L1969.13 1933.51  Z
  " fill="#008000" fill-rule="evenodd" fill-opacity="0.5"/>
<polyline clip-path="url(#clip9203)" style="stroke:#000000; stroke-width:4.8; stroke-opacity:1; fill:none" points="
  1969.13,1933.51 1969.13,1898.96 2301.93,1898.96 2301.93,1933.51 1969.13,1933.51 
  "/>
<path clip-path="url(#clip9203)" d="
M1969.13 1888.71 L1969.13 1898.96 L2301.93 1898.96 L2301.93 1888.71 L1969.13 1888.71 L1969.13 1888.71  Z
  " fill="#008000" fill-rule="evenodd" fill-opacity="0.5"/>
<polyline clip-path="url(#clip9203)" style="stroke:#000000; stroke-width:4.8; stroke-opacity:1; fill:none" points="
  1969.13,1888.71 1969.13,1898.96 2301.93,1898.96 2301.93,1888.71 1969.13,1888.71 
  "/>
<path clip-path="url(#clip9203)" d="
M2135.53 1831.6 L1969.13 1831.6 L2301.93 1831.6 L2135.53 1831.6 L2135.53 1888.71 L2135.53 1831.6  Z
  " fill="#008000" fill-rule="evenodd" fill-opacity="0.5"/>
<polyline clip-path="url(#clip9203)" style="stroke:#000000; stroke-width:4.8; stroke-opacity:1; fill:none" points="
  2135.53,1831.6 1969.13,1831.6 2301.93,1831.6 2135.53,1831.6 2135.53,1888.71 2135.53,1831.6 
  "/>
<circle clip-path="url(#clip9203)" cx="2717.93" cy="1767.47" r="21" fill="#000000" fill-rule="evenodd" fill-opacity="1" stroke="#ffffff" stroke-opacity="1" stroke-width="4.8"/>
<circle clip-path="url(#clip9203)" cx="2717.93" cy="1767.47" r="17" fill="#800080" fill-rule="evenodd" fill-opacity="1" stroke="#ffffff" stroke-opacity="1" stroke-width="4.8"/>
<circle clip-path="url(#clip9203)" cx="2717.93" cy="1778.49" r="21" fill="#000000" fill-rule="evenodd" fill-opacity="1" stroke="#ffffff" stroke-opacity="1" stroke-width="4.8"/>
<circle clip-path="url(#clip9203)" cx="2717.93" cy="1778.49" r="17" fill="#800080" fill-rule="evenodd" fill-opacity="1" stroke="#ffffff" stroke-opacity="1" stroke-width="4.8"/>
<circle clip-path="url(#clip9203)" cx="2717.93" cy="1777.51" r="21" fill="#000000" fill-rule="evenodd" fill-opacity="1" stroke="#ffffff" stroke-opacity="1" stroke-width="4.8"/>
<circle clip-path="url(#clip9203)" cx="2717.93" cy="1777.51" r="17" fill="#800080" fill-rule="evenodd" fill-opacity="1" stroke="#ffffff" stroke-opacity="1" stroke-width="4.8"/>
<circle clip-path="url(#clip9203)" cx="2717.93" cy="2014.4" r="21" fill="#000000" fill-rule="evenodd" fill-opacity="1" stroke="#ffffff" stroke-opacity="1" stroke-width="4.8"/>
<circle clip-path="url(#clip9203)" cx="2717.93" cy="2014.4" r="17" fill="#800080" fill-rule="evenodd" fill-opacity="1" stroke="#ffffff" stroke-opacity="1" stroke-width="4.8"/>
<circle clip-path="url(#clip9203)" cx="2717.93" cy="1767.62" r="21" fill="#000000" fill-rule="evenodd" fill-opacity="1" stroke="#ffffff" stroke-opacity="1" stroke-width="4.8"/>
<circle clip-path="url(#clip9203)" cx="2717.93" cy="1767.62" r="17" fill="#800080" fill-rule="evenodd" fill-opacity="1" stroke="#ffffff" stroke-opacity="1" stroke-width="4.8"/>
<circle clip-path="url(#clip9203)" cx="2717.93" cy="1767.09" r="21" fill="#000000" fill-rule="evenodd" fill-opacity="1" stroke="#ffffff" stroke-opacity="1" stroke-width="4.8"/>
<circle clip-path="url(#clip9203)" cx="2717.93" cy="1767.09" r="17" fill="#800080" fill-rule="evenodd" fill-opacity="1" stroke="#ffffff" stroke-opacity="1" stroke-width="4.8"/>
<circle clip-path="url(#clip9203)" cx="2717.93" cy="2041.37" r="21" fill="#000000" fill-rule="evenodd" fill-opacity="1" stroke="#ffffff" stroke-opacity="1" stroke-width="4.8"/>
<circle clip-path="url(#clip9203)" cx="2717.93" cy="2041.37" r="17" fill="#800080" fill-rule="evenodd" fill-opacity="1" stroke="#ffffff" stroke-opacity="1" stroke-width="4.8"/>
<circle clip-path="url(#clip9203)" cx="2717.93" cy="2040.74" r="21" fill="#000000" fill-rule="evenodd" fill-opacity="1" stroke="#ffffff" stroke-opacity="1" stroke-width="4.8"/>
<circle clip-path="url(#clip9203)" cx="2717.93" cy="2040.74" r="17" fill="#800080" fill-rule="evenodd" fill-opacity="1" stroke="#ffffff" stroke-opacity="1" stroke-width="4.8"/>
<circle clip-path="url(#clip9203)" cx="2717.93" cy="2039.64" r="21" fill="#000000" fill-rule="evenodd" fill-opacity="1" stroke="#ffffff" stroke-opacity="1" stroke-width="4.8"/>
<circle clip-path="url(#clip9203)" cx="2717.93" cy="2039.64" r="17" fill="#800080" fill-rule="evenodd" fill-opacity="1" stroke="#ffffff" stroke-opacity="1" stroke-width="4.8"/>
<circle clip-path="url(#clip9203)" cx="2717.93" cy="1768.73" r="21" fill="#000000" fill-rule="evenodd" fill-opacity="1" stroke="#ffffff" stroke-opacity="1" stroke-width="4.8"/>
<circle clip-path="url(#clip9203)" cx="2717.93" cy="1768.73" r="17" fill="#800080" fill-rule="evenodd" fill-opacity="1" stroke="#ffffff" stroke-opacity="1" stroke-width="4.8"/>
<circle clip-path="url(#clip9203)" cx="2717.93" cy="2007.36" r="21" fill="#000000" fill-rule="evenodd" fill-opacity="1" stroke="#ffffff" stroke-opacity="1" stroke-width="4.8"/>
<circle clip-path="url(#clip9203)" cx="2717.93" cy="2007.36" r="17" fill="#800080" fill-rule="evenodd" fill-opacity="1" stroke="#ffffff" stroke-opacity="1" stroke-width="4.8"/>
<circle clip-path="url(#clip9203)" cx="2717.93" cy="1764.27" r="21" fill="#000000" fill-rule="evenodd" fill-opacity="1" stroke="#ffffff" stroke-opacity="1" stroke-width="4.8"/>
<circle clip-path="url(#clip9203)" cx="2717.93" cy="1764.27" r="17" fill="#800080" fill-rule="evenodd" fill-opacity="1" stroke="#ffffff" stroke-opacity="1" stroke-width="4.8"/>
<circle clip-path="url(#clip9203)" cx="2717.93" cy="2035.16" r="21" fill="#000000" fill-rule="evenodd" fill-opacity="1" stroke="#ffffff" stroke-opacity="1" stroke-width="4.8"/>
<circle clip-path="url(#clip9203)" cx="2717.93" cy="2035.16" r="17" fill="#800080" fill-rule="evenodd" fill-opacity="1" stroke="#ffffff" stroke-opacity="1" stroke-width="4.8"/>
<circle clip-path="url(#clip9203)" cx="2717.93" cy="2126.97" r="21" fill="#000000" fill-rule="evenodd" fill-opacity="1" stroke="#ffffff" stroke-opacity="1" stroke-width="4.8"/>
<circle clip-path="url(#clip9203)" cx="2717.93" cy="2126.97" r="17" fill="#800080" fill-rule="evenodd" fill-opacity="1" stroke="#ffffff" stroke-opacity="1" stroke-width="4.8"/>
<circle clip-path="url(#clip9203)" cx="2717.93" cy="2012.05" r="21" fill="#000000" fill-rule="evenodd" fill-opacity="1" stroke="#ffffff" stroke-opacity="1" stroke-width="4.8"/>
<circle clip-path="url(#clip9203)" cx="2717.93" cy="2012.05" r="17" fill="#800080" fill-rule="evenodd" fill-opacity="1" stroke="#ffffff" stroke-opacity="1" stroke-width="4.8"/>
<circle clip-path="url(#clip9203)" cx="2717.93" cy="2007.27" r="21" fill="#000000" fill-rule="evenodd" fill-opacity="1" stroke="#ffffff" stroke-opacity="1" stroke-width="4.8"/>
<circle clip-path="url(#clip9203)" cx="2717.93" cy="2007.27" r="17" fill="#800080" fill-rule="evenodd" fill-opacity="1" stroke="#ffffff" stroke-opacity="1" stroke-width="4.8"/>
<circle clip-path="url(#clip9203)" cx="2717.93" cy="1763.61" r="21" fill="#000000" fill-rule="evenodd" fill-opacity="1" stroke="#ffffff" stroke-opacity="1" stroke-width="4.8"/>
<circle clip-path="url(#clip9203)" cx="2717.93" cy="1763.61" r="17" fill="#800080" fill-rule="evenodd" fill-opacity="1" stroke="#ffffff" stroke-opacity="1" stroke-width="4.8"/>
<circle clip-path="url(#clip9203)" cx="2717.93" cy="1763.61" r="21" fill="#000000" fill-rule="evenodd" fill-opacity="1" stroke="#ffffff" stroke-opacity="1" stroke-width="4.8"/>
<circle clip-path="url(#clip9203)" cx="2717.93" cy="1763.61" r="17" fill="#800080" fill-rule="evenodd" fill-opacity="1" stroke="#ffffff" stroke-opacity="1" stroke-width="4.8"/>
<circle clip-path="url(#clip9203)" cx="2717.93" cy="2007.09" r="21" fill="#000000" fill-rule="evenodd" fill-opacity="1" stroke="#ffffff" stroke-opacity="1" stroke-width="4.8"/>
<circle clip-path="url(#clip9203)" cx="2717.93" cy="2007.09" r="17" fill="#800080" fill-rule="evenodd" fill-opacity="1" stroke="#ffffff" stroke-opacity="1" stroke-width="4.8"/>
<circle clip-path="url(#clip9203)" cx="2717.93" cy="1763.52" r="21" fill="#000000" fill-rule="evenodd" fill-opacity="1" stroke="#ffffff" stroke-opacity="1" stroke-width="4.8"/>
<circle clip-path="url(#clip9203)" cx="2717.93" cy="1763.52" r="17" fill="#800080" fill-rule="evenodd" fill-opacity="1" stroke="#ffffff" stroke-opacity="1" stroke-width="4.8"/>
<circle clip-path="url(#clip9203)" cx="2717.93" cy="2079.33" r="21" fill="#000000" fill-rule="evenodd" fill-opacity="1" stroke="#ffffff" stroke-opacity="1" stroke-width="4.8"/>
<circle clip-path="url(#clip9203)" cx="2717.93" cy="2079.33" r="17" fill="#800080" fill-rule="evenodd" fill-opacity="1" stroke="#ffffff" stroke-opacity="1" stroke-width="4.8"/>
<circle clip-path="url(#clip9203)" cx="2717.93" cy="2033.53" r="21" fill="#000000" fill-rule="evenodd" fill-opacity="1" stroke="#ffffff" stroke-opacity="1" stroke-width="4.8"/>
<circle clip-path="url(#clip9203)" cx="2717.93" cy="2033.53" r="17" fill="#800080" fill-rule="evenodd" fill-opacity="1" stroke="#ffffff" stroke-opacity="1" stroke-width="4.8"/>
<circle clip-path="url(#clip9203)" cx="2717.93" cy="1793.35" r="21" fill="#000000" fill-rule="evenodd" fill-opacity="1" stroke="#ffffff" stroke-opacity="1" stroke-width="4.8"/>
<circle clip-path="url(#clip9203)" cx="2717.93" cy="1793.35" r="17" fill="#800080" fill-rule="evenodd" fill-opacity="1" stroke="#ffffff" stroke-opacity="1" stroke-width="4.8"/>
<circle clip-path="url(#clip9203)" cx="2717.93" cy="1767.58" r="21" fill="#000000" fill-rule="evenodd" fill-opacity="1" stroke="#ffffff" stroke-opacity="1" stroke-width="4.8"/>
<circle clip-path="url(#clip9203)" cx="2717.93" cy="1767.58" r="17" fill="#800080" fill-rule="evenodd" fill-opacity="1" stroke="#ffffff" stroke-opacity="1" stroke-width="4.8"/>
<circle clip-path="url(#clip9203)" cx="2717.93" cy="2012.03" r="21" fill="#000000" fill-rule="evenodd" fill-opacity="1" stroke="#ffffff" stroke-opacity="1" stroke-width="4.8"/>
<circle clip-path="url(#clip9203)" cx="2717.93" cy="2012.03" r="17" fill="#800080" fill-rule="evenodd" fill-opacity="1" stroke="#ffffff" stroke-opacity="1" stroke-width="4.8"/>
<circle clip-path="url(#clip9203)" cx="2717.93" cy="1767.44" r="21" fill="#000000" fill-rule="evenodd" fill-opacity="1" stroke="#ffffff" stroke-opacity="1" stroke-width="4.8"/>
<circle clip-path="url(#clip9203)" cx="2717.93" cy="1767.44" r="17" fill="#800080" fill-rule="evenodd" fill-opacity="1" stroke="#ffffff" stroke-opacity="1" stroke-width="4.8"/>
<circle clip-path="url(#clip9203)" cx="2717.93" cy="2032.58" r="21" fill="#000000" fill-rule="evenodd" fill-opacity="1" stroke="#ffffff" stroke-opacity="1" stroke-width="4.8"/>
<circle clip-path="url(#clip9203)" cx="2717.93" cy="2032.58" r="17" fill="#800080" fill-rule="evenodd" fill-opacity="1" stroke="#ffffff" stroke-opacity="1" stroke-width="4.8"/>
<circle clip-path="url(#clip9203)" cx="2717.93" cy="2079.26" r="21" fill="#000000" fill-rule="evenodd" fill-opacity="1" stroke="#ffffff" stroke-opacity="1" stroke-width="4.8"/>
<circle clip-path="url(#clip9203)" cx="2717.93" cy="2079.26" r="17" fill="#800080" fill-rule="evenodd" fill-opacity="1" stroke="#ffffff" stroke-opacity="1" stroke-width="4.8"/>
<circle clip-path="url(#clip9203)" cx="2717.93" cy="2033.4" r="21" fill="#000000" fill-rule="evenodd" fill-opacity="1" stroke="#ffffff" stroke-opacity="1" stroke-width="4.8"/>
<circle clip-path="url(#clip9203)" cx="2717.93" cy="2033.4" r="17" fill="#800080" fill-rule="evenodd" fill-opacity="1" stroke="#ffffff" stroke-opacity="1" stroke-width="4.8"/>
<circle clip-path="url(#clip9203)" cx="2717.93" cy="1837.44" r="21" fill="#000000" fill-rule="evenodd" fill-opacity="1" stroke="#ffffff" stroke-opacity="1" stroke-width="4.8"/>
<circle clip-path="url(#clip9203)" cx="2717.93" cy="1837.44" r="17" fill="#800080" fill-rule="evenodd" fill-opacity="1" stroke="#ffffff" stroke-opacity="1" stroke-width="4.8"/>
<circle clip-path="url(#clip9203)" cx="2717.93" cy="1831.56" r="21" fill="#000000" fill-rule="evenodd" fill-opacity="1" stroke="#ffffff" stroke-opacity="1" stroke-width="4.8"/>
<circle clip-path="url(#clip9203)" cx="2717.93" cy="1831.56" r="17" fill="#800080" fill-rule="evenodd" fill-opacity="1" stroke="#ffffff" stroke-opacity="1" stroke-width="4.8"/>
<circle clip-path="url(#clip9203)" cx="2717.93" cy="2080.38" r="21" fill="#000000" fill-rule="evenodd" fill-opacity="1" stroke="#ffffff" stroke-opacity="1" stroke-width="4.8"/>
<circle clip-path="url(#clip9203)" cx="2717.93" cy="2080.38" r="17" fill="#800080" fill-rule="evenodd" fill-opacity="1" stroke="#ffffff" stroke-opacity="1" stroke-width="4.8"/>
<circle clip-path="url(#clip9203)" cx="2717.93" cy="2034.45" r="21" fill="#000000" fill-rule="evenodd" fill-opacity="1" stroke="#ffffff" stroke-opacity="1" stroke-width="4.8"/>
<circle clip-path="url(#clip9203)" cx="2717.93" cy="2034.45" r="17" fill="#800080" fill-rule="evenodd" fill-opacity="1" stroke="#ffffff" stroke-opacity="1" stroke-width="4.8"/>
<circle clip-path="url(#clip9203)" cx="2717.93" cy="2034.6" r="21" fill="#000000" fill-rule="evenodd" fill-opacity="1" stroke="#ffffff" stroke-opacity="1" stroke-width="4.8"/>
<circle clip-path="url(#clip9203)" cx="2717.93" cy="2034.6" r="17" fill="#800080" fill-rule="evenodd" fill-opacity="1" stroke="#ffffff" stroke-opacity="1" stroke-width="4.8"/>
<circle clip-path="url(#clip9203)" cx="2717.93" cy="1831.16" r="21" fill="#000000" fill-rule="evenodd" fill-opacity="1" stroke="#ffffff" stroke-opacity="1" stroke-width="4.8"/>
<circle clip-path="url(#clip9203)" cx="2717.93" cy="1831.16" r="17" fill="#800080" fill-rule="evenodd" fill-opacity="1" stroke="#ffffff" stroke-opacity="1" stroke-width="4.8"/>
<circle clip-path="url(#clip9203)" cx="2717.93" cy="1832.03" r="21" fill="#000000" fill-rule="evenodd" fill-opacity="1" stroke="#ffffff" stroke-opacity="1" stroke-width="4.8"/>
<circle clip-path="url(#clip9203)" cx="2717.93" cy="1832.03" r="17" fill="#800080" fill-rule="evenodd" fill-opacity="1" stroke="#ffffff" stroke-opacity="1" stroke-width="4.8"/>
<path clip-path="url(#clip9203)" d="
M2717.93 1959.07 L2551.53 1959.07 L2884.33 1959.07 L2717.93 1959.07 L2717.93 1919.94 L2717.93 1959.07  Z
  " fill="#800080" fill-rule="evenodd" fill-opacity="0.5"/>
<polyline clip-path="url(#clip9203)" style="stroke:#000000; stroke-width:4.8; stroke-opacity:1; fill:none" points="
  2717.93,1959.07 2551.53,1959.07 2884.33,1959.07 2717.93,1959.07 2717.93,1919.94 2717.93,1959.07 
  "/>
<path clip-path="url(#clip9203)" d="
M2551.53 1919.94 L2551.53 1899.13 L2884.33 1899.13 L2884.33 1919.94 L2551.53 1919.94 L2551.53 1919.94  Z
  " fill="#800080" fill-rule="evenodd" fill-opacity="0.5"/>
<polyline clip-path="url(#clip9203)" style="stroke:#000000; stroke-width:4.8; stroke-opacity:1; fill:none" points="
  2551.53,1919.94 2551.53,1899.13 2884.33,1899.13 2884.33,1919.94 2551.53,1919.94 
  "/>
<path clip-path="url(#clip9203)" d="
M2551.53 1887.49 L2551.53 1899.13 L2884.33 1899.13 L2884.33 1887.49 L2551.53 1887.49 L2551.53 1887.49  Z
  " fill="#800080" fill-rule="evenodd" fill-opacity="0.5"/>
<polyline clip-path="url(#clip9203)" style="stroke:#000000; stroke-width:4.8; stroke-opacity:1; fill:none" points="
  2551.53,1887.49 2551.53,1899.13 2884.33,1899.13 2884.33,1887.49 2551.53,1887.49 
  "/>
<path clip-path="url(#clip9203)" d="
M2717.93 1882.67 L2551.53 1882.67 L2884.33 1882.67 L2717.93 1882.67 L2717.93 1887.49 L2717.93 1882.67  Z
  " fill="#800080" fill-rule="evenodd" fill-opacity="0.5"/>
<polyline clip-path="url(#clip9203)" style="stroke:#000000; stroke-width:4.8; stroke-opacity:1; fill:none" points="
  2717.93,1882.67 2551.53,1882.67 2884.33,1882.67 2717.93,1882.67 2717.93,1887.49 2717.93,1882.67 
  "/>
<circle clip-path="url(#clip9203)" cx="3300.33" cy="1588.26" r="21" fill="#000000" fill-rule="evenodd" fill-opacity="1" stroke="#ffffff" stroke-opacity="1" stroke-width="4.8"/>
<circle clip-path="url(#clip9203)" cx="3300.33" cy="1588.26" r="17" fill="#ffa500" fill-rule="evenodd" fill-opacity="1" stroke="#ffffff" stroke-opacity="1" stroke-width="4.8"/>
<circle clip-path="url(#clip9203)" cx="3300.33" cy="1588.32" r="21" fill="#000000" fill-rule="evenodd" fill-opacity="1" stroke="#ffffff" stroke-opacity="1" stroke-width="4.8"/>
<circle clip-path="url(#clip9203)" cx="3300.33" cy="1588.32" r="17" fill="#ffa500" fill-rule="evenodd" fill-opacity="1" stroke="#ffffff" stroke-opacity="1" stroke-width="4.8"/>
<circle clip-path="url(#clip9203)" cx="3300.33" cy="1587.98" r="21" fill="#000000" fill-rule="evenodd" fill-opacity="1" stroke="#ffffff" stroke-opacity="1" stroke-width="4.8"/>
<circle clip-path="url(#clip9203)" cx="3300.33" cy="1587.98" r="17" fill="#ffa500" fill-rule="evenodd" fill-opacity="1" stroke="#ffffff" stroke-opacity="1" stroke-width="4.8"/>
<circle clip-path="url(#clip9203)" cx="3300.33" cy="1588.44" r="21" fill="#000000" fill-rule="evenodd" fill-opacity="1" stroke="#ffffff" stroke-opacity="1" stroke-width="4.8"/>
<circle clip-path="url(#clip9203)" cx="3300.33" cy="1588.44" r="17" fill="#ffa500" fill-rule="evenodd" fill-opacity="1" stroke="#ffffff" stroke-opacity="1" stroke-width="4.8"/>
<path clip-path="url(#clip9203)" d="
M3300.33 1715.55 L3133.93 1715.55 L3466.73 1715.55 L3300.33 1715.55 L3300.33 1672.24 L3300.33 1715.55  Z
  " fill="#ffa500" fill-rule="evenodd" fill-opacity="0.5"/>
<polyline clip-path="url(#clip9203)" style="stroke:#000000; stroke-width:4.8; stroke-opacity:1; fill:none" points="
  3300.33,1715.55 3133.93,1715.55 3466.73,1715.55 3300.33,1715.55 3300.33,1672.24 3300.33,1715.55 
  "/>
<path clip-path="url(#clip9203)" d="
M3133.93 1672.24 L3133.93 1655.53 L3466.73 1655.53 L3466.73 1672.24 L3133.93 1672.24 L3133.93 1672.24  Z
  " fill="#ffa500" fill-rule="evenodd" fill-opacity="0.5"/>
<polyline clip-path="url(#clip9203)" style="stroke:#000000; stroke-width:4.8; stroke-opacity:1; fill:none" points="
  3133.93,1672.24 3133.93,1655.53 3466.73,1655.53 3466.73,1672.24 3133.93,1672.24 
  "/>
<path clip-path="url(#clip9203)" d="
M3133.93 1642.68 L3133.93 1655.53 L3466.73 1655.53 L3466.73 1642.68 L3133.93 1642.68 L3133.93 1642.68  Z
  " fill="#ffa500" fill-rule="evenodd" fill-opacity="0.5"/>
<polyline clip-path="url(#clip9203)" style="stroke:#000000; stroke-width:4.8; stroke-opacity:1; fill:none" points="
  3133.93,1642.68 3133.93,1655.53 3466.73,1655.53 3466.73,1642.68 3133.93,1642.68 
  "/>
<path clip-path="url(#clip9203)" d="
M3300.33 1639.77 L3133.93 1639.77 L3466.73 1639.77 L3300.33 1639.77 L3300.33 1642.68 L3300.33 1639.77  Z
  " fill="#ffa500" fill-rule="evenodd" fill-opacity="0.5"/>
<polyline clip-path="url(#clip9203)" style="stroke:#000000; stroke-width:4.8; stroke-opacity:1; fill:none" points="
  3300.33,1639.77 3133.93,1639.77 3466.73,1639.77 3300.33,1639.77 3300.33,1642.68 3300.33,1639.77 
  "/>
</svg>
