<?xml version="1.0" encoding="utf-8"?>
<svg xmlns="http://www.w3.org/2000/svg" xmlns:xlink="http://www.w3.org/1999/xlink" width="900" height="600" viewBox="0 0 3600 2400">
<defs>
  <clipPath id="clip0400">
    <rect x="0" y="0" width="3600" height="2400"/>
  </clipPath>
</defs>
<path clip-path="url(#clip0400)" d="
M0 2400 L3600 2400 L3600 0 L0 0  Z
  " fill="#ffffff" fill-rule="evenodd" fill-opacity="1"/>
<defs>
  <clipPath id="clip0401">
    <rect x="720" y="0" width="2521" height="2400"/>
  </clipPath>
</defs>
<path clip-path="url(#clip0400)" d="
M523.139 2193.49 L912.222 2193.49 L912.222 70.8661 L523.139 70.8661  Z
  " fill="#ffffff" fill-rule="evenodd" fill-opacity="1"/>
<defs>
  <clipPath id="clip0402">
    <rect x="523" y="70" width="390" height="2124"/>
  </clipPath>
</defs>
<polyline clip-path="url(#clip0402)" style="stroke:#000000; stroke-width:2.4; stroke-opacity:0.1; fill:none" points="
  717.681,2193.49 717.681,70.8661 
  "/>
<polyline clip-path="url(#clip0402)" style="stroke:#000000; stroke-width:2.4; stroke-opacity:0.1; fill:none" points="
  523.139,1857.96 912.222,1857.96 
  "/>
<polyline clip-path="url(#clip0402)" style="stroke:#000000; stroke-width:2.4; stroke-opacity:0.1; fill:none" points="
  523.139,1491.18 912.222,1491.18 
  "/>
<polyline clip-path="url(#clip0402)" style="stroke:#000000; stroke-width:2.4; stroke-opacity:0.1; fill:none" points="
  523.139,1124.41 912.222,1124.41 
  "/>
<polyline clip-path="url(#clip0402)" style="stroke:#000000; stroke-width:2.4; stroke-opacity:0.1; fill:none" points="
  523.139,757.629 912.222,757.629 
  "/>
<polyline clip-path="url(#clip0402)" style="stroke:#000000; stroke-width:2.4; stroke-opacity:0.1; fill:none" points="
  523.139,390.852 912.222,390.852 
  "/>
<polyline clip-path="url(#clip0400)" style="stroke:#000000; stroke-width:4.8; stroke-opacity:1; fill:none" points="
  523.139,2193.49 912.222,2193.49 
  "/>
<polyline clip-path="url(#clip0400)" style="stroke:#000000; stroke-width:4.8; stroke-opacity:1; fill:none" points="
  523.139,2193.49 523.139,70.8661 
  "/>
<polyline clip-path="url(#clip0400)" style="stroke:#000000; stroke-width:4.8; stroke-opacity:1; fill:none" points="
  717.681,2193.49 717.681,2161.65 
  "/>
<polyline clip-path="url(#clip0400)" style="stroke:#000000; stroke-width:4.8; stroke-opacity:1; fill:none" points="
  523.139,1857.96 528.976,1857.96 
  "/>
<polyline clip-path="url(#clip0400)" style="stroke:#000000; stroke-width:4.8; stroke-opacity:1; fill:none" points="
  523.139,1491.18 528.976,1491.18 
  "/>
<polyline clip-path="url(#clip0400)" style="stroke:#000000; stroke-width:4.8; stroke-opacity:1; fill:none" points="
  523.139,1124.41 528.976,1124.41 
  "/>
<polyline clip-path="url(#clip0400)" style="stroke:#000000; stroke-width:4.8; stroke-opacity:1; fill:none" points="
  523.139,757.629 528.976,757.629 
  "/>
<polyline clip-path="url(#clip0400)" style="stroke:#000000; stroke-width:4.8; stroke-opacity:1; fill:none" points="
  523.139,390.852 528.976,390.852 
  "/>
<g clip-path="url(#clip0400)">
<text style="fill:#000000; fill-opacity:1; font-family:Arial,Helvetica Neue,Helvetica,sans-serif; font-size:125px; text-anchor:middle;" transform="rotate(0, 717.681, 2320.69)" x="717.681" y="2320.69">0</text>
</g>
<g clip-path="url(#clip0400)">
<text style="fill:#000000; fill-opacity:1; font-family:Arial,Helvetica Neue,Helvetica,sans-serif; font-size:125px; text-anchor:end;" transform="rotate(0, 487.139, 1903.46)" x="487.139" y="1903.46">800</text>
</g>
<g clip-path="url(#clip0400)">
<text style="fill:#000000; fill-opacity:1; font-family:Arial,Helvetica Neue,Helvetica,sans-serif; font-size:125px; text-anchor:end;" transform="rotate(0, 487.139, 1536.68)" x="487.139" y="1536.68">900</text>
</g>
<g clip-path="url(#clip0400)">
<text style="fill:#000000; fill-opacity:1; font-family:Arial,Helvetica Neue,Helvetica,sans-serif; font-size:125px; text-anchor:end;" transform="rotate(0, 487.139, 1169.91)" x="487.139" y="1169.91">1000</text>
</g>
<g clip-path="url(#clip0400)">
<text style="fill:#000000; fill-opacity:1; font-family:Arial,Helvetica Neue,Helvetica,sans-serif; font-size:125px; text-anchor:end;" transform="rotate(0, 487.139, 803.129)" x="487.139" y="803.129">1100</text>
</g>
<g clip-path="url(#clip0400)">
<text style="fill:#000000; fill-opacity:1; font-family:Arial,Helvetica Neue,Helvetica,sans-serif; font-size:125px; text-anchor:end;" transform="rotate(0, 487.139, 436.352)" x="487.139" y="436.352">1200</text>
</g>
<g clip-path="url(#clip0400)">
<text style="fill:#000000; fill-opacity:1; font-family:Arial,Helvetica Neue,Helvetica,sans-serif; font-size:125px; text-anchor:middle;" transform="rotate(-90, 147.298, 1132.18)" x="147.298" y="1132.18">Overall cost [a.u.]</text>
</g>
<path clip-path="url(#clip0402)" d="
M717.681 2133.41 L580.034 2133.41 L855.328 2133.41 L717.681 2133.41 L717.681 1415.86 L717.681 2133.41  Z
  " fill="#0000ff" fill-rule="evenodd" fill-opacity="0.5"/>
<polyline clip-path="url(#clip0402)" style="stroke:#000000; stroke-width:4.8; stroke-opacity:1; fill:none" points="
  717.681,2133.41 580.034,2133.41 855.328,2133.41 717.681,2133.41 717.681,1415.86 717.681,2133.41 
  "/>
<path clip-path="url(#clip0402)" d="
M534.151 1415.86 L534.151 1221.66 L901.211 1221.66 L901.211 1415.86 L534.151 1415.86 L534.151 1415.86  Z
  " fill="#0000ff" fill-rule="evenodd" fill-opacity="0.5"/>
<polyline clip-path="url(#clip0402)" style="stroke:#000000; stroke-width:4.8; stroke-opacity:1; fill:none" points="
  534.151,1415.86 534.151,1221.66 901.211,1221.66 901.211,1415.86 534.151,1415.86 
  "/>
<path clip-path="url(#clip0402)" d="
M534.151 892.719 L534.151 1221.66 L901.211 1221.66 L901.211 892.719 L534.151 892.719 L534.151 892.719  Z
  " fill="#0000ff" fill-rule="evenodd" fill-opacity="0.5"/>
<polyline clip-path="url(#clip0402)" style="stroke:#000000; stroke-width:4.8; stroke-opacity:1; fill:none" points="
  534.151,892.719 534.151,1221.66 901.211,1221.66 901.211,892.719 534.151,892.719 
  "/>
<path clip-path="url(#clip0402)" d="
M717.681 130.94 L580.034 130.94 L855.328 130.94 L717.681 130.94 L717.681 892.719 L717.681 130.94  Z
  " fill="#0000ff" fill-rule="evenodd" fill-opacity="0.5"/>
<polyline clip-path="url(#clip0402)" style="stroke:#000000; stroke-width:4.8; stroke-opacity:1; fill:none" points="
  717.681,130.94 580.034,130.94 855.328,130.94 717.681,130.94 717.681,892.719 717.681,130.94 
  "/>
<path clip-path="url(#clip0400)" d="
M1324.33 2193.49 L3529.13 2193.49 L3529.13 70.8661 L1324.33 70.8661  Z
  " fill="#ffffff" fill-rule="evenodd" fill-opacity="1"/>
<defs>
  <clipPath id="clip0403">
    <rect x="1324" y="70" width="2206" height="2124"/>
  </clipPath>
</defs>
<polyline clip-path="url(#clip0403)" style="stroke:#000000; stroke-width:2.4; stroke-opacity:0.1; fill:none" points="
  1553.13,2193.49 1553.13,70.8661 
  "/>
<polyline clip-path="url(#clip0403)" style="stroke:#000000; stroke-width:2.4; stroke-opacity:0.1; fill:none" points="
  2135.53,2193.49 2135.53,70.8661 
  "/>
<polyline clip-path="url(#clip0403)" style="stroke:#000000; stroke-width:2.4; stroke-opacity:0.1; fill:none" points="
  2717.93,2193.49 2717.93,70.8661 
  "/>
<polyline clip-path="url(#clip0403)" style="stroke:#000000; stroke-width:2.4; stroke-opacity:0.1; fill:none" points="
  3300.33,2193.49 3300.33,70.8661 
  "/>
<polyline clip-path="url(#clip0403)" style="stroke:#000000; stroke-width:2.4; stroke-opacity:0.1; fill:none" points="
  1324.33,1868.01 3529.13,1868.01 
  "/>
<polyline clip-path="url(#clip0403)" style="stroke:#000000; stroke-width:2.4; stroke-opacity:0.1; fill:none" points="
  1324.33,1330.38 3529.13,1330.38 
  "/>
<polyline clip-path="url(#clip0403)" style="stroke:#000000; stroke-width:2.4; stroke-opacity:0.1; fill:none" points="
  1324.33,792.756 3529.13,792.756 
  "/>
<polyline clip-path="url(#clip0403)" style="stroke:#000000; stroke-width:2.4; stroke-opacity:0.1; fill:none" points="
  1324.33,255.128 3529.13,255.128 
  "/>
<polyline clip-path="url(#clip0400)" style="stroke:#000000; stroke-width:4.8; stroke-opacity:1; fill:none" points="
  1324.33,2193.49 3529.13,2193.49 
  "/>
<polyline clip-path="url(#clip0400)" style="stroke:#000000; stroke-width:4.8; stroke-opacity:1; fill:none" points="
  1324.33,2193.49 1324.33,70.8661 
  "/>
<polyline clip-path="url(#clip0400)" style="stroke:#000000; stroke-width:4.8; stroke-opacity:1; fill:none" points="
  1553.13,2193.49 1553.13,2161.65 
  "/>
<polyline clip-path="url(#clip0400)" style="stroke:#000000; stroke-width:4.8; stroke-opacity:1; fill:none" points="
  2135.53,2193.49 2135.53,2161.65 
  "/>
<polyline clip-path="url(#clip0400)" style="stroke:#000000; stroke-width:4.8; stroke-opacity:1; fill:none" points="
  2717.93,2193.49 2717.93,2161.65 
  "/>
<polyline clip-path="url(#clip0400)" style="stroke:#000000; stroke-width:4.8; stroke-opacity:1; fill:none" points="
  3300.33,2193.49 3300.33,2161.65 
  "/>
<polyline clip-path="url(#clip0400)" style="stroke:#000000; stroke-width:4.8; stroke-opacity:1; fill:none" points="
  1324.33,1868.01 1357.4,1868.01 
  "/>
<polyline clip-path="url(#clip0400)" style="stroke:#000000; stroke-width:4.8; stroke-opacity:1; fill:none" points="
  1324.33,1330.38 1357.4,1330.38 
  "/>
<polyline clip-path="url(#clip0400)" style="stroke:#000000; stroke-width:4.8; stroke-opacity:1; fill:none" points="
  1324.33,792.756 1357.4,792.756 
  "/>
<polyline clip-path="url(#clip0400)" style="stroke:#000000; stroke-width:4.8; stroke-opacity:1; fill:none" points="
  1324.33,255.128 1357.4,255.128 
  "/>
<g clip-path="url(#clip0400)">
<text style="fill:#000000; fill-opacity:1; font-family:Arial,Helvetica Neue,Helvetica,sans-serif; font-size:125px; text-anchor:middle;" transform="rotate(0, 1553.13, 2320.69)" x="1553.13" y="2320.69">I</text>
</g>
<g clip-path="url(#clip0400)">
<text style="fill:#000000; fill-opacity:1; font-family:Arial,Helvetica Neue,Helvetica,sans-serif; font-size:125px; text-anchor:middle;" transform="rotate(0, 2135.53, 2320.69)" x="2135.53" y="2320.69">II</text>
</g>
<g clip-path="url(#clip0400)">
<text style="fill:#000000; fill-opacity:1; font-family:Arial,Helvetica Neue,Helvetica,sans-serif; font-size:125px; text-anchor:middle;" transform="rotate(0, 2717.93, 2320.69)" x="2717.93" y="2320.69">III</text>
</g>
<g clip-path="url(#clip0400)">
<text style="fill:#000000; fill-opacity:1; font-family:Arial,Helvetica Neue,Helvetica,sans-serif; font-size:125px; text-anchor:middle;" transform="rotate(0, 3300.33, 2320.69)" x="3300.33" y="2320.69">IV</text>
</g>
<g clip-path="url(#clip0400)">
<text style="fill:#000000; fill-opacity:1; font-family:Arial,Helvetica Neue,Helvetica,sans-serif; font-size:125px; text-anchor:end;" transform="rotate(0, 1288.33, 1913.51)" x="1288.33" y="1913.51">300</text>
</g>
<g clip-path="url(#clip0400)">
<text style="fill:#000000; fill-opacity:1; font-family:Arial,Helvetica Neue,Helvetica,sans-serif; font-size:125px; text-anchor:end;" transform="rotate(0, 1288.33, 1375.88)" x="1288.33" y="1375.88">350</text>
</g>
<g clip-path="url(#clip0400)">
<text style="fill:#000000; fill-opacity:1; font-family:Arial,Helvetica Neue,Helvetica,sans-serif; font-size:125px; text-anchor:end;" transform="rotate(0, 1288.33, 838.256)" x="1288.33" y="838.256">400</text>
</g>
<g clip-path="url(#clip0400)">
<text style="fill:#000000; fill-opacity:1; font-family:Arial,Helvetica Neue,Helvetica,sans-serif; font-size:125px; text-anchor:end;" transform="rotate(0, 1288.33, 300.628)" x="1288.33" y="300.628">450</text>
</g>
<path clip-path="url(#clip0403)" d="
M1553.13 1032.36 L1386.73 1032.36 L1719.53 1032.36 L1553.13 1032.36 L1553.13 712.411 L1553.13 1032.36  Z
  " fill="#ff0000" fill-rule="evenodd" fill-opacity="0.5"/>
<polyline clip-path="url(#clip0403)" style="stroke:#000000; stroke-width:4.8; stroke-opacity:1; fill:none" points="
  1553.13,1032.36 1386.73,1032.36 1719.53,1032.36 1553.13,1032.36 1553.13,712.411 1553.13,1032.36 
  "/>
<path clip-path="url(#clip0403)" d="
M1386.73 712.411 L1386.73 605.968 L1719.53 605.968 L1719.53 712.411 L1386.73 712.411 L1386.73 712.411  Z
  " fill="#ff0000" fill-rule="evenodd" fill-opacity="0.5"/>
<polyline clip-path="url(#clip0403)" style="stroke:#000000; stroke-width:4.8; stroke-opacity:1; fill:none" points="
  1386.73,712.411 1386.73,605.968 1719.53,605.968 1719.53,712.411 1386.73,712.411 
  "/>
<path clip-path="url(#clip0403)" d="
M1386.73 479.008 L1386.73 605.968 L1719.53 605.968 L1719.53 479.008 L1386.73 479.008 L1386.73 479.008  Z
  " fill="#ff0000" fill-rule="evenodd" fill-opacity="0.5"/>
<polyline clip-path="url(#clip0403)" style="stroke:#000000; stroke-width:4.8; stroke-opacity:1; fill:none" points="
  1386.73,479.008 1386.73,605.968 1719.53,605.968 1719.53,479.008 1386.73,479.008 
  "/>
<path clip-path="url(#clip0403)" d="
M1553.13 130.94 L1386.73 130.94 L1719.53 130.94 L1553.13 130.94 L1553.13 479.008 L1553.13 130.94  Z
  " fill="#ff0000" fill-rule="evenodd" fill-opacity="0.5"/>
<polyline clip-path="url(#clip0403)" style="stroke:#000000; stroke-width:4.8; stroke-opacity:1; fill:none" points="
  1553.13,130.94 1386.73,130.94 1719.53,130.94 1553.13,130.94 1553.13,479.008 1553.13,130.94 
  "/>
<path clip-path="url(#clip0403)" d="
M2135.53 2133.41 L1969.13 2133.41 L2301.93 2133.41 L2135.53 2133.41 L2135.53 1865.78 L2135.53 2133.41  Z
  " fill="#008000" fill-rule="evenodd" fill-opacity="0.5"/>
<polyline clip-path="url(#clip0403)" style="stroke:#000000; stroke-width:4.8; stroke-opacity:1; fill:none" points="
  2135.53,2133.41 1969.13,2133.41 2301.93,2133.41 2135.53,2133.41 2135.53,1865.78 2135.53,2133.41 
  "/>
<path clip-path="url(#clip0403)" d="
M1969.13 1865.78 L1969.13 1735.43 L2301.93 1735.43 L2301.93 1865.78 L1969.13 1865.78 L1969.13 1865.78  Z
  " fill="#008000" fill-rule="evenodd" fill-opacity="0.5"/>
<polyline clip-path="url(#clip0403)" style="stroke:#000000; stroke-width:4.8; stroke-opacity:1; fill:none" points="
  1969.13,1865.78 1969.13,1735.43 2301.93,1735.43 2301.93,1865.78 1969.13,1865.78 
  "/>
<path clip-path="url(#clip0403)" d="
M1969.13 1603.58 L1969.13 1735.43 L2301.93 1735.43 L2301.93 1603.58 L1969.13 1603.58 L1969.13 1603.58  Z
  " fill="#008000" fill-rule="evenodd" fill-opacity="0.5"/>
<polyline clip-path="url(#clip0403)" style="stroke:#000000; stroke-width:4.8; stroke-opacity:1; fill:none" points="
  1969.13,1603.58 1969.13,1735.43 2301.93,1735.43 2301.93,1603.58 1969.13,1603.58 
  "/>
<path clip-path="url(#clip0403)" d="
M2135.53 1352.62 L1969.13 1352.62 L2301.93 1352.62 L2135.53 1352.62 L2135.53 1603.58 L2135.53 1352.62  Z
  " fill="#008000" fill-rule="evenodd" fill-opacity="0.5"/>
<polyline clip-path="url(#clip0403)" style="stroke:#000000; stroke-width:4.8; stroke-opacity:1; fill:none" points="
  2135.53,1352.62 1969.13,1352.62 2301.93,1352.62 2135.53,1352.62 2135.53,1603.58 2135.53,1352.62 
  "/>
<path clip-path="url(#clip0403)" d="
M2717.93 2054.97 L2551.53 2054.97 L2884.33 2054.97 L2717.93 2054.97 L2717.93 1832.06 L2717.93 2054.97  Z
  " fill="#800080" fill-rule="evenodd" fill-opacity="0.5"/>
<polyline clip-path="url(#clip0403)" style="stroke:#000000; stroke-width:4.8; stroke-opacity:1; fill:none" points="
  2717.93,2054.97 2551.53,2054.97 2884.33,2054.97 2717.93,2054.97 2717.93,1832.06 2717.93,2054.97 
  "/>
<path clip-path="url(#clip0403)" d="
M2551.53 1832.06 L2551.53 1678.65 L2884.33 1678.65 L2884.33 1832.06 L2551.53 1832.06 L2551.53 1832.06  Z
  " fill="#800080" fill-rule="evenodd" fill-opacity="0.5"/>
<polyline clip-path="url(#clip0403)" style="stroke:#000000; stroke-width:4.8; stroke-opacity:1; fill:none" points="
  2551.53,1832.06 2551.53,1678.65 2884.33,1678.65 2884.33,1832.06 2551.53,1832.06 
  "/>
<path clip-path="url(#clip0403)" d="
M2551.53 1509.42 L2551.53 1678.65 L2884.33 1678.65 L2884.33 1509.42 L2551.53 1509.42 L2551.53 1509.42  Z
  " fill="#800080" fill-rule="evenodd" fill-opacity="0.5"/>
<polyline clip-path="url(#clip0403)" style="stroke:#000000; stroke-width:4.8; stroke-opacity:1; fill:none" points="
  2551.53,1509.42 2551.53,1678.65 2884.33,1678.65 2884.33,1509.42 2551.53,1509.42 
  "/>
<path clip-path="url(#clip0403)" d="
M2717.93 1112.61 L2551.53 1112.61 L2884.33 1112.61 L2717.93 1112.61 L2717.93 1509.42 L2717.93 1112.61  Z
  " fill="#800080" fill-rule="evenodd" fill-opacity="0.5"/>
<polyline clip-path="url(#clip0403)" style="stroke:#000000; stroke-width:4.8; stroke-opacity:1; fill:none" points="
  2717.93,1112.61 2551.53,1112.61 2884.33,1112.61 2717.93,1112.61 2717.93,1509.42 2717.93,1112.61 
  "/>
<circle clip-path="url(#clip0403)" cx="3300.33" cy="867.282" r="21" fill="#000000" fill-rule="evenodd" fill-opacity="1" stroke="#ffffff" stroke-opacity="1" stroke-width="4.8"/>
<circle clip-path="url(#clip0403)" cx="3300.33" cy="867.282" r="17" fill="#ffa500" fill-rule="evenodd" fill-opacity="1" stroke="#ffffff" stroke-opacity="1" stroke-width="4.8"/>
<circle clip-path="url(#clip0403)" cx="3300.33" cy="806.708" r="21" fill="#000000" fill-rule="evenodd" fill-opacity="1" stroke="#ffffff" stroke-opacity="1" stroke-width="4.8"/>
<circle clip-path="url(#clip0403)" cx="3300.33" cy="806.708" r="17" fill="#ffa500" fill-rule="evenodd" fill-opacity="1" stroke="#ffffff" stroke-opacity="1" stroke-width="4.8"/>
<path clip-path="url(#clip0403)" d="
M3300.33 1953.9 L3133.93 1953.9 L3466.73 1953.9 L3300.33 1953.9 L3300.33 1747.21 L3300.33 1953.9  Z
  " fill="#ffa500" fill-rule="evenodd" fill-opacity="0.5"/>
<polyline clip-path="url(#clip0403)" style="stroke:#000000; stroke-width:4.8; stroke-opacity:1; fill:none" points="
  3300.33,1953.9 3133.93,1953.9 3466.73,1953.9 3300.33,1953.9 3300.33,1747.21 3300.33,1953.9 
  "/>
<path clip-path="url(#clip0403)" d="
M3133.93 1747.21 L3133.93 1605.26 L3466.73 1605.26 L3466.73 1747.21 L3133.93 1747.21 L3133.93 1747.21  Z
  " fill="#ffa500" fill-rule="evenodd" fill-opacity="0.5"/>
<polyline clip-path="url(#clip0403)" style="stroke:#000000; stroke-width:4.8; stroke-opacity:1; fill:none" points="
  3133.93,1747.21 3133.93,1605.26 3466.73,1605.26 3466.73,1747.21 3133.93,1747.21 
  "/>
<path clip-path="url(#clip0403)" d="
M3133.93 1406.67 L3133.93 1605.26 L3466.73 1605.26 L3466.73 1406.67 L3133.93 1406.67 L3133.93 1406.67  Z
  " fill="#ffa500" fill-rule="evenodd" fill-opacity="0.5"/>
<polyline clip-path="url(#clip0403)" style="stroke:#000000; stroke-width:4.8; stroke-opacity:1; fill:none" points="
  3133.93,1406.67 3133.93,1605.26 3466.73,1605.26 3466.73,1406.67 3133.93,1406.67 
  "/>
<path clip-path="url(#clip0403)" d="
M3300.33 1004.54 L3133.93 1004.54 L3466.73 1004.54 L3300.33 1004.54 L3300.33 1406.67 L3300.33 1004.54  Z
  " fill="#ffa500" fill-rule="evenodd" fill-opacity="0.5"/>
<polyline clip-path="url(#clip0403)" style="stroke:#000000; stroke-width:4.8; stroke-opacity:1; fill:none" points="
  3300.33,1004.54 3133.93,1004.54 3466.73,1004.54 3300.33,1004.54 3300.33,1406.67 3300.33,1004.54 
  "/>
</svg>
