<?xml version="1.0" encoding="utf-8"?>
<svg xmlns="http://www.w3.org/2000/svg" xmlns:xlink="http://www.w3.org/1999/xlink" width="900" height="600" viewBox="0 0 3600 2400">
<defs>
  <clipPath id="clip0200">
    <rect x="0" y="0" width="3600" height="2400"/>
  </clipPath>
</defs>
<path clip-path="url(#clip0200)" d="
M0 2400 L3600 2400 L3600 0 L0 0  Z
  " fill="#ffffff" fill-rule="evenodd" fill-opacity="1"/>
<defs>
  <clipPath id="clip0201">
    <rect x="720" y="0" width="2521" height="2400"/>
  </clipPath>
</defs>
<path clip-path="url(#clip0200)" d="
M417.763 2193.49 L3529.13 2193.49 L3529.13 70.8661 L417.763 70.8661  Z
  " fill="#ffffff" fill-rule="evenodd" fill-opacity="1"/>
<defs>
  <clipPath id="clip0202">
    <rect x="417" y="70" width="3112" height="2124"/>
  </clipPath>
</defs>
<polyline clip-path="url(#clip0202)" style="stroke:#000000; stroke-width:2.4; stroke-opacity:0.1; fill:none" points="
  686.451,2193.49 686.451,70.8661 
  "/>
<polyline clip-path="url(#clip0202)" style="stroke:#000000; stroke-width:2.4; stroke-opacity:0.1; fill:none" points="
  1318.66,2193.49 1318.66,70.8661 
  "/>
<polyline clip-path="url(#clip0202)" style="stroke:#000000; stroke-width:2.4; stroke-opacity:0.1; fill:none" points="
  1950.87,2193.49 1950.87,70.8661 
  "/>
<polyline clip-path="url(#clip0202)" style="stroke:#000000; stroke-width:2.4; stroke-opacity:0.1; fill:none" points="
  2583.08,2193.49 2583.08,70.8661 
  "/>
<polyline clip-path="url(#clip0202)" style="stroke:#000000; stroke-width:2.4; stroke-opacity:0.1; fill:none" points="
  3215.29,2193.49 3215.29,70.8661 
  "/>
<polyline clip-path="url(#clip0202)" style="stroke:#000000; stroke-width:2.4; stroke-opacity:0.1; fill:none" points="
  417.763,2133.41 3529.13,2133.41 
  "/>
<polyline clip-path="url(#clip0202)" style="stroke:#000000; stroke-width:2.4; stroke-opacity:0.1; fill:none" points="
  417.763,1670.31 3529.13,1670.31 
  "/>
<polyline clip-path="url(#clip0202)" style="stroke:#000000; stroke-width:2.4; stroke-opacity:0.1; fill:none" points="
  417.763,1207.22 3529.13,1207.22 
  "/>
<polyline clip-path="url(#clip0202)" style="stroke:#000000; stroke-width:2.4; stroke-opacity:0.1; fill:none" points="
  417.763,744.119 3529.13,744.119 
  "/>
<polyline clip-path="url(#clip0202)" style="stroke:#000000; stroke-width:2.4; stroke-opacity:0.1; fill:none" points="
  417.763,281.021 3529.13,281.021 
  "/>
<polyline clip-path="url(#clip0200)" style="stroke:#000000; stroke-width:4.8; stroke-opacity:1; fill:none" points="
  417.763,2193.49 3529.13,2193.49 
  "/>
<polyline clip-path="url(#clip0200)" style="stroke:#000000; stroke-width:4.8; stroke-opacity:1; fill:none" points="
  417.763,2193.49 417.763,70.8661 
  "/>
<polyline clip-path="url(#clip0200)" style="stroke:#000000; stroke-width:4.8; stroke-opacity:1; fill:none" points="
  686.451,2193.49 686.451,2161.65 
  "/>
<polyline clip-path="url(#clip0200)" style="stroke:#000000; stroke-width:4.8; stroke-opacity:1; fill:none" points="
  1318.66,2193.49 1318.66,2161.65 
  "/>
<polyline clip-path="url(#clip0200)" style="stroke:#000000; stroke-width:4.8; stroke-opacity:1; fill:none" points="
  1950.87,2193.49 1950.87,2161.65 
  "/>
<polyline clip-path="url(#clip0200)" style="stroke:#000000; stroke-width:4.8; stroke-opacity:1; fill:none" points="
  2583.08,2193.49 2583.08,2161.65 
  "/>
<polyline clip-path="url(#clip0200)" style="stroke:#000000; stroke-width:4.8; stroke-opacity:1; fill:none" points="
  3215.29,2193.49 3215.29,2161.65 
  "/>
<polyline clip-path="url(#clip0200)" style="stroke:#000000; stroke-width:4.8; stroke-opacity:1; fill:none" points="
  417.763,2133.41 464.433,2133.41 
  "/>
<polyline clip-path="url(#clip0200)" style="stroke:#000000; stroke-width:4.8; stroke-opacity:1; fill:none" points="
  417.763,1670.31 464.433,1670.31 
  "/>
<polyline clip-path="url(#clip0200)" style="stroke:#000000; stroke-width:4.8; stroke-opacity:1; fill:none" points="
  417.763,1207.22 464.433,1207.22 
  "/>
<polyline clip-path="url(#clip0200)" style="stroke:#000000; stroke-width:4.8; stroke-opacity:1; fill:none" points="
  417.763,744.119 464.433,744.119 
  "/>
<polyline clip-path="url(#clip0200)" style="stroke:#000000; stroke-width:4.8; stroke-opacity:1; fill:none" points="
  417.763,281.021 464.433,281.021 
  "/>
<g clip-path="url(#clip0200)">
<text style="fill:#000000; fill-opacity:1; font-family:Arial,Helvetica Neue,Helvetica,sans-serif; font-size:125px; text-anchor:middle;" transform="rotate(0, 686.451, 2320.69)" x="686.451" y="2320.69">0</text>
</g>
<g clip-path="url(#clip0200)">
<text style="fill:#000000; fill-opacity:1; font-family:Arial,Helvetica Neue,Helvetica,sans-serif; font-size:125px; text-anchor:middle;" transform="rotate(0, 1318.66, 2320.69)" x="1318.66" y="2320.69">I</text>
</g>
<g clip-path="url(#clip0200)">
<text style="fill:#000000; fill-opacity:1; font-family:Arial,Helvetica Neue,Helvetica,sans-serif; font-size:125px; text-anchor:middle;" transform="rotate(0, 1950.87, 2320.69)" x="1950.87" y="2320.69">II</text>
</g>
<g clip-path="url(#clip0200)">
<text style="fill:#000000; fill-opacity:1; font-family:Arial,Helvetica Neue,Helvetica,sans-serif; font-size:125px; text-anchor:middle;" transform="rotate(0, 2583.08, 2320.69)" x="2583.08" y="2320.69">III</text>
</g>
<g clip-path="url(#clip0200)">
<text style="fill:#000000; fill-opacity:1; font-family:Arial,Helvetica Neue,Helvetica,sans-serif; font-size:125px; text-anchor:middle;" transform="rotate(0, 3215.29, 2320.69)" x="3215.29" y="2320.69">IV</text>
</g>
<g clip-path="url(#clip0200)">
<text style="fill:#000000; fill-opacity:1; font-family:Arial,Helvetica Neue,Helvetica,sans-serif; font-size:125px; text-anchor:end;" transform="rotate(0, 381.763, 2178.91)" x="381.763" y="2178.91">0.0</text>
</g>
<g clip-path="url(#clip0200)">
<text style="fill:#000000; fill-opacity:1; font-family:Arial,Helvetica Neue,Helvetica,sans-serif; font-size:125px; text-anchor:end;" transform="rotate(0, 381.763, 1715.81)" x="381.763" y="1715.81">0.2</text>
</g>
<g clip-path="url(#clip0200)">
<text style="fill:#000000; fill-opacity:1; font-family:Arial,Helvetica Neue,Helvetica,sans-serif; font-size:125px; text-anchor:end;" transform="rotate(0, 381.763, 1252.72)" x="381.763" y="1252.72">0.4</text>
</g>
<g clip-path="url(#clip0200)">
<text style="fill:#000000; fill-opacity:1; font-family:Arial,Helvetica Neue,Helvetica,sans-serif; font-size:125px; text-anchor:end;" transform="rotate(0, 381.763, 789.619)" x="381.763" y="789.619">0.6</text>
</g>
<g clip-path="url(#clip0200)">
<text style="fill:#000000; fill-opacity:1; font-family:Arial,Helvetica Neue,Helvetica,sans-serif; font-size:125px; text-anchor:end;" transform="rotate(0, 381.763, 326.521)" x="381.763" y="326.521">0.8</text>
</g>
<g clip-path="url(#clip0200)">
<text style="fill:#000000; fill-opacity:1; font-family:Arial,Helvetica Neue,Helvetica,sans-serif; font-size:125px; text-anchor:middle;" transform="rotate(-90, 147.298, 1132.18)" x="147.298" y="1132.18">Exceedance [s]</text>
</g>
<circle clip-path="url(#clip0202)" cx="686.451" cy="1520.69" r="21" fill="#000000" fill-rule="evenodd" fill-opacity="1" stroke="#ffffff" stroke-opacity="1" stroke-width="4.8"/>
<circle clip-path="url(#clip0202)" cx="686.451" cy="1520.69" r="17" fill="#0000ff" fill-rule="evenodd" fill-opacity="1" stroke="#ffffff" stroke-opacity="1" stroke-width="4.8"/>
<circle clip-path="url(#clip0202)" cx="686.451" cy="2076.66" r="21" fill="#000000" fill-rule="evenodd" fill-opacity="1" stroke="#ffffff" stroke-opacity="1" stroke-width="4.8"/>
<circle clip-path="url(#clip0202)" cx="686.451" cy="2076.66" r="17" fill="#0000ff" fill-rule="evenodd" fill-opacity="1" stroke="#ffffff" stroke-opacity="1" stroke-width="4.8"/>
<circle clip-path="url(#clip0202)" cx="686.451" cy="1003.13" r="21" fill="#000000" fill-rule="evenodd" fill-opacity="1" stroke="#ffffff" stroke-opacity="1" stroke-width="4.8"/>
<circle clip-path="url(#clip0202)" cx="686.451" cy="1003.13" r="17" fill="#0000ff" fill-rule="evenodd" fill-opacity="1" stroke="#ffffff" stroke-opacity="1" stroke-width="4.8"/>
<circle clip-path="url(#clip0202)" cx="686.451" cy="130.94" r="21" fill="#000000" fill-rule="evenodd" fill-opacity="1" stroke="#ffffff" stroke-opacity="1" stroke-width="4.8"/>
<circle clip-path="url(#clip0202)" cx="686.451" cy="130.94" r="17" fill="#0000ff" fill-rule="evenodd" fill-opacity="1" stroke="#ffffff" stroke-opacity="1" stroke-width="4.8"/>
<circle clip-path="url(#clip0202)" cx="686.451" cy="1037.89" r="21" fill="#000000" fill-rule="evenodd" fill-opacity="1" stroke="#ffffff" stroke-opacity="1" stroke-width="4.8"/>
<circle clip-path="url(#clip0202)" cx="686.451" cy="1037.89" r="17" fill="#0000ff" fill-rule="evenodd" fill-opacity="1" stroke="#ffffff" stroke-opacity="1" stroke-width="4.8"/>
<circle clip-path="url(#clip0202)" cx="686.451" cy="1875.67" r="21" fill="#000000" fill-rule="evenodd" fill-opacity="1" stroke="#ffffff" stroke-opacity="1" stroke-width="4.8"/>
<circle clip-path="url(#clip0202)" cx="686.451" cy="1875.67" r="17" fill="#0000ff" fill-rule="evenodd" fill-opacity="1" stroke="#ffffff" stroke-opacity="1" stroke-width="4.8"/>
<path clip-path="url(#clip0202)" d="
M686.451 2133.41 L573.557 2133.41 L799.346 2133.41 L686.451 2133.41 L686.451 2133.41 L686.451 2133.41  Z
  " fill="#0000ff" fill-rule="evenodd" fill-opacity="0.5"/>
<polyline clip-path="url(#clip0202)" style="stroke:#000000; stroke-width:4.8; stroke-opacity:1; fill:none" points="
  686.451,2133.41 573.557,2133.41 799.346,2133.41 686.451,2133.41 
  "/>
<path clip-path="url(#clip0202)" d="
M505.82 2133.41 L505.82 2133.41 L867.083 2133.41 L867.083 2133.41 L505.82 2133.41 L505.82 2133.41  Z
  " fill="#0000ff" fill-rule="evenodd" fill-opacity="0.5"/>
<polyline clip-path="url(#clip0202)" style="stroke:#000000; stroke-width:4.8; stroke-opacity:1; fill:none" points="
  505.82,2133.41 505.82,2133.41 867.083,2133.41 505.82,2133.41 
  "/>
<path clip-path="url(#clip0202)" d="
M505.82 2133.41 L505.82 2133.41 L867.083 2133.41 L867.083 2133.41 L505.82 2133.41 L505.82 2133.41  Z
  " fill="#0000ff" fill-rule="evenodd" fill-opacity="0.5"/>
<polyline clip-path="url(#clip0202)" style="stroke:#000000; stroke-width:4.8; stroke-opacity:1; fill:none" points="
  505.82,2133.41 505.82,2133.41 867.083,2133.41 505.82,2133.41 
  "/>
<path clip-path="url(#clip0202)" d="
M686.451 2133.41 L573.557 2133.41 L799.346 2133.41 L686.451 2133.41 L686.451 2133.41 L686.451 2133.41  Z
  " fill="#0000ff" fill-rule="evenodd" fill-opacity="0.5"/>
<polyline clip-path="url(#clip0202)" style="stroke:#000000; stroke-width:4.8; stroke-opacity:1; fill:none" points="
  686.451,2133.41 573.557,2133.41 799.346,2133.41 686.451,2133.41 
  "/>
<circle clip-path="url(#clip0202)" cx="1318.66" cy="2133.32" r="21" fill="#000000" fill-rule="evenodd" fill-opacity="1" stroke="#ffffff" stroke-opacity="1" stroke-width="4.8"/>
<circle clip-path="url(#clip0202)" cx="1318.66" cy="2133.32" r="17" fill="#ff0000" fill-rule="evenodd" fill-opacity="1" stroke="#ffffff" stroke-opacity="1" stroke-width="4.8"/>
<circle clip-path="url(#clip0202)" cx="1318.66" cy="2133.39" r="21" fill="#000000" fill-rule="evenodd" fill-opacity="1" stroke="#ffffff" stroke-opacity="1" stroke-width="4.8"/>
<circle clip-path="url(#clip0202)" cx="1318.66" cy="2133.39" r="17" fill="#ff0000" fill-rule="evenodd" fill-opacity="1" stroke="#ffffff" stroke-opacity="1" stroke-width="4.8"/>
<circle clip-path="url(#clip0202)" cx="1318.66" cy="2132.96" r="21" fill="#000000" fill-rule="evenodd" fill-opacity="1" stroke="#ffffff" stroke-opacity="1" stroke-width="4.8"/>
<circle clip-path="url(#clip0202)" cx="1318.66" cy="2132.96" r="17" fill="#ff0000" fill-rule="evenodd" fill-opacity="1" stroke="#ffffff" stroke-opacity="1" stroke-width="4.8"/>
<circle clip-path="url(#clip0202)" cx="1318.66" cy="2133.37" r="21" fill="#000000" fill-rule="evenodd" fill-opacity="1" stroke="#ffffff" stroke-opacity="1" stroke-width="4.8"/>
<circle clip-path="url(#clip0202)" cx="1318.66" cy="2133.37" r="17" fill="#ff0000" fill-rule="evenodd" fill-opacity="1" stroke="#ffffff" stroke-opacity="1" stroke-width="4.8"/>
<circle clip-path="url(#clip0202)" cx="1318.66" cy="2133.05" r="21" fill="#000000" fill-rule="evenodd" fill-opacity="1" stroke="#ffffff" stroke-opacity="1" stroke-width="4.8"/>
<circle clip-path="url(#clip0202)" cx="1318.66" cy="2133.05" r="17" fill="#ff0000" fill-rule="evenodd" fill-opacity="1" stroke="#ffffff" stroke-opacity="1" stroke-width="4.8"/>
<circle clip-path="url(#clip0202)" cx="1318.66" cy="2133.39" r="21" fill="#000000" fill-rule="evenodd" fill-opacity="1" stroke="#ffffff" stroke-opacity="1" stroke-width="4.8"/>
<circle clip-path="url(#clip0202)" cx="1318.66" cy="2133.39" r="17" fill="#ff0000" fill-rule="evenodd" fill-opacity="1" stroke="#ffffff" stroke-opacity="1" stroke-width="4.8"/>
<path clip-path="url(#clip0202)" d="
M1318.66 2133.41 L1138.03 2133.41 L1499.29 2133.41 L1318.66 2133.41 L1318.66 2133.41 L1318.66 2133.41  Z
  " fill="#ff0000" fill-rule="evenodd" fill-opacity="0.5"/>
<polyline clip-path="url(#clip0202)" style="stroke:#000000; stroke-width:4.8; stroke-opacity:1; fill:none" points="
  1318.66,2133.41 1138.03,2133.41 1499.29,2133.41 1318.66,2133.41 
  "/>
<path clip-path="url(#clip0202)" d="
M1138.03 2133.41 L1138.03 2133.41 L1499.29 2133.41 L1499.29 2133.41 L1138.03 2133.41 L1138.03 2133.41  Z
  " fill="#ff0000" fill-rule="evenodd" fill-opacity="0.5"/>
<polyline clip-path="url(#clip0202)" style="stroke:#000000; stroke-width:4.8; stroke-opacity:1; fill:none" points="
  1138.03,2133.41 1138.03,2133.41 1499.29,2133.41 1138.03,2133.41 
  "/>
<path clip-path="url(#clip0202)" d="
M1138.03 2133.41 L1138.03 2133.41 L1499.29 2133.41 L1499.29 2133.41 L1138.03 2133.41 L1138.03 2133.41  Z
  " fill="#ff0000" fill-rule="evenodd" fill-opacity="0.5"/>
<polyline clip-path="url(#clip0202)" style="stroke:#000000; stroke-width:4.8; stroke-opacity:1; fill:none" points="
  1138.03,2133.41 1138.03,2133.41 1499.29,2133.41 1138.03,2133.41 
  "/>
<path clip-path="url(#clip0202)" d="
M1318.66 2133.41 L1138.03 2133.41 L1499.29 2133.41 L1318.66 2133.41 L1318.66 2133.41 L1318.66 2133.41  Z
  " fill="#ff0000" fill-rule="evenodd" fill-opacity="0.5"/>
<polyline clip-path="url(#clip0202)" style="stroke:#000000; stroke-width:4.8; stroke-opacity:1; fill:none" points="
  1318.66,2133.41 1138.03,2133.41 1499.29,2133.41 1318.66,2133.41 
  "/>
<circle clip-path="url(#clip0202)" cx="1950.87" cy="2132.89" r="21" fill="#000000" fill-rule="evenodd" fill-opacity="1" stroke="#ffffff" stroke-opacity="1" stroke-width="4.8"/>
<circle clip-path="url(#clip0202)" cx="1950.87" cy="2132.89" r="17" fill="#008000" fill-rule="evenodd" fill-opacity="1" stroke="#ffffff" stroke-opacity="1" stroke-width="4.8"/>
<circle clip-path="url(#clip0202)" cx="1950.87" cy="2132.51" r="21" fill="#000000" fill-rule="evenodd" fill-opacity="1" stroke="#ffffff" stroke-opacity="1" stroke-width="4.8"/>
<circle clip-path="url(#clip0202)" cx="1950.87" cy="2132.51" r="17" fill="#008000" fill-rule="evenodd" fill-opacity="1" stroke="#ffffff" stroke-opacity="1" stroke-width="4.8"/>
<circle clip-path="url(#clip0202)" cx="1950.87" cy="2132.96" r="21" fill="#000000" fill-rule="evenodd" fill-opacity="1" stroke="#ffffff" stroke-opacity="1" stroke-width="4.8"/>
<circle clip-path="url(#clip0202)" cx="1950.87" cy="2132.96" r="17" fill="#008000" fill-rule="evenodd" fill-opacity="1" stroke="#ffffff" stroke-opacity="1" stroke-width="4.8"/>
<circle clip-path="url(#clip0202)" cx="1950.87" cy="2132.98" r="21" fill="#000000" fill-rule="evenodd" fill-opacity="1" stroke="#ffffff" stroke-opacity="1" stroke-width="4.8"/>
<circle clip-path="url(#clip0202)" cx="1950.87" cy="2132.98" r="17" fill="#008000" fill-rule="evenodd" fill-opacity="1" stroke="#ffffff" stroke-opacity="1" stroke-width="4.8"/>
<circle clip-path="url(#clip0202)" cx="1950.87" cy="2133.03" r="21" fill="#000000" fill-rule="evenodd" fill-opacity="1" stroke="#ffffff" stroke-opacity="1" stroke-width="4.8"/>
<circle clip-path="url(#clip0202)" cx="1950.87" cy="2133.03" r="17" fill="#008000" fill-rule="evenodd" fill-opacity="1" stroke="#ffffff" stroke-opacity="1" stroke-width="4.8"/>
<circle clip-path="url(#clip0202)" cx="1950.87" cy="2127.91" r="21" fill="#000000" fill-rule="evenodd" fill-opacity="1" stroke="#ffffff" stroke-opacity="1" stroke-width="4.8"/>
<circle clip-path="url(#clip0202)" cx="1950.87" cy="2127.91" r="17" fill="#008000" fill-rule="evenodd" fill-opacity="1" stroke="#ffffff" stroke-opacity="1" stroke-width="4.8"/>
<circle clip-path="url(#clip0202)" cx="1950.87" cy="2132.66" r="21" fill="#000000" fill-rule="evenodd" fill-opacity="1" stroke="#ffffff" stroke-opacity="1" stroke-width="4.8"/>
<circle clip-path="url(#clip0202)" cx="1950.87" cy="2132.66" r="17" fill="#008000" fill-rule="evenodd" fill-opacity="1" stroke="#ffffff" stroke-opacity="1" stroke-width="4.8"/>
<circle clip-path="url(#clip0202)" cx="1950.87" cy="2132.73" r="21" fill="#000000" fill-rule="evenodd" fill-opacity="1" stroke="#ffffff" stroke-opacity="1" stroke-width="4.8"/>
<circle clip-path="url(#clip0202)" cx="1950.87" cy="2132.73" r="17" fill="#008000" fill-rule="evenodd" fill-opacity="1" stroke="#ffffff" stroke-opacity="1" stroke-width="4.8"/>
<circle clip-path="url(#clip0202)" cx="1950.87" cy="2132.73" r="21" fill="#000000" fill-rule="evenodd" fill-opacity="1" stroke="#ffffff" stroke-opacity="1" stroke-width="4.8"/>
<circle clip-path="url(#clip0202)" cx="1950.87" cy="2132.73" r="17" fill="#008000" fill-rule="evenodd" fill-opacity="1" stroke="#ffffff" stroke-opacity="1" stroke-width="4.8"/>
<circle clip-path="url(#clip0202)" cx="1950.87" cy="2133.02" r="21" fill="#000000" fill-rule="evenodd" fill-opacity="1" stroke="#ffffff" stroke-opacity="1" stroke-width="4.8"/>
<circle clip-path="url(#clip0202)" cx="1950.87" cy="2133.02" r="17" fill="#008000" fill-rule="evenodd" fill-opacity="1" stroke="#ffffff" stroke-opacity="1" stroke-width="4.8"/>
<circle clip-path="url(#clip0202)" cx="1950.87" cy="2132.86" r="21" fill="#000000" fill-rule="evenodd" fill-opacity="1" stroke="#ffffff" stroke-opacity="1" stroke-width="4.8"/>
<circle clip-path="url(#clip0202)" cx="1950.87" cy="2132.86" r="17" fill="#008000" fill-rule="evenodd" fill-opacity="1" stroke="#ffffff" stroke-opacity="1" stroke-width="4.8"/>
<circle clip-path="url(#clip0202)" cx="1950.87" cy="2132.95" r="21" fill="#000000" fill-rule="evenodd" fill-opacity="1" stroke="#ffffff" stroke-opacity="1" stroke-width="4.8"/>
<circle clip-path="url(#clip0202)" cx="1950.87" cy="2132.95" r="17" fill="#008000" fill-rule="evenodd" fill-opacity="1" stroke="#ffffff" stroke-opacity="1" stroke-width="4.8"/>
<circle clip-path="url(#clip0202)" cx="1950.87" cy="2133.05" r="21" fill="#000000" fill-rule="evenodd" fill-opacity="1" stroke="#ffffff" stroke-opacity="1" stroke-width="4.8"/>
<circle clip-path="url(#clip0202)" cx="1950.87" cy="2133.05" r="17" fill="#008000" fill-rule="evenodd" fill-opacity="1" stroke="#ffffff" stroke-opacity="1" stroke-width="4.8"/>
<path clip-path="url(#clip0202)" d="
M1950.87 2133.41 L1770.24 2133.41 L2131.5 2133.41 L1950.87 2133.41 L1950.87 2133.41 L1950.87 2133.41  Z
  " fill="#008000" fill-rule="evenodd" fill-opacity="0.5"/>
<polyline clip-path="url(#clip0202)" style="stroke:#000000; stroke-width:4.8; stroke-opacity:1; fill:none" points="
  1950.87,2133.41 1770.24,2133.41 2131.5,2133.41 1950.87,2133.41 
  "/>
<path clip-path="url(#clip0202)" d="
M1770.24 2133.41 L1770.24 2133.41 L2131.5 2133.41 L2131.5 2133.41 L1770.24 2133.41 L1770.24 2133.41  Z
  " fill="#008000" fill-rule="evenodd" fill-opacity="0.5"/>
<polyline clip-path="url(#clip0202)" style="stroke:#000000; stroke-width:4.8; stroke-opacity:1; fill:none" points="
  1770.24,2133.41 1770.24,2133.41 2131.5,2133.41 1770.24,2133.41 
  "/>
<path clip-path="url(#clip0202)" d="
M1770.24 2133.29 L1770.24 2133.41 L2131.5 2133.41 L2131.5 2133.29 L1770.24 2133.29 L1770.24 2133.29  Z
  " fill="#008000" fill-rule="evenodd" fill-opacity="0.5"/>
<polyline clip-path="url(#clip0202)" style="stroke:#000000; stroke-width:4.8; stroke-opacity:1; fill:none" points="
  1770.24,2133.29 1770.24,2133.41 2131.5,2133.41 2131.5,2133.29 1770.24,2133.29 
  "/>
<path clip-path="url(#clip0202)" d="
M1950.87 2133.12 L1770.24 2133.12 L2131.5 2133.12 L1950.87 2133.12 L1950.87 2133.29 L1950.87 2133.12  Z
  " fill="#008000" fill-rule="evenodd" fill-opacity="0.5"/>
<polyline clip-path="url(#clip0202)" style="stroke:#000000; stroke-width:4.8; stroke-opacity:1; fill:none" points="
  1950.87,2133.12 1770.24,2133.12 2131.5,2133.12 1950.87,2133.12 1950.87,2133.29 1950.87,2133.12 
  "/>
<circle clip-path="url(#clip0202)" cx="2583.08" cy="2131.99" r="21" fill="#000000" fill-rule="evenodd" fill-opacity="1" stroke="#ffffff" stroke-opacity="1" stroke-width="4.8"/>
<circle clip-path="url(#clip0202)" cx="2583.08" cy="2131.99" r="17" fill="#800080" fill-rule="evenodd" fill-opacity="1" stroke="#ffffff" stroke-opacity="1" stroke-width="4.8"/>
<circle clip-path="url(#clip0202)" cx="2583.08" cy="2132.27" r="21" fill="#000000" fill-rule="evenodd" fill-opacity="1" stroke="#ffffff" stroke-opacity="1" stroke-width="4.8"/>
<circle clip-path="url(#clip0202)" cx="2583.08" cy="2132.27" r="17" fill="#800080" fill-rule="evenodd" fill-opacity="1" stroke="#ffffff" stroke-opacity="1" stroke-width="4.8"/>
<circle clip-path="url(#clip0202)" cx="2583.08" cy="2131.65" r="21" fill="#000000" fill-rule="evenodd" fill-opacity="1" stroke="#ffffff" stroke-opacity="1" stroke-width="4.8"/>
<circle clip-path="url(#clip0202)" cx="2583.08" cy="2131.65" r="17" fill="#800080" fill-rule="evenodd" fill-opacity="1" stroke="#ffffff" stroke-opacity="1" stroke-width="4.8"/>
<circle clip-path="url(#clip0202)" cx="2583.08" cy="2132.2" r="21" fill="#000000" fill-rule="evenodd" fill-opacity="1" stroke="#ffffff" stroke-opacity="1" stroke-width="4.8"/>
<circle clip-path="url(#clip0202)" cx="2583.08" cy="2132.2" r="17" fill="#800080" fill-rule="evenodd" fill-opacity="1" stroke="#ffffff" stroke-opacity="1" stroke-width="4.8"/>
<circle clip-path="url(#clip0202)" cx="2583.08" cy="2127.32" r="21" fill="#000000" fill-rule="evenodd" fill-opacity="1" stroke="#ffffff" stroke-opacity="1" stroke-width="4.8"/>
<circle clip-path="url(#clip0202)" cx="2583.08" cy="2127.32" r="17" fill="#800080" fill-rule="evenodd" fill-opacity="1" stroke="#ffffff" stroke-opacity="1" stroke-width="4.8"/>
<circle clip-path="url(#clip0202)" cx="2583.08" cy="2131.84" r="21" fill="#000000" fill-rule="evenodd" fill-opacity="1" stroke="#ffffff" stroke-opacity="1" stroke-width="4.8"/>
<circle clip-path="url(#clip0202)" cx="2583.08" cy="2131.84" r="17" fill="#800080" fill-rule="evenodd" fill-opacity="1" stroke="#ffffff" stroke-opacity="1" stroke-width="4.8"/>
<circle clip-path="url(#clip0202)" cx="2583.08" cy="2132.16" r="21" fill="#000000" fill-rule="evenodd" fill-opacity="1" stroke="#ffffff" stroke-opacity="1" stroke-width="4.8"/>
<circle clip-path="url(#clip0202)" cx="2583.08" cy="2132.16" r="17" fill="#800080" fill-rule="evenodd" fill-opacity="1" stroke="#ffffff" stroke-opacity="1" stroke-width="4.8"/>
<circle clip-path="url(#clip0202)" cx="2583.08" cy="2131.84" r="21" fill="#000000" fill-rule="evenodd" fill-opacity="1" stroke="#ffffff" stroke-opacity="1" stroke-width="4.8"/>
<circle clip-path="url(#clip0202)" cx="2583.08" cy="2131.84" r="17" fill="#800080" fill-rule="evenodd" fill-opacity="1" stroke="#ffffff" stroke-opacity="1" stroke-width="4.8"/>
<circle clip-path="url(#clip0202)" cx="2583.08" cy="2132.3" r="21" fill="#000000" fill-rule="evenodd" fill-opacity="1" stroke="#ffffff" stroke-opacity="1" stroke-width="4.8"/>
<circle clip-path="url(#clip0202)" cx="2583.08" cy="2132.3" r="17" fill="#800080" fill-rule="evenodd" fill-opacity="1" stroke="#ffffff" stroke-opacity="1" stroke-width="4.8"/>
<path clip-path="url(#clip0202)" d="
M2583.08 2133.41 L2402.45 2133.41 L2763.71 2133.41 L2583.08 2133.41 L2583.08 2133.41 L2583.08 2133.41  Z
  " fill="#800080" fill-rule="evenodd" fill-opacity="0.5"/>
<polyline clip-path="url(#clip0202)" style="stroke:#000000; stroke-width:4.8; stroke-opacity:1; fill:none" points="
  2583.08,2133.41 2402.45,2133.41 2763.71,2133.41 2583.08,2133.41 
  "/>
<path clip-path="url(#clip0202)" d="
M2402.45 2133.41 L2402.45 2133.38 L2763.71 2133.38 L2763.71 2133.41 L2402.45 2133.41 L2402.45 2133.41  Z
  " fill="#800080" fill-rule="evenodd" fill-opacity="0.5"/>
<polyline clip-path="url(#clip0202)" style="stroke:#000000; stroke-width:4.8; stroke-opacity:1; fill:none" points="
  2402.45,2133.41 2402.45,2133.38 2763.71,2133.38 2763.71,2133.41 2402.45,2133.41 
  "/>
<path clip-path="url(#clip0202)" d="
M2402.45 2133.02 L2402.45 2133.38 L2763.71 2133.38 L2763.71 2133.02 L2402.45 2133.02 L2402.45 2133.02  Z
  " fill="#800080" fill-rule="evenodd" fill-opacity="0.5"/>
<polyline clip-path="url(#clip0202)" style="stroke:#000000; stroke-width:4.8; stroke-opacity:1; fill:none" points="
  2402.45,2133.02 2402.45,2133.38 2763.71,2133.38 2763.71,2133.02 2402.45,2133.02 
  "/>
<path clip-path="url(#clip0202)" d="
M2583.08 2132.45 L2402.45 2132.45 L2763.71 2132.45 L2583.08 2132.45 L2583.08 2133.02 L2583.08 2132.45  Z
  " fill="#800080" fill-rule="evenodd" fill-opacity="0.5"/>
<polyline clip-path="url(#clip0202)" style="stroke:#000000; stroke-width:4.8; stroke-opacity:1; fill:none" points="
  2583.08,2132.45 2402.45,2132.45 2763.71,2132.45 2583.08,2132.45 2583.08,2133.02 2583.08,2132.45 
  "/>
<circle clip-path="url(#clip0202)" cx="3215.29" cy="2119.01" r="21" fill="#000000" fill-rule="evenodd" fill-opacity="1" stroke="#ffffff" stroke-opacity="1" stroke-width="4.8"/>
<circle clip-path="url(#clip0202)" cx="3215.29" cy="2119.01" r="17" fill="#ffa500" fill-rule="evenodd" fill-opacity="1" stroke="#ffffff" stroke-opacity="1" stroke-width="4.8"/>
<circle clip-path="url(#clip0202)" cx="3215.29" cy="2084.39" r="21" fill="#000000" fill-rule="evenodd" fill-opacity="1" stroke="#ffffff" stroke-opacity="1" stroke-width="4.8"/>
<circle clip-path="url(#clip0202)" cx="3215.29" cy="2084.39" r="17" fill="#ffa500" fill-rule="evenodd" fill-opacity="1" stroke="#ffffff" stroke-opacity="1" stroke-width="4.8"/>
<circle clip-path="url(#clip0202)" cx="3215.29" cy="2122.27" r="21" fill="#000000" fill-rule="evenodd" fill-opacity="1" stroke="#ffffff" stroke-opacity="1" stroke-width="4.8"/>
<circle clip-path="url(#clip0202)" cx="3215.29" cy="2122.27" r="17" fill="#ffa500" fill-rule="evenodd" fill-opacity="1" stroke="#ffffff" stroke-opacity="1" stroke-width="4.8"/>
<circle clip-path="url(#clip0202)" cx="3215.29" cy="2113.38" r="21" fill="#000000" fill-rule="evenodd" fill-opacity="1" stroke="#ffffff" stroke-opacity="1" stroke-width="4.8"/>
<circle clip-path="url(#clip0202)" cx="3215.29" cy="2113.38" r="17" fill="#ffa500" fill-rule="evenodd" fill-opacity="1" stroke="#ffffff" stroke-opacity="1" stroke-width="4.8"/>
<circle clip-path="url(#clip0202)" cx="3215.29" cy="2123.03" r="21" fill="#000000" fill-rule="evenodd" fill-opacity="1" stroke="#ffffff" stroke-opacity="1" stroke-width="4.8"/>
<circle clip-path="url(#clip0202)" cx="3215.29" cy="2123.03" r="17" fill="#ffa500" fill-rule="evenodd" fill-opacity="1" stroke="#ffffff" stroke-opacity="1" stroke-width="4.8"/>
<circle clip-path="url(#clip0202)" cx="3215.29" cy="1964.33" r="21" fill="#000000" fill-rule="evenodd" fill-opacity="1" stroke="#ffffff" stroke-opacity="1" stroke-width="4.8"/>
<circle clip-path="url(#clip0202)" cx="3215.29" cy="1964.33" r="17" fill="#ffa500" fill-rule="evenodd" fill-opacity="1" stroke="#ffffff" stroke-opacity="1" stroke-width="4.8"/>
<circle clip-path="url(#clip0202)" cx="3215.29" cy="2111.32" r="21" fill="#000000" fill-rule="evenodd" fill-opacity="1" stroke="#ffffff" stroke-opacity="1" stroke-width="4.8"/>
<circle clip-path="url(#clip0202)" cx="3215.29" cy="2111.32" r="17" fill="#ffa500" fill-rule="evenodd" fill-opacity="1" stroke="#ffffff" stroke-opacity="1" stroke-width="4.8"/>
<circle clip-path="url(#clip0202)" cx="3215.29" cy="2121.74" r="21" fill="#000000" fill-rule="evenodd" fill-opacity="1" stroke="#ffffff" stroke-opacity="1" stroke-width="4.8"/>
<circle clip-path="url(#clip0202)" cx="3215.29" cy="2121.74" r="17" fill="#ffa500" fill-rule="evenodd" fill-opacity="1" stroke="#ffffff" stroke-opacity="1" stroke-width="4.8"/>
<circle clip-path="url(#clip0202)" cx="3215.29" cy="2110.31" r="21" fill="#000000" fill-rule="evenodd" fill-opacity="1" stroke="#ffffff" stroke-opacity="1" stroke-width="4.8"/>
<circle clip-path="url(#clip0202)" cx="3215.29" cy="2110.31" r="17" fill="#ffa500" fill-rule="evenodd" fill-opacity="1" stroke="#ffffff" stroke-opacity="1" stroke-width="4.8"/>
<circle clip-path="url(#clip0202)" cx="3215.29" cy="2121.17" r="21" fill="#000000" fill-rule="evenodd" fill-opacity="1" stroke="#ffffff" stroke-opacity="1" stroke-width="4.8"/>
<circle clip-path="url(#clip0202)" cx="3215.29" cy="2121.17" r="17" fill="#ffa500" fill-rule="evenodd" fill-opacity="1" stroke="#ffffff" stroke-opacity="1" stroke-width="4.8"/>
<circle clip-path="url(#clip0202)" cx="3215.29" cy="2113.78" r="21" fill="#000000" fill-rule="evenodd" fill-opacity="1" stroke="#ffffff" stroke-opacity="1" stroke-width="4.8"/>
<circle clip-path="url(#clip0202)" cx="3215.29" cy="2113.78" r="17" fill="#ffa500" fill-rule="evenodd" fill-opacity="1" stroke="#ffffff" stroke-opacity="1" stroke-width="4.8"/>
<circle clip-path="url(#clip0202)" cx="3215.29" cy="2081.32" r="21" fill="#000000" fill-rule="evenodd" fill-opacity="1" stroke="#ffffff" stroke-opacity="1" stroke-width="4.8"/>
<circle clip-path="url(#clip0202)" cx="3215.29" cy="2081.32" r="17" fill="#ffa500" fill-rule="evenodd" fill-opacity="1" stroke="#ffffff" stroke-opacity="1" stroke-width="4.8"/>
<path clip-path="url(#clip0202)" d="
M3215.29 2133.41 L2989.5 2133.41 L3441.08 2133.41 L3215.29 2133.41 L3215.29 2133.41 L3215.29 2133.41  Z
  " fill="#ffa500" fill-rule="evenodd" fill-opacity="0.5"/>
<polyline clip-path="url(#clip0202)" style="stroke:#000000; stroke-width:4.8; stroke-opacity:1; fill:none" points="
  3215.29,2133.41 2989.5,2133.41 3441.08,2133.41 3215.29,2133.41 
  "/>
<path clip-path="url(#clip0202)" d="
M3034.66 2133.41 L3034.66 2132.66 L3395.92 2132.66 L3395.92 2133.41 L3034.66 2133.41 L3034.66 2133.41  Z
  " fill="#ffa500" fill-rule="evenodd" fill-opacity="0.5"/>
<polyline clip-path="url(#clip0202)" style="stroke:#000000; stroke-width:4.8; stroke-opacity:1; fill:none" points="
  3034.66,2133.41 3034.66,2132.66 3395.92,2132.66 3395.92,2133.41 3034.66,2133.41 
  "/>
<path clip-path="url(#clip0202)" d="
M3034.66 2129.9 L3034.66 2132.66 L3395.92 2132.66 L3395.92 2129.9 L3034.66 2129.9 L3034.66 2129.9  Z
  " fill="#ffa500" fill-rule="evenodd" fill-opacity="0.5"/>
<polyline clip-path="url(#clip0202)" style="stroke:#000000; stroke-width:4.8; stroke-opacity:1; fill:none" points="
  3034.66,2129.9 3034.66,2132.66 3395.92,2132.66 3395.92,2129.9 3034.66,2129.9 
  "/>
<path clip-path="url(#clip0202)" d="
M3215.29 2126.64 L2989.5 2126.64 L3441.08 2126.64 L3215.29 2126.64 L3215.29 2129.9 L3215.29 2126.64  Z
  " fill="#ffa500" fill-rule="evenodd" fill-opacity="0.5"/>
<polyline clip-path="url(#clip0202)" style="stroke:#000000; stroke-width:4.8; stroke-opacity:1; fill:none" points="
  3215.29,2126.64 2989.5,2126.64 3441.08,2126.64 3215.29,2126.64 3215.29,2129.9 3215.29,2126.64 
  "/>
</svg>
