<?xml version="1.0" encoding="utf-8"?>
<svg xmlns="http://www.w3.org/2000/svg" xmlns:xlink="http://www.w3.org/1999/xlink" width="900" height="600" viewBox="0 0 3600 2400">
<defs>
  <clipPath id="clip9800">
    <rect x="0" y="0" width="3600" height="2400"/>
  </clipPath>
</defs>
<path clip-path="url(#clip9800)" d="
M0 2400 L3600 2400 L3600 0 L0 0  Z
  " fill="#ffffff" fill-rule="evenodd" fill-opacity="1"/>
<defs>
  <clipPath id="clip9801">
    <rect x="720" y="0" width="2521" height="2400"/>
  </clipPath>
</defs>
<path clip-path="url(#clip9800)" d="
M417.763 2193.49 L3529.13 2193.49 L3529.13 70.8661 L417.763 70.8661  Z
  " fill="#ffffff" fill-rule="evenodd" fill-opacity="1"/>
<defs>
  <clipPath id="clip9802">
    <rect x="417" y="70" width="3112" height="2124"/>
  </clipPath>
</defs>
<polyline clip-path="url(#clip9802)" style="stroke:#000000; stroke-width:2.4; stroke-opacity:0.1; fill:none" points="
  686.451,2193.49 686.451,70.8661 
  "/>
<polyline clip-path="url(#clip9802)" style="stroke:#000000; stroke-width:2.4; stroke-opacity:0.1; fill:none" points="
  1318.66,2193.49 1318.66,70.8661 
  "/>
<polyline clip-path="url(#clip9802)" style="stroke:#000000; stroke-width:2.4; stroke-opacity:0.1; fill:none" points="
  1950.87,2193.49 1950.87,70.8661 
  "/>
<polyline clip-path="url(#clip9802)" style="stroke:#000000; stroke-width:2.4; stroke-opacity:0.1; fill:none" points="
  2583.08,2193.49 2583.08,70.8661 
  "/>
<polyline clip-path="url(#clip9802)" style="stroke:#000000; stroke-width:2.4; stroke-opacity:0.1; fill:none" points="
  3215.29,2193.49 3215.29,70.8661 
  "/>
<polyline clip-path="url(#clip9802)" style="stroke:#000000; stroke-width:2.4; stroke-opacity:0.1; fill:none" points="
  417.763,2133.41 3529.13,2133.41 
  "/>
<polyline clip-path="url(#clip9802)" style="stroke:#000000; stroke-width:2.4; stroke-opacity:0.1; fill:none" points="
  417.763,1654.34 3529.13,1654.34 
  "/>
<polyline clip-path="url(#clip9802)" style="stroke:#000000; stroke-width:2.4; stroke-opacity:0.1; fill:none" points="
  417.763,1175.27 3529.13,1175.27 
  "/>
<polyline clip-path="url(#clip9802)" style="stroke:#000000; stroke-width:2.4; stroke-opacity:0.1; fill:none" points="
  417.763,696.204 3529.13,696.204 
  "/>
<polyline clip-path="url(#clip9802)" style="stroke:#000000; stroke-width:2.4; stroke-opacity:0.1; fill:none" points="
  417.763,217.134 3529.13,217.134 
  "/>
<polyline clip-path="url(#clip9800)" style="stroke:#000000; stroke-width:4.8; stroke-opacity:1; fill:none" points="
  417.763,2193.49 3529.13,2193.49 
  "/>
<polyline clip-path="url(#clip9800)" style="stroke:#000000; stroke-width:4.8; stroke-opacity:1; fill:none" points="
  417.763,2193.49 417.763,70.8661 
  "/>
<polyline clip-path="url(#clip9800)" style="stroke:#000000; stroke-width:4.8; stroke-opacity:1; fill:none" points="
  686.451,2193.49 686.451,2161.65 
  "/>
<polyline clip-path="url(#clip9800)" style="stroke:#000000; stroke-width:4.8; stroke-opacity:1; fill:none" points="
  1318.66,2193.49 1318.66,2161.65 
  "/>
<polyline clip-path="url(#clip9800)" style="stroke:#000000; stroke-width:4.8; stroke-opacity:1; fill:none" points="
  1950.87,2193.49 1950.87,2161.65 
  "/>
<polyline clip-path="url(#clip9800)" style="stroke:#000000; stroke-width:4.8; stroke-opacity:1; fill:none" points="
  2583.08,2193.49 2583.08,2161.65 
  "/>
<polyline clip-path="url(#clip9800)" style="stroke:#000000; stroke-width:4.8; stroke-opacity:1; fill:none" points="
  3215.29,2193.49 3215.29,2161.65 
  "/>
<polyline clip-path="url(#clip9800)" style="stroke:#000000; stroke-width:4.8; stroke-opacity:1; fill:none" points="
  417.763,2133.41 464.433,2133.41 
  "/>
<polyline clip-path="url(#clip9800)" style="stroke:#000000; stroke-width:4.8; stroke-opacity:1; fill:none" points="
  417.763,1654.34 464.433,1654.34 
  "/>
<polyline clip-path="url(#clip9800)" style="stroke:#000000; stroke-width:4.8; stroke-opacity:1; fill:none" points="
  417.763,1175.27 464.433,1175.27 
  "/>
<polyline clip-path="url(#clip9800)" style="stroke:#000000; stroke-width:4.8; stroke-opacity:1; fill:none" points="
  417.763,696.204 464.433,696.204 
  "/>
<polyline clip-path="url(#clip9800)" style="stroke:#000000; stroke-width:4.8; stroke-opacity:1; fill:none" points="
  417.763,217.134 464.433,217.134 
  "/>
<g clip-path="url(#clip9800)">
<text style="fill:#000000; fill-opacity:1; font-family:Arial,Helvetica Neue,Helvetica,sans-serif; font-size:125px; text-anchor:middle;" transform="rotate(0, 686.451, 2320.69)" x="686.451" y="2320.69">0</text>
</g>
<g clip-path="url(#clip9800)">
<text style="fill:#000000; fill-opacity:1; font-family:Arial,Helvetica Neue,Helvetica,sans-serif; font-size:125px; text-anchor:middle;" transform="rotate(0, 1318.66, 2320.69)" x="1318.66" y="2320.69">I</text>
</g>
<g clip-path="url(#clip9800)">
<text style="fill:#000000; fill-opacity:1; font-family:Arial,Helvetica Neue,Helvetica,sans-serif; font-size:125px; text-anchor:middle;" transform="rotate(0, 1950.87, 2320.69)" x="1950.87" y="2320.69">II</text>
</g>
<g clip-path="url(#clip9800)">
<text style="fill:#000000; fill-opacity:1; font-family:Arial,Helvetica Neue,Helvetica,sans-serif; font-size:125px; text-anchor:middle;" transform="rotate(0, 2583.08, 2320.69)" x="2583.08" y="2320.69">III</text>
</g>
<g clip-path="url(#clip9800)">
<text style="fill:#000000; fill-opacity:1; font-family:Arial,Helvetica Neue,Helvetica,sans-serif; font-size:125px; text-anchor:middle;" transform="rotate(0, 3215.29, 2320.69)" x="3215.29" y="2320.69">IV</text>
</g>
<g clip-path="url(#clip9800)">
<text style="fill:#000000; fill-opacity:1; font-family:Arial,Helvetica Neue,Helvetica,sans-serif; font-size:125px; text-anchor:end;" transform="rotate(0, 381.763, 2178.91)" x="381.763" y="2178.91">0.0</text>
</g>
<g clip-path="url(#clip9800)">
<text style="fill:#000000; fill-opacity:1; font-family:Arial,Helvetica Neue,Helvetica,sans-serif; font-size:125px; text-anchor:end;" transform="rotate(0, 381.763, 1699.84)" x="381.763" y="1699.84">0.1</text>
</g>
<g clip-path="url(#clip9800)">
<text style="fill:#000000; fill-opacity:1; font-family:Arial,Helvetica Neue,Helvetica,sans-serif; font-size:125px; text-anchor:end;" transform="rotate(0, 381.763, 1220.77)" x="381.763" y="1220.77">0.2</text>
</g>
<g clip-path="url(#clip9800)">
<text style="fill:#000000; fill-opacity:1; font-family:Arial,Helvetica Neue,Helvetica,sans-serif; font-size:125px; text-anchor:end;" transform="rotate(0, 381.763, 741.704)" x="381.763" y="741.704">0.3</text>
</g>
<g clip-path="url(#clip9800)">
<text style="fill:#000000; fill-opacity:1; font-family:Arial,Helvetica Neue,Helvetica,sans-serif; font-size:125px; text-anchor:end;" transform="rotate(0, 381.763, 262.634)" x="381.763" y="262.634">0.4</text>
</g>
<g clip-path="url(#clip9800)">
<text style="fill:#000000; fill-opacity:1; font-family:Arial,Helvetica Neue,Helvetica,sans-serif; font-size:125px; text-anchor:middle;" transform="rotate(-90, 147.298, 1132.18)" x="147.298" y="1132.18">Exceedance [s]</text>
</g>
<circle clip-path="url(#clip9802)" cx="686.451" cy="1737.04" r="21" fill="#000000" fill-rule="evenodd" fill-opacity="1" stroke="#ffffff" stroke-opacity="1" stroke-width="4.8"/>
<circle clip-path="url(#clip9802)" cx="686.451" cy="1737.04" r="17" fill="#0000ff" fill-rule="evenodd" fill-opacity="1" stroke="#ffffff" stroke-opacity="1" stroke-width="4.8"/>
<circle clip-path="url(#clip9802)" cx="686.451" cy="1668.22" r="21" fill="#000000" fill-rule="evenodd" fill-opacity="1" stroke="#ffffff" stroke-opacity="1" stroke-width="4.8"/>
<circle clip-path="url(#clip9802)" cx="686.451" cy="1668.22" r="17" fill="#0000ff" fill-rule="evenodd" fill-opacity="1" stroke="#ffffff" stroke-opacity="1" stroke-width="4.8"/>
<circle clip-path="url(#clip9802)" cx="686.451" cy="1704.73" r="21" fill="#000000" fill-rule="evenodd" fill-opacity="1" stroke="#ffffff" stroke-opacity="1" stroke-width="4.8"/>
<circle clip-path="url(#clip9802)" cx="686.451" cy="1704.73" r="17" fill="#0000ff" fill-rule="evenodd" fill-opacity="1" stroke="#ffffff" stroke-opacity="1" stroke-width="4.8"/>
<circle clip-path="url(#clip9802)" cx="686.451" cy="1734.2" r="21" fill="#000000" fill-rule="evenodd" fill-opacity="1" stroke="#ffffff" stroke-opacity="1" stroke-width="4.8"/>
<circle clip-path="url(#clip9802)" cx="686.451" cy="1734.2" r="17" fill="#0000ff" fill-rule="evenodd" fill-opacity="1" stroke="#ffffff" stroke-opacity="1" stroke-width="4.8"/>
<circle clip-path="url(#clip9802)" cx="686.451" cy="130.94" r="21" fill="#000000" fill-rule="evenodd" fill-opacity="1" stroke="#ffffff" stroke-opacity="1" stroke-width="4.8"/>
<circle clip-path="url(#clip9802)" cx="686.451" cy="130.94" r="17" fill="#0000ff" fill-rule="evenodd" fill-opacity="1" stroke="#ffffff" stroke-opacity="1" stroke-width="4.8"/>
<circle clip-path="url(#clip9802)" cx="686.451" cy="177.83" r="21" fill="#000000" fill-rule="evenodd" fill-opacity="1" stroke="#ffffff" stroke-opacity="1" stroke-width="4.8"/>
<circle clip-path="url(#clip9802)" cx="686.451" cy="177.83" r="17" fill="#0000ff" fill-rule="evenodd" fill-opacity="1" stroke="#ffffff" stroke-opacity="1" stroke-width="4.8"/>
<circle clip-path="url(#clip9802)" cx="686.451" cy="1968.06" r="21" fill="#000000" fill-rule="evenodd" fill-opacity="1" stroke="#ffffff" stroke-opacity="1" stroke-width="4.8"/>
<circle clip-path="url(#clip9802)" cx="686.451" cy="1968.06" r="17" fill="#0000ff" fill-rule="evenodd" fill-opacity="1" stroke="#ffffff" stroke-opacity="1" stroke-width="4.8"/>
<circle clip-path="url(#clip9802)" cx="686.451" cy="1836.82" r="21" fill="#000000" fill-rule="evenodd" fill-opacity="1" stroke="#ffffff" stroke-opacity="1" stroke-width="4.8"/>
<circle clip-path="url(#clip9802)" cx="686.451" cy="1836.82" r="17" fill="#0000ff" fill-rule="evenodd" fill-opacity="1" stroke="#ffffff" stroke-opacity="1" stroke-width="4.8"/>
<path clip-path="url(#clip9802)" d="
M686.451 2133.41 L573.557 2133.41 L799.346 2133.41 L686.451 2133.41 L686.451 2133.41 L686.451 2133.41  Z
  " fill="#0000ff" fill-rule="evenodd" fill-opacity="0.5"/>
<polyline clip-path="url(#clip9802)" style="stroke:#000000; stroke-width:4.8; stroke-opacity:1; fill:none" points="
  686.451,2133.41 573.557,2133.41 799.346,2133.41 686.451,2133.41 
  "/>
<path clip-path="url(#clip9802)" d="
M505.82 2133.41 L505.82 2133.41 L867.083 2133.41 L867.083 2133.41 L505.82 2133.41 L505.82 2133.41  Z
  " fill="#0000ff" fill-rule="evenodd" fill-opacity="0.5"/>
<polyline clip-path="url(#clip9802)" style="stroke:#000000; stroke-width:4.8; stroke-opacity:1; fill:none" points="
  505.82,2133.41 505.82,2133.41 867.083,2133.41 505.82,2133.41 
  "/>
<path clip-path="url(#clip9802)" d="
M505.82 2133.41 L505.82 2133.41 L867.083 2133.41 L867.083 2133.41 L505.82 2133.41 L505.82 2133.41  Z
  " fill="#0000ff" fill-rule="evenodd" fill-opacity="0.5"/>
<polyline clip-path="url(#clip9802)" style="stroke:#000000; stroke-width:4.8; stroke-opacity:1; fill:none" points="
  505.82,2133.41 505.82,2133.41 867.083,2133.41 505.82,2133.41 
  "/>
<path clip-path="url(#clip9802)" d="
M686.451 2133.41 L573.557 2133.41 L799.346 2133.41 L686.451 2133.41 L686.451 2133.41 L686.451 2133.41  Z
  " fill="#0000ff" fill-rule="evenodd" fill-opacity="0.5"/>
<polyline clip-path="url(#clip9802)" style="stroke:#000000; stroke-width:4.8; stroke-opacity:1; fill:none" points="
  686.451,2133.41 573.557,2133.41 799.346,2133.41 686.451,2133.41 
  "/>
<circle clip-path="url(#clip9802)" cx="1318.66" cy="2133.23" r="21" fill="#000000" fill-rule="evenodd" fill-opacity="1" stroke="#ffffff" stroke-opacity="1" stroke-width="4.8"/>
<circle clip-path="url(#clip9802)" cx="1318.66" cy="2133.23" r="17" fill="#ff0000" fill-rule="evenodd" fill-opacity="1" stroke="#ffffff" stroke-opacity="1" stroke-width="4.8"/>
<circle clip-path="url(#clip9802)" cx="1318.66" cy="2132.61" r="21" fill="#000000" fill-rule="evenodd" fill-opacity="1" stroke="#ffffff" stroke-opacity="1" stroke-width="4.8"/>
<circle clip-path="url(#clip9802)" cx="1318.66" cy="2132.61" r="17" fill="#ff0000" fill-rule="evenodd" fill-opacity="1" stroke="#ffffff" stroke-opacity="1" stroke-width="4.8"/>
<circle clip-path="url(#clip9802)" cx="1318.66" cy="2133.27" r="21" fill="#000000" fill-rule="evenodd" fill-opacity="1" stroke="#ffffff" stroke-opacity="1" stroke-width="4.8"/>
<circle clip-path="url(#clip9802)" cx="1318.66" cy="2133.27" r="17" fill="#ff0000" fill-rule="evenodd" fill-opacity="1" stroke="#ffffff" stroke-opacity="1" stroke-width="4.8"/>
<path clip-path="url(#clip9802)" d="
M1318.66 2133.41 L1138.03 2133.41 L1499.29 2133.41 L1318.66 2133.41 L1318.66 2133.41 L1318.66 2133.41  Z
  " fill="#ff0000" fill-rule="evenodd" fill-opacity="0.5"/>
<polyline clip-path="url(#clip9802)" style="stroke:#000000; stroke-width:4.8; stroke-opacity:1; fill:none" points="
  1318.66,2133.41 1138.03,2133.41 1499.29,2133.41 1318.66,2133.41 
  "/>
<path clip-path="url(#clip9802)" d="
M1138.03 2133.41 L1138.03 2133.41 L1499.29 2133.41 L1499.29 2133.41 L1138.03 2133.41 L1138.03 2133.41  Z
  " fill="#ff0000" fill-rule="evenodd" fill-opacity="0.5"/>
<polyline clip-path="url(#clip9802)" style="stroke:#000000; stroke-width:4.8; stroke-opacity:1; fill:none" points="
  1138.03,2133.41 1138.03,2133.41 1499.29,2133.41 1138.03,2133.41 
  "/>
<path clip-path="url(#clip9802)" d="
M1138.03 2133.41 L1138.03 2133.41 L1499.29 2133.41 L1499.29 2133.41 L1138.03 2133.41 L1138.03 2133.41  Z
  " fill="#ff0000" fill-rule="evenodd" fill-opacity="0.5"/>
<polyline clip-path="url(#clip9802)" style="stroke:#000000; stroke-width:4.8; stroke-opacity:1; fill:none" points="
  1138.03,2133.41 1138.03,2133.41 1499.29,2133.41 1138.03,2133.41 
  "/>
<path clip-path="url(#clip9802)" d="
M1318.66 2133.41 L1138.03 2133.41 L1499.29 2133.41 L1318.66 2133.41 L1318.66 2133.41 L1318.66 2133.41  Z
  " fill="#ff0000" fill-rule="evenodd" fill-opacity="0.5"/>
<polyline clip-path="url(#clip9802)" style="stroke:#000000; stroke-width:4.8; stroke-opacity:1; fill:none" points="
  1318.66,2133.41 1138.03,2133.41 1499.29,2133.41 1318.66,2133.41 
  "/>
<circle clip-path="url(#clip9802)" cx="1950.87" cy="2133.3" r="21" fill="#000000" fill-rule="evenodd" fill-opacity="1" stroke="#ffffff" stroke-opacity="1" stroke-width="4.8"/>
<circle clip-path="url(#clip9802)" cx="1950.87" cy="2133.3" r="17" fill="#008000" fill-rule="evenodd" fill-opacity="1" stroke="#ffffff" stroke-opacity="1" stroke-width="4.8"/>
<circle clip-path="url(#clip9802)" cx="1950.87" cy="2133.2" r="21" fill="#000000" fill-rule="evenodd" fill-opacity="1" stroke="#ffffff" stroke-opacity="1" stroke-width="4.8"/>
<circle clip-path="url(#clip9802)" cx="1950.87" cy="2133.2" r="17" fill="#008000" fill-rule="evenodd" fill-opacity="1" stroke="#ffffff" stroke-opacity="1" stroke-width="4.8"/>
<circle clip-path="url(#clip9802)" cx="1950.87" cy="2132.54" r="21" fill="#000000" fill-rule="evenodd" fill-opacity="1" stroke="#ffffff" stroke-opacity="1" stroke-width="4.8"/>
<circle clip-path="url(#clip9802)" cx="1950.87" cy="2132.54" r="17" fill="#008000" fill-rule="evenodd" fill-opacity="1" stroke="#ffffff" stroke-opacity="1" stroke-width="4.8"/>
<circle clip-path="url(#clip9802)" cx="1950.87" cy="2131.9" r="21" fill="#000000" fill-rule="evenodd" fill-opacity="1" stroke="#ffffff" stroke-opacity="1" stroke-width="4.8"/>
<circle clip-path="url(#clip9802)" cx="1950.87" cy="2131.9" r="17" fill="#008000" fill-rule="evenodd" fill-opacity="1" stroke="#ffffff" stroke-opacity="1" stroke-width="4.8"/>
<circle clip-path="url(#clip9802)" cx="1950.87" cy="2132.23" r="21" fill="#000000" fill-rule="evenodd" fill-opacity="1" stroke="#ffffff" stroke-opacity="1" stroke-width="4.8"/>
<circle clip-path="url(#clip9802)" cx="1950.87" cy="2132.23" r="17" fill="#008000" fill-rule="evenodd" fill-opacity="1" stroke="#ffffff" stroke-opacity="1" stroke-width="4.8"/>
<circle clip-path="url(#clip9802)" cx="1950.87" cy="2133.23" r="21" fill="#000000" fill-rule="evenodd" fill-opacity="1" stroke="#ffffff" stroke-opacity="1" stroke-width="4.8"/>
<circle clip-path="url(#clip9802)" cx="1950.87" cy="2133.23" r="17" fill="#008000" fill-rule="evenodd" fill-opacity="1" stroke="#ffffff" stroke-opacity="1" stroke-width="4.8"/>
<circle clip-path="url(#clip9802)" cx="1950.87" cy="2132.53" r="21" fill="#000000" fill-rule="evenodd" fill-opacity="1" stroke="#ffffff" stroke-opacity="1" stroke-width="4.8"/>
<circle clip-path="url(#clip9802)" cx="1950.87" cy="2132.53" r="17" fill="#008000" fill-rule="evenodd" fill-opacity="1" stroke="#ffffff" stroke-opacity="1" stroke-width="4.8"/>
<circle clip-path="url(#clip9802)" cx="1950.87" cy="2131.65" r="21" fill="#000000" fill-rule="evenodd" fill-opacity="1" stroke="#ffffff" stroke-opacity="1" stroke-width="4.8"/>
<circle clip-path="url(#clip9802)" cx="1950.87" cy="2131.65" r="17" fill="#008000" fill-rule="evenodd" fill-opacity="1" stroke="#ffffff" stroke-opacity="1" stroke-width="4.8"/>
<circle clip-path="url(#clip9802)" cx="1950.87" cy="2133.12" r="21" fill="#000000" fill-rule="evenodd" fill-opacity="1" stroke="#ffffff" stroke-opacity="1" stroke-width="4.8"/>
<circle clip-path="url(#clip9802)" cx="1950.87" cy="2133.12" r="17" fill="#008000" fill-rule="evenodd" fill-opacity="1" stroke="#ffffff" stroke-opacity="1" stroke-width="4.8"/>
<circle clip-path="url(#clip9802)" cx="1950.87" cy="2133.24" r="21" fill="#000000" fill-rule="evenodd" fill-opacity="1" stroke="#ffffff" stroke-opacity="1" stroke-width="4.8"/>
<circle clip-path="url(#clip9802)" cx="1950.87" cy="2133.24" r="17" fill="#008000" fill-rule="evenodd" fill-opacity="1" stroke="#ffffff" stroke-opacity="1" stroke-width="4.8"/>
<circle clip-path="url(#clip9802)" cx="1950.87" cy="2133.27" r="21" fill="#000000" fill-rule="evenodd" fill-opacity="1" stroke="#ffffff" stroke-opacity="1" stroke-width="4.8"/>
<circle clip-path="url(#clip9802)" cx="1950.87" cy="2133.27" r="17" fill="#008000" fill-rule="evenodd" fill-opacity="1" stroke="#ffffff" stroke-opacity="1" stroke-width="4.8"/>
<circle clip-path="url(#clip9802)" cx="1950.87" cy="2132.7" r="21" fill="#000000" fill-rule="evenodd" fill-opacity="1" stroke="#ffffff" stroke-opacity="1" stroke-width="4.8"/>
<circle clip-path="url(#clip9802)" cx="1950.87" cy="2132.7" r="17" fill="#008000" fill-rule="evenodd" fill-opacity="1" stroke="#ffffff" stroke-opacity="1" stroke-width="4.8"/>
<circle clip-path="url(#clip9802)" cx="1950.87" cy="2133.21" r="21" fill="#000000" fill-rule="evenodd" fill-opacity="1" stroke="#ffffff" stroke-opacity="1" stroke-width="4.8"/>
<circle clip-path="url(#clip9802)" cx="1950.87" cy="2133.21" r="17" fill="#008000" fill-rule="evenodd" fill-opacity="1" stroke="#ffffff" stroke-opacity="1" stroke-width="4.8"/>
<circle clip-path="url(#clip9802)" cx="1950.87" cy="2132.63" r="21" fill="#000000" fill-rule="evenodd" fill-opacity="1" stroke="#ffffff" stroke-opacity="1" stroke-width="4.8"/>
<circle clip-path="url(#clip9802)" cx="1950.87" cy="2132.63" r="17" fill="#008000" fill-rule="evenodd" fill-opacity="1" stroke="#ffffff" stroke-opacity="1" stroke-width="4.8"/>
<circle clip-path="url(#clip9802)" cx="1950.87" cy="2132.52" r="21" fill="#000000" fill-rule="evenodd" fill-opacity="1" stroke="#ffffff" stroke-opacity="1" stroke-width="4.8"/>
<circle clip-path="url(#clip9802)" cx="1950.87" cy="2132.52" r="17" fill="#008000" fill-rule="evenodd" fill-opacity="1" stroke="#ffffff" stroke-opacity="1" stroke-width="4.8"/>
<circle clip-path="url(#clip9802)" cx="1950.87" cy="2128.86" r="21" fill="#000000" fill-rule="evenodd" fill-opacity="1" stroke="#ffffff" stroke-opacity="1" stroke-width="4.8"/>
<circle clip-path="url(#clip9802)" cx="1950.87" cy="2128.86" r="17" fill="#008000" fill-rule="evenodd" fill-opacity="1" stroke="#ffffff" stroke-opacity="1" stroke-width="4.8"/>
<circle clip-path="url(#clip9802)" cx="1950.87" cy="2132.71" r="21" fill="#000000" fill-rule="evenodd" fill-opacity="1" stroke="#ffffff" stroke-opacity="1" stroke-width="4.8"/>
<circle clip-path="url(#clip9802)" cx="1950.87" cy="2132.71" r="17" fill="#008000" fill-rule="evenodd" fill-opacity="1" stroke="#ffffff" stroke-opacity="1" stroke-width="4.8"/>
<circle clip-path="url(#clip9802)" cx="1950.87" cy="2133.37" r="21" fill="#000000" fill-rule="evenodd" fill-opacity="1" stroke="#ffffff" stroke-opacity="1" stroke-width="4.8"/>
<circle clip-path="url(#clip9802)" cx="1950.87" cy="2133.37" r="17" fill="#008000" fill-rule="evenodd" fill-opacity="1" stroke="#ffffff" stroke-opacity="1" stroke-width="4.8"/>
<circle clip-path="url(#clip9802)" cx="1950.87" cy="2133.08" r="21" fill="#000000" fill-rule="evenodd" fill-opacity="1" stroke="#ffffff" stroke-opacity="1" stroke-width="4.8"/>
<circle clip-path="url(#clip9802)" cx="1950.87" cy="2133.08" r="17" fill="#008000" fill-rule="evenodd" fill-opacity="1" stroke="#ffffff" stroke-opacity="1" stroke-width="4.8"/>
<circle clip-path="url(#clip9802)" cx="1950.87" cy="2131.96" r="21" fill="#000000" fill-rule="evenodd" fill-opacity="1" stroke="#ffffff" stroke-opacity="1" stroke-width="4.8"/>
<circle clip-path="url(#clip9802)" cx="1950.87" cy="2131.96" r="17" fill="#008000" fill-rule="evenodd" fill-opacity="1" stroke="#ffffff" stroke-opacity="1" stroke-width="4.8"/>
<circle clip-path="url(#clip9802)" cx="1950.87" cy="2132.14" r="21" fill="#000000" fill-rule="evenodd" fill-opacity="1" stroke="#ffffff" stroke-opacity="1" stroke-width="4.8"/>
<circle clip-path="url(#clip9802)" cx="1950.87" cy="2132.14" r="17" fill="#008000" fill-rule="evenodd" fill-opacity="1" stroke="#ffffff" stroke-opacity="1" stroke-width="4.8"/>
<path clip-path="url(#clip9802)" d="
M1950.87 2133.41 L1770.24 2133.41 L2131.5 2133.41 L1950.87 2133.41 L1950.87 2133.41 L1950.87 2133.41  Z
  " fill="#008000" fill-rule="evenodd" fill-opacity="0.5"/>
<polyline clip-path="url(#clip9802)" style="stroke:#000000; stroke-width:4.8; stroke-opacity:1; fill:none" points="
  1950.87,2133.41 1770.24,2133.41 2131.5,2133.41 1950.87,2133.41 
  "/>
<path clip-path="url(#clip9802)" d="
M1770.24 2133.41 L1770.24 2133.41 L2131.5 2133.41 L2131.5 2133.41 L1770.24 2133.41 L1770.24 2133.41  Z
  " fill="#008000" fill-rule="evenodd" fill-opacity="0.5"/>
<polyline clip-path="url(#clip9802)" style="stroke:#000000; stroke-width:4.8; stroke-opacity:1; fill:none" points="
  1770.24,2133.41 1770.24,2133.41 2131.5,2133.41 1770.24,2133.41 
  "/>
<path clip-path="url(#clip9802)" d="
M1770.24 2133.41 L1770.24 2133.41 L2131.5 2133.41 L2131.5 2133.41 L1770.24 2133.41 L1770.24 2133.41  Z
  " fill="#008000" fill-rule="evenodd" fill-opacity="0.5"/>
<polyline clip-path="url(#clip9802)" style="stroke:#000000; stroke-width:4.8; stroke-opacity:1; fill:none" points="
  1770.24,2133.41 1770.24,2133.41 2131.5,2133.41 1770.24,2133.41 
  "/>
<path clip-path="url(#clip9802)" d="
M1950.87 2133.41 L1770.24 2133.41 L2131.5 2133.41 L1950.87 2133.41 L1950.87 2133.41 L1950.87 2133.41  Z
  " fill="#008000" fill-rule="evenodd" fill-opacity="0.5"/>
<polyline clip-path="url(#clip9802)" style="stroke:#000000; stroke-width:4.8; stroke-opacity:1; fill:none" points="
  1950.87,2133.41 1770.24,2133.41 2131.5,2133.41 1950.87,2133.41 
  "/>
<circle clip-path="url(#clip9802)" cx="2583.08" cy="2132.36" r="21" fill="#000000" fill-rule="evenodd" fill-opacity="1" stroke="#ffffff" stroke-opacity="1" stroke-width="4.8"/>
<circle clip-path="url(#clip9802)" cx="2583.08" cy="2132.36" r="17" fill="#800080" fill-rule="evenodd" fill-opacity="1" stroke="#ffffff" stroke-opacity="1" stroke-width="4.8"/>
<circle clip-path="url(#clip9802)" cx="2583.08" cy="2129.3" r="21" fill="#000000" fill-rule="evenodd" fill-opacity="1" stroke="#ffffff" stroke-opacity="1" stroke-width="4.8"/>
<circle clip-path="url(#clip9802)" cx="2583.08" cy="2129.3" r="17" fill="#800080" fill-rule="evenodd" fill-opacity="1" stroke="#ffffff" stroke-opacity="1" stroke-width="4.8"/>
<circle clip-path="url(#clip9802)" cx="2583.08" cy="2132.25" r="21" fill="#000000" fill-rule="evenodd" fill-opacity="1" stroke="#ffffff" stroke-opacity="1" stroke-width="4.8"/>
<circle clip-path="url(#clip9802)" cx="2583.08" cy="2132.25" r="17" fill="#800080" fill-rule="evenodd" fill-opacity="1" stroke="#ffffff" stroke-opacity="1" stroke-width="4.8"/>
<circle clip-path="url(#clip9802)" cx="2583.08" cy="2131.6" r="21" fill="#000000" fill-rule="evenodd" fill-opacity="1" stroke="#ffffff" stroke-opacity="1" stroke-width="4.8"/>
<circle clip-path="url(#clip9802)" cx="2583.08" cy="2131.6" r="17" fill="#800080" fill-rule="evenodd" fill-opacity="1" stroke="#ffffff" stroke-opacity="1" stroke-width="4.8"/>
<circle clip-path="url(#clip9802)" cx="2583.08" cy="2130.99" r="21" fill="#000000" fill-rule="evenodd" fill-opacity="1" stroke="#ffffff" stroke-opacity="1" stroke-width="4.8"/>
<circle clip-path="url(#clip9802)" cx="2583.08" cy="2130.99" r="17" fill="#800080" fill-rule="evenodd" fill-opacity="1" stroke="#ffffff" stroke-opacity="1" stroke-width="4.8"/>
<circle clip-path="url(#clip9802)" cx="2583.08" cy="2130.01" r="21" fill="#000000" fill-rule="evenodd" fill-opacity="1" stroke="#ffffff" stroke-opacity="1" stroke-width="4.8"/>
<circle clip-path="url(#clip9802)" cx="2583.08" cy="2130.01" r="17" fill="#800080" fill-rule="evenodd" fill-opacity="1" stroke="#ffffff" stroke-opacity="1" stroke-width="4.8"/>
<circle clip-path="url(#clip9802)" cx="2583.08" cy="2131.34" r="21" fill="#000000" fill-rule="evenodd" fill-opacity="1" stroke="#ffffff" stroke-opacity="1" stroke-width="4.8"/>
<circle clip-path="url(#clip9802)" cx="2583.08" cy="2131.34" r="17" fill="#800080" fill-rule="evenodd" fill-opacity="1" stroke="#ffffff" stroke-opacity="1" stroke-width="4.8"/>
<circle clip-path="url(#clip9802)" cx="2583.08" cy="2132.41" r="21" fill="#000000" fill-rule="evenodd" fill-opacity="1" stroke="#ffffff" stroke-opacity="1" stroke-width="4.8"/>
<circle clip-path="url(#clip9802)" cx="2583.08" cy="2132.41" r="17" fill="#800080" fill-rule="evenodd" fill-opacity="1" stroke="#ffffff" stroke-opacity="1" stroke-width="4.8"/>
<circle clip-path="url(#clip9802)" cx="2583.08" cy="2132.32" r="21" fill="#000000" fill-rule="evenodd" fill-opacity="1" stroke="#ffffff" stroke-opacity="1" stroke-width="4.8"/>
<circle clip-path="url(#clip9802)" cx="2583.08" cy="2132.32" r="17" fill="#800080" fill-rule="evenodd" fill-opacity="1" stroke="#ffffff" stroke-opacity="1" stroke-width="4.8"/>
<circle clip-path="url(#clip9802)" cx="2583.08" cy="2132.34" r="21" fill="#000000" fill-rule="evenodd" fill-opacity="1" stroke="#ffffff" stroke-opacity="1" stroke-width="4.8"/>
<circle clip-path="url(#clip9802)" cx="2583.08" cy="2132.34" r="17" fill="#800080" fill-rule="evenodd" fill-opacity="1" stroke="#ffffff" stroke-opacity="1" stroke-width="4.8"/>
<circle clip-path="url(#clip9802)" cx="2583.08" cy="2129.97" r="21" fill="#000000" fill-rule="evenodd" fill-opacity="1" stroke="#ffffff" stroke-opacity="1" stroke-width="4.8"/>
<circle clip-path="url(#clip9802)" cx="2583.08" cy="2129.97" r="17" fill="#800080" fill-rule="evenodd" fill-opacity="1" stroke="#ffffff" stroke-opacity="1" stroke-width="4.8"/>
<circle clip-path="url(#clip9802)" cx="2583.08" cy="2132.42" r="21" fill="#000000" fill-rule="evenodd" fill-opacity="1" stroke="#ffffff" stroke-opacity="1" stroke-width="4.8"/>
<circle clip-path="url(#clip9802)" cx="2583.08" cy="2132.42" r="17" fill="#800080" fill-rule="evenodd" fill-opacity="1" stroke="#ffffff" stroke-opacity="1" stroke-width="4.8"/>
<circle clip-path="url(#clip9802)" cx="2583.08" cy="2130.14" r="21" fill="#000000" fill-rule="evenodd" fill-opacity="1" stroke="#ffffff" stroke-opacity="1" stroke-width="4.8"/>
<circle clip-path="url(#clip9802)" cx="2583.08" cy="2130.14" r="17" fill="#800080" fill-rule="evenodd" fill-opacity="1" stroke="#ffffff" stroke-opacity="1" stroke-width="4.8"/>
<circle clip-path="url(#clip9802)" cx="2583.08" cy="2132.24" r="21" fill="#000000" fill-rule="evenodd" fill-opacity="1" stroke="#ffffff" stroke-opacity="1" stroke-width="4.8"/>
<circle clip-path="url(#clip9802)" cx="2583.08" cy="2132.24" r="17" fill="#800080" fill-rule="evenodd" fill-opacity="1" stroke="#ffffff" stroke-opacity="1" stroke-width="4.8"/>
<path clip-path="url(#clip9802)" d="
M2583.08 2133.41 L2402.45 2133.41 L2763.71 2133.41 L2583.08 2133.41 L2583.08 2133.41 L2583.08 2133.41  Z
  " fill="#800080" fill-rule="evenodd" fill-opacity="0.5"/>
<polyline clip-path="url(#clip9802)" style="stroke:#000000; stroke-width:4.8; stroke-opacity:1; fill:none" points="
  2583.08,2133.41 2402.45,2133.41 2763.71,2133.41 2583.08,2133.41 
  "/>
<path clip-path="url(#clip9802)" d="
M2402.45 2133.41 L2402.45 2133.41 L2763.71 2133.41 L2763.71 2133.41 L2402.45 2133.41 L2402.45 2133.41  Z
  " fill="#800080" fill-rule="evenodd" fill-opacity="0.5"/>
<polyline clip-path="url(#clip9802)" style="stroke:#000000; stroke-width:4.8; stroke-opacity:1; fill:none" points="
  2402.45,2133.41 2402.45,2133.41 2763.71,2133.41 2402.45,2133.41 
  "/>
<path clip-path="url(#clip9802)" d="
M2402.45 2133.02 L2402.45 2133.41 L2763.71 2133.41 L2763.71 2133.02 L2402.45 2133.02 L2402.45 2133.02  Z
  " fill="#800080" fill-rule="evenodd" fill-opacity="0.5"/>
<polyline clip-path="url(#clip9802)" style="stroke:#000000; stroke-width:4.8; stroke-opacity:1; fill:none" points="
  2402.45,2133.02 2402.45,2133.41 2763.71,2133.41 2763.71,2133.02 2402.45,2133.02 
  "/>
<path clip-path="url(#clip9802)" d="
M2583.08 2132.45 L2402.45 2132.45 L2763.71 2132.45 L2583.08 2132.45 L2583.08 2133.02 L2583.08 2132.45  Z
  " fill="#800080" fill-rule="evenodd" fill-opacity="0.5"/>
<polyline clip-path="url(#clip9802)" style="stroke:#000000; stroke-width:4.8; stroke-opacity:1; fill:none" points="
  2583.08,2132.45 2402.45,2132.45 2763.71,2132.45 2583.08,2132.45 2583.08,2133.02 2583.08,2132.45 
  "/>
<circle clip-path="url(#clip9802)" cx="3215.29" cy="2129.18" r="21" fill="#000000" fill-rule="evenodd" fill-opacity="1" stroke="#ffffff" stroke-opacity="1" stroke-width="4.8"/>
<circle clip-path="url(#clip9802)" cx="3215.29" cy="2129.18" r="17" fill="#ffa500" fill-rule="evenodd" fill-opacity="1" stroke="#ffffff" stroke-opacity="1" stroke-width="4.8"/>
<circle clip-path="url(#clip9802)" cx="3215.29" cy="2126.38" r="21" fill="#000000" fill-rule="evenodd" fill-opacity="1" stroke="#ffffff" stroke-opacity="1" stroke-width="4.8"/>
<circle clip-path="url(#clip9802)" cx="3215.29" cy="2126.38" r="17" fill="#ffa500" fill-rule="evenodd" fill-opacity="1" stroke="#ffffff" stroke-opacity="1" stroke-width="4.8"/>
<circle clip-path="url(#clip9802)" cx="3215.29" cy="2102.89" r="21" fill="#000000" fill-rule="evenodd" fill-opacity="1" stroke="#ffffff" stroke-opacity="1" stroke-width="4.8"/>
<circle clip-path="url(#clip9802)" cx="3215.29" cy="2102.89" r="17" fill="#ffa500" fill-rule="evenodd" fill-opacity="1" stroke="#ffffff" stroke-opacity="1" stroke-width="4.8"/>
<circle clip-path="url(#clip9802)" cx="3215.29" cy="2115.86" r="21" fill="#000000" fill-rule="evenodd" fill-opacity="1" stroke="#ffffff" stroke-opacity="1" stroke-width="4.8"/>
<circle clip-path="url(#clip9802)" cx="3215.29" cy="2115.86" r="17" fill="#ffa500" fill-rule="evenodd" fill-opacity="1" stroke="#ffffff" stroke-opacity="1" stroke-width="4.8"/>
<circle clip-path="url(#clip9802)" cx="3215.29" cy="2117.25" r="21" fill="#000000" fill-rule="evenodd" fill-opacity="1" stroke="#ffffff" stroke-opacity="1" stroke-width="4.8"/>
<circle clip-path="url(#clip9802)" cx="3215.29" cy="2117.25" r="17" fill="#ffa500" fill-rule="evenodd" fill-opacity="1" stroke="#ffffff" stroke-opacity="1" stroke-width="4.8"/>
<circle clip-path="url(#clip9802)" cx="3215.29" cy="2085.28" r="21" fill="#000000" fill-rule="evenodd" fill-opacity="1" stroke="#ffffff" stroke-opacity="1" stroke-width="4.8"/>
<circle clip-path="url(#clip9802)" cx="3215.29" cy="2085.28" r="17" fill="#ffa500" fill-rule="evenodd" fill-opacity="1" stroke="#ffffff" stroke-opacity="1" stroke-width="4.8"/>
<circle clip-path="url(#clip9802)" cx="3215.29" cy="2129.23" r="21" fill="#000000" fill-rule="evenodd" fill-opacity="1" stroke="#ffffff" stroke-opacity="1" stroke-width="4.8"/>
<circle clip-path="url(#clip9802)" cx="3215.29" cy="2129.23" r="17" fill="#ffa500" fill-rule="evenodd" fill-opacity="1" stroke="#ffffff" stroke-opacity="1" stroke-width="4.8"/>
<circle clip-path="url(#clip9802)" cx="3215.29" cy="2015.72" r="21" fill="#000000" fill-rule="evenodd" fill-opacity="1" stroke="#ffffff" stroke-opacity="1" stroke-width="4.8"/>
<circle clip-path="url(#clip9802)" cx="3215.29" cy="2015.72" r="17" fill="#ffa500" fill-rule="evenodd" fill-opacity="1" stroke="#ffffff" stroke-opacity="1" stroke-width="4.8"/>
<circle clip-path="url(#clip9802)" cx="3215.29" cy="2125.24" r="21" fill="#000000" fill-rule="evenodd" fill-opacity="1" stroke="#ffffff" stroke-opacity="1" stroke-width="4.8"/>
<circle clip-path="url(#clip9802)" cx="3215.29" cy="2125.24" r="17" fill="#ffa500" fill-rule="evenodd" fill-opacity="1" stroke="#ffffff" stroke-opacity="1" stroke-width="4.8"/>
<circle clip-path="url(#clip9802)" cx="3215.29" cy="2096.51" r="21" fill="#000000" fill-rule="evenodd" fill-opacity="1" stroke="#ffffff" stroke-opacity="1" stroke-width="4.8"/>
<circle clip-path="url(#clip9802)" cx="3215.29" cy="2096.51" r="17" fill="#ffa500" fill-rule="evenodd" fill-opacity="1" stroke="#ffffff" stroke-opacity="1" stroke-width="4.8"/>
<circle clip-path="url(#clip9802)" cx="3215.29" cy="2117.74" r="21" fill="#000000" fill-rule="evenodd" fill-opacity="1" stroke="#ffffff" stroke-opacity="1" stroke-width="4.8"/>
<circle clip-path="url(#clip9802)" cx="3215.29" cy="2117.74" r="17" fill="#ffa500" fill-rule="evenodd" fill-opacity="1" stroke="#ffffff" stroke-opacity="1" stroke-width="4.8"/>
<circle clip-path="url(#clip9802)" cx="3215.29" cy="2126.74" r="21" fill="#000000" fill-rule="evenodd" fill-opacity="1" stroke="#ffffff" stroke-opacity="1" stroke-width="4.8"/>
<circle clip-path="url(#clip9802)" cx="3215.29" cy="2126.74" r="17" fill="#ffa500" fill-rule="evenodd" fill-opacity="1" stroke="#ffffff" stroke-opacity="1" stroke-width="4.8"/>
<circle clip-path="url(#clip9802)" cx="3215.29" cy="2085.72" r="21" fill="#000000" fill-rule="evenodd" fill-opacity="1" stroke="#ffffff" stroke-opacity="1" stroke-width="4.8"/>
<circle clip-path="url(#clip9802)" cx="3215.29" cy="2085.72" r="17" fill="#ffa500" fill-rule="evenodd" fill-opacity="1" stroke="#ffffff" stroke-opacity="1" stroke-width="4.8"/>
<path clip-path="url(#clip9802)" d="
M3215.29 2133.41 L2989.5 2133.41 L3441.08 2133.41 L3215.29 2133.41 L3215.29 2133.41 L3215.29 2133.41  Z
  " fill="#ffa500" fill-rule="evenodd" fill-opacity="0.5"/>
<polyline clip-path="url(#clip9802)" style="stroke:#000000; stroke-width:4.8; stroke-opacity:1; fill:none" points="
  3215.29,2133.41 2989.5,2133.41 3441.08,2133.41 3215.29,2133.41 
  "/>
<path clip-path="url(#clip9802)" d="
M3034.66 2133.41 L3034.66 2133.41 L3395.92 2133.41 L3395.92 2133.41 L3034.66 2133.41 L3034.66 2133.41  Z
  " fill="#ffa500" fill-rule="evenodd" fill-opacity="0.5"/>
<polyline clip-path="url(#clip9802)" style="stroke:#000000; stroke-width:4.8; stroke-opacity:1; fill:none" points="
  3034.66,2133.41 3034.66,2133.41 3395.92,2133.41 3034.66,2133.41 
  "/>
<path clip-path="url(#clip9802)" d="
M3034.66 2132.08 L3034.66 2133.41 L3395.92 2133.41 L3395.92 2132.08 L3034.66 2132.08 L3034.66 2132.08  Z
  " fill="#ffa500" fill-rule="evenodd" fill-opacity="0.5"/>
<polyline clip-path="url(#clip9802)" style="stroke:#000000; stroke-width:4.8; stroke-opacity:1; fill:none" points="
  3034.66,2132.08 3034.66,2133.41 3395.92,2133.41 3395.92,2132.08 3034.66,2132.08 
  "/>
<path clip-path="url(#clip9802)" d="
M3215.29 2130.12 L2989.5 2130.12 L3441.08 2130.12 L3215.29 2130.12 L3215.29 2132.08 L3215.29 2130.12  Z
  " fill="#ffa500" fill-rule="evenodd" fill-opacity="0.5"/>
<polyline clip-path="url(#clip9802)" style="stroke:#000000; stroke-width:4.8; stroke-opacity:1; fill:none" points="
  3215.29,2130.12 2989.5,2130.12 3441.08,2130.12 3215.29,2130.12 3215.29,2132.08 3215.29,2130.12 
  "/>
</svg>
