<?xml version="1.0" encoding="utf-8"?>
<svg xmlns="http://www.w3.org/2000/svg" xmlns:xlink="http://www.w3.org/1999/xlink" width="900" height="600" viewBox="0 0 3600 2400">
<defs>
  <clipPath id="clip9000">
    <rect x="0" y="0" width="3600" height="2400"/>
  </clipPath>
</defs>
<path clip-path="url(#clip9000)" d="
M0 2400 L3600 2400 L3600 0 L0 0  Z
  " fill="#ffffff" fill-rule="evenodd" fill-opacity="1"/>
<defs>
  <clipPath id="clip9001">
    <rect x="720" y="0" width="2521" height="2400"/>
  </clipPath>
</defs>
<path clip-path="url(#clip9000)" d="
M417.763 2193.49 L3529.13 2193.49 L3529.13 70.8661 L417.763 70.8661  Z
  " fill="#ffffff" fill-rule="evenodd" fill-opacity="1"/>
<defs>
  <clipPath id="clip9002">
    <rect x="417" y="70" width="3112" height="2124"/>
  </clipPath>
</defs>
<polyline clip-path="url(#clip9002)" style="stroke:#000000; stroke-width:2.4; stroke-opacity:0.1; fill:none" points="
  686.451,2193.49 686.451,70.8661 
  "/>
<polyline clip-path="url(#clip9002)" style="stroke:#000000; stroke-width:2.4; stroke-opacity:0.1; fill:none" points="
  1318.66,2193.49 1318.66,70.8661 
  "/>
<polyline clip-path="url(#clip9002)" style="stroke:#000000; stroke-width:2.4; stroke-opacity:0.1; fill:none" points="
  1950.87,2193.49 1950.87,70.8661 
  "/>
<polyline clip-path="url(#clip9002)" style="stroke:#000000; stroke-width:2.4; stroke-opacity:0.1; fill:none" points="
  2583.08,2193.49 2583.08,70.8661 
  "/>
<polyline clip-path="url(#clip9002)" style="stroke:#000000; stroke-width:2.4; stroke-opacity:0.1; fill:none" points="
  3215.29,2193.49 3215.29,70.8661 
  "/>
<polyline clip-path="url(#clip9002)" style="stroke:#000000; stroke-width:2.4; stroke-opacity:0.1; fill:none" points="
  417.763,2133.41 3529.13,2133.41 
  "/>
<polyline clip-path="url(#clip9002)" style="stroke:#000000; stroke-width:2.4; stroke-opacity:0.1; fill:none" points="
  417.763,1496.8 3529.13,1496.8 
  "/>
<polyline clip-path="url(#clip9002)" style="stroke:#000000; stroke-width:2.4; stroke-opacity:0.1; fill:none" points="
  417.763,860.179 3529.13,860.179 
  "/>
<polyline clip-path="url(#clip9002)" style="stroke:#000000; stroke-width:2.4; stroke-opacity:0.1; fill:none" points="
  417.763,223.562 3529.13,223.562 
  "/>
<polyline clip-path="url(#clip9000)" style="stroke:#000000; stroke-width:4.8; stroke-opacity:1; fill:none" points="
  417.763,2193.49 3529.13,2193.49 
  "/>
<polyline clip-path="url(#clip9000)" style="stroke:#000000; stroke-width:4.8; stroke-opacity:1; fill:none" points="
  417.763,2193.49 417.763,70.8661 
  "/>
<polyline clip-path="url(#clip9000)" style="stroke:#000000; stroke-width:4.8; stroke-opacity:1; fill:none" points="
  686.451,2193.49 686.451,2161.65 
  "/>
<polyline clip-path="url(#clip9000)" style="stroke:#000000; stroke-width:4.8; stroke-opacity:1; fill:none" points="
  1318.66,2193.49 1318.66,2161.65 
  "/>
<polyline clip-path="url(#clip9000)" style="stroke:#000000; stroke-width:4.8; stroke-opacity:1; fill:none" points="
  1950.87,2193.49 1950.87,2161.65 
  "/>
<polyline clip-path="url(#clip9000)" style="stroke:#000000; stroke-width:4.8; stroke-opacity:1; fill:none" points="
  2583.08,2193.49 2583.08,2161.65 
  "/>
<polyline clip-path="url(#clip9000)" style="stroke:#000000; stroke-width:4.8; stroke-opacity:1; fill:none" points="
  3215.29,2193.49 3215.29,2161.65 
  "/>
<polyline clip-path="url(#clip9000)" style="stroke:#000000; stroke-width:4.8; stroke-opacity:1; fill:none" points="
  417.763,2133.41 464.433,2133.41 
  "/>
<polyline clip-path="url(#clip9000)" style="stroke:#000000; stroke-width:4.8; stroke-opacity:1; fill:none" points="
  417.763,1496.8 464.433,1496.8 
  "/>
<polyline clip-path="url(#clip9000)" style="stroke:#000000; stroke-width:4.8; stroke-opacity:1; fill:none" points="
  417.763,860.179 464.433,860.179 
  "/>
<polyline clip-path="url(#clip9000)" style="stroke:#000000; stroke-width:4.8; stroke-opacity:1; fill:none" points="
  417.763,223.562 464.433,223.562 
  "/>
<g clip-path="url(#clip9000)">
<text style="fill:#000000; fill-opacity:1; font-family:Arial,Helvetica Neue,Helvetica,sans-serif; font-size:125px; text-anchor:middle;" transform="rotate(0, 686.451, 2320.69)" x="686.451" y="2320.69">0</text>
</g>
<g clip-path="url(#clip9000)">
<text style="fill:#000000; fill-opacity:1; font-family:Arial,Helvetica Neue,Helvetica,sans-serif; font-size:125px; text-anchor:middle;" transform="rotate(0, 1318.66, 2320.69)" x="1318.66" y="2320.69">I</text>
</g>
<g clip-path="url(#clip9000)">
<text style="fill:#000000; fill-opacity:1; font-family:Arial,Helvetica Neue,Helvetica,sans-serif; font-size:125px; text-anchor:middle;" transform="rotate(0, 1950.87, 2320.69)" x="1950.87" y="2320.69">II</text>
</g>
<g clip-path="url(#clip9000)">
<text style="fill:#000000; fill-opacity:1; font-family:Arial,Helvetica Neue,Helvetica,sans-serif; font-size:125px; text-anchor:middle;" transform="rotate(0, 2583.08, 2320.69)" x="2583.08" y="2320.69">III</text>
</g>
<g clip-path="url(#clip9000)">
<text style="fill:#000000; fill-opacity:1; font-family:Arial,Helvetica Neue,Helvetica,sans-serif; font-size:125px; text-anchor:middle;" transform="rotate(0, 3215.29, 2320.69)" x="3215.29" y="2320.69">IV</text>
</g>
<g clip-path="url(#clip9000)">
<text style="fill:#000000; fill-opacity:1; font-family:Arial,Helvetica Neue,Helvetica,sans-serif; font-size:125px; text-anchor:end;" transform="rotate(0, 381.763, 2178.91)" x="381.763" y="2178.91">0.0</text>
</g>
<g clip-path="url(#clip9000)">
<text style="fill:#000000; fill-opacity:1; font-family:Arial,Helvetica Neue,Helvetica,sans-serif; font-size:125px; text-anchor:end;" transform="rotate(0, 381.763, 1542.3)" x="381.763" y="1542.3">0.5</text>
</g>
<g clip-path="url(#clip9000)">
<text style="fill:#000000; fill-opacity:1; font-family:Arial,Helvetica Neue,Helvetica,sans-serif; font-size:125px; text-anchor:end;" transform="rotate(0, 381.763, 905.679)" x="381.763" y="905.679">1.0</text>
</g>
<g clip-path="url(#clip9000)">
<text style="fill:#000000; fill-opacity:1; font-family:Arial,Helvetica Neue,Helvetica,sans-serif; font-size:125px; text-anchor:end;" transform="rotate(0, 381.763, 269.062)" x="381.763" y="269.062">1.5</text>
</g>
<g clip-path="url(#clip9000)">
<text style="fill:#000000; fill-opacity:1; font-family:Arial,Helvetica Neue,Helvetica,sans-serif; font-size:125px; text-anchor:middle;" transform="rotate(-90, 147.298, 1132.18)" x="147.298" y="1132.18">Exceedance [s]</text>
</g>
<circle clip-path="url(#clip9002)" cx="686.451" cy="2068.63" r="21" fill="#000000" fill-rule="evenodd" fill-opacity="1" stroke="#ffffff" stroke-opacity="1" stroke-width="4.8"/>
<circle clip-path="url(#clip9002)" cx="686.451" cy="2068.63" r="17" fill="#0000ff" fill-rule="evenodd" fill-opacity="1" stroke="#ffffff" stroke-opacity="1" stroke-width="4.8"/>
<circle clip-path="url(#clip9002)" cx="686.451" cy="2090.98" r="21" fill="#000000" fill-rule="evenodd" fill-opacity="1" stroke="#ffffff" stroke-opacity="1" stroke-width="4.8"/>
<circle clip-path="url(#clip9002)" cx="686.451" cy="2090.98" r="17" fill="#0000ff" fill-rule="evenodd" fill-opacity="1" stroke="#ffffff" stroke-opacity="1" stroke-width="4.8"/>
<circle clip-path="url(#clip9002)" cx="686.451" cy="2110.06" r="21" fill="#000000" fill-rule="evenodd" fill-opacity="1" stroke="#ffffff" stroke-opacity="1" stroke-width="4.8"/>
<circle clip-path="url(#clip9002)" cx="686.451" cy="2110.06" r="17" fill="#0000ff" fill-rule="evenodd" fill-opacity="1" stroke="#ffffff" stroke-opacity="1" stroke-width="4.8"/>
<circle clip-path="url(#clip9002)" cx="686.451" cy="544.875" r="21" fill="#000000" fill-rule="evenodd" fill-opacity="1" stroke="#ffffff" stroke-opacity="1" stroke-width="4.8"/>
<circle clip-path="url(#clip9002)" cx="686.451" cy="544.875" r="17" fill="#0000ff" fill-rule="evenodd" fill-opacity="1" stroke="#ffffff" stroke-opacity="1" stroke-width="4.8"/>
<circle clip-path="url(#clip9002)" cx="686.451" cy="130.94" r="21" fill="#000000" fill-rule="evenodd" fill-opacity="1" stroke="#ffffff" stroke-opacity="1" stroke-width="4.8"/>
<circle clip-path="url(#clip9002)" cx="686.451" cy="130.94" r="17" fill="#0000ff" fill-rule="evenodd" fill-opacity="1" stroke="#ffffff" stroke-opacity="1" stroke-width="4.8"/>
<circle clip-path="url(#clip9002)" cx="686.451" cy="1518.8" r="21" fill="#000000" fill-rule="evenodd" fill-opacity="1" stroke="#ffffff" stroke-opacity="1" stroke-width="4.8"/>
<circle clip-path="url(#clip9002)" cx="686.451" cy="1518.8" r="17" fill="#0000ff" fill-rule="evenodd" fill-opacity="1" stroke="#ffffff" stroke-opacity="1" stroke-width="4.8"/>
<circle clip-path="url(#clip9002)" cx="686.451" cy="736.92" r="21" fill="#000000" fill-rule="evenodd" fill-opacity="1" stroke="#ffffff" stroke-opacity="1" stroke-width="4.8"/>
<circle clip-path="url(#clip9002)" cx="686.451" cy="736.92" r="17" fill="#0000ff" fill-rule="evenodd" fill-opacity="1" stroke="#ffffff" stroke-opacity="1" stroke-width="4.8"/>
<circle clip-path="url(#clip9002)" cx="686.451" cy="613.132" r="21" fill="#000000" fill-rule="evenodd" fill-opacity="1" stroke="#ffffff" stroke-opacity="1" stroke-width="4.8"/>
<circle clip-path="url(#clip9002)" cx="686.451" cy="613.132" r="17" fill="#0000ff" fill-rule="evenodd" fill-opacity="1" stroke="#ffffff" stroke-opacity="1" stroke-width="4.8"/>
<circle clip-path="url(#clip9002)" cx="686.451" cy="1088.4" r="21" fill="#000000" fill-rule="evenodd" fill-opacity="1" stroke="#ffffff" stroke-opacity="1" stroke-width="4.8"/>
<circle clip-path="url(#clip9002)" cx="686.451" cy="1088.4" r="17" fill="#0000ff" fill-rule="evenodd" fill-opacity="1" stroke="#ffffff" stroke-opacity="1" stroke-width="4.8"/>
<circle clip-path="url(#clip9002)" cx="686.451" cy="1140.58" r="21" fill="#000000" fill-rule="evenodd" fill-opacity="1" stroke="#ffffff" stroke-opacity="1" stroke-width="4.8"/>
<circle clip-path="url(#clip9002)" cx="686.451" cy="1140.58" r="17" fill="#0000ff" fill-rule="evenodd" fill-opacity="1" stroke="#ffffff" stroke-opacity="1" stroke-width="4.8"/>
<circle clip-path="url(#clip9002)" cx="686.451" cy="1501.77" r="21" fill="#000000" fill-rule="evenodd" fill-opacity="1" stroke="#ffffff" stroke-opacity="1" stroke-width="4.8"/>
<circle clip-path="url(#clip9002)" cx="686.451" cy="1501.77" r="17" fill="#0000ff" fill-rule="evenodd" fill-opacity="1" stroke="#ffffff" stroke-opacity="1" stroke-width="4.8"/>
<circle clip-path="url(#clip9002)" cx="686.451" cy="1070.37" r="21" fill="#000000" fill-rule="evenodd" fill-opacity="1" stroke="#ffffff" stroke-opacity="1" stroke-width="4.8"/>
<circle clip-path="url(#clip9002)" cx="686.451" cy="1070.37" r="17" fill="#0000ff" fill-rule="evenodd" fill-opacity="1" stroke="#ffffff" stroke-opacity="1" stroke-width="4.8"/>
<circle clip-path="url(#clip9002)" cx="686.451" cy="1621.52" r="21" fill="#000000" fill-rule="evenodd" fill-opacity="1" stroke="#ffffff" stroke-opacity="1" stroke-width="4.8"/>
<circle clip-path="url(#clip9002)" cx="686.451" cy="1621.52" r="17" fill="#0000ff" fill-rule="evenodd" fill-opacity="1" stroke="#ffffff" stroke-opacity="1" stroke-width="4.8"/>
<circle clip-path="url(#clip9002)" cx="686.451" cy="1782.33" r="21" fill="#000000" fill-rule="evenodd" fill-opacity="1" stroke="#ffffff" stroke-opacity="1" stroke-width="4.8"/>
<circle clip-path="url(#clip9002)" cx="686.451" cy="1782.33" r="17" fill="#0000ff" fill-rule="evenodd" fill-opacity="1" stroke="#ffffff" stroke-opacity="1" stroke-width="4.8"/>
<circle clip-path="url(#clip9002)" cx="686.451" cy="2061.72" r="21" fill="#000000" fill-rule="evenodd" fill-opacity="1" stroke="#ffffff" stroke-opacity="1" stroke-width="4.8"/>
<circle clip-path="url(#clip9002)" cx="686.451" cy="2061.72" r="17" fill="#0000ff" fill-rule="evenodd" fill-opacity="1" stroke="#ffffff" stroke-opacity="1" stroke-width="4.8"/>
<circle clip-path="url(#clip9002)" cx="686.451" cy="543.847" r="21" fill="#000000" fill-rule="evenodd" fill-opacity="1" stroke="#ffffff" stroke-opacity="1" stroke-width="4.8"/>
<circle clip-path="url(#clip9002)" cx="686.451" cy="543.847" r="17" fill="#0000ff" fill-rule="evenodd" fill-opacity="1" stroke="#ffffff" stroke-opacity="1" stroke-width="4.8"/>
<circle clip-path="url(#clip9002)" cx="686.451" cy="2111.79" r="21" fill="#000000" fill-rule="evenodd" fill-opacity="1" stroke="#ffffff" stroke-opacity="1" stroke-width="4.8"/>
<circle clip-path="url(#clip9002)" cx="686.451" cy="2111.79" r="17" fill="#0000ff" fill-rule="evenodd" fill-opacity="1" stroke="#ffffff" stroke-opacity="1" stroke-width="4.8"/>
<circle clip-path="url(#clip9002)" cx="686.451" cy="1497.48" r="21" fill="#000000" fill-rule="evenodd" fill-opacity="1" stroke="#ffffff" stroke-opacity="1" stroke-width="4.8"/>
<circle clip-path="url(#clip9002)" cx="686.451" cy="1497.48" r="17" fill="#0000ff" fill-rule="evenodd" fill-opacity="1" stroke="#ffffff" stroke-opacity="1" stroke-width="4.8"/>
<circle clip-path="url(#clip9002)" cx="686.451" cy="2068.65" r="21" fill="#000000" fill-rule="evenodd" fill-opacity="1" stroke="#ffffff" stroke-opacity="1" stroke-width="4.8"/>
<circle clip-path="url(#clip9002)" cx="686.451" cy="2068.65" r="17" fill="#0000ff" fill-rule="evenodd" fill-opacity="1" stroke="#ffffff" stroke-opacity="1" stroke-width="4.8"/>
<circle clip-path="url(#clip9002)" cx="686.451" cy="2103.19" r="21" fill="#000000" fill-rule="evenodd" fill-opacity="1" stroke="#ffffff" stroke-opacity="1" stroke-width="4.8"/>
<circle clip-path="url(#clip9002)" cx="686.451" cy="2103.19" r="17" fill="#0000ff" fill-rule="evenodd" fill-opacity="1" stroke="#ffffff" stroke-opacity="1" stroke-width="4.8"/>
<path clip-path="url(#clip9002)" d="
M686.451 2133.41 L573.557 2133.41 L799.346 2133.41 L686.451 2133.41 L686.451 2133.41 L686.451 2133.41  Z
  " fill="#0000ff" fill-rule="evenodd" fill-opacity="0.5"/>
<polyline clip-path="url(#clip9002)" style="stroke:#000000; stroke-width:4.8; stroke-opacity:1; fill:none" points="
  686.451,2133.41 573.557,2133.41 799.346,2133.41 686.451,2133.41 
  "/>
<path clip-path="url(#clip9002)" d="
M505.82 2133.41 L505.82 2133.41 L867.083 2133.41 L867.083 2133.41 L505.82 2133.41 L505.82 2133.41  Z
  " fill="#0000ff" fill-rule="evenodd" fill-opacity="0.5"/>
<polyline clip-path="url(#clip9002)" style="stroke:#000000; stroke-width:4.8; stroke-opacity:1; fill:none" points="
  505.82,2133.41 505.82,2133.41 867.083,2133.41 505.82,2133.41 
  "/>
<path clip-path="url(#clip9002)" d="
M505.82 2133.41 L505.82 2133.41 L867.083 2133.41 L867.083 2133.41 L505.82 2133.41 L505.82 2133.41  Z
  " fill="#0000ff" fill-rule="evenodd" fill-opacity="0.5"/>
<polyline clip-path="url(#clip9002)" style="stroke:#000000; stroke-width:4.8; stroke-opacity:1; fill:none" points="
  505.82,2133.41 505.82,2133.41 867.083,2133.41 505.82,2133.41 
  "/>
<path clip-path="url(#clip9002)" d="
M686.451 2133.41 L573.557 2133.41 L799.346 2133.41 L686.451 2133.41 L686.451 2133.41 L686.451 2133.41  Z
  " fill="#0000ff" fill-rule="evenodd" fill-opacity="0.5"/>
<polyline clip-path="url(#clip9002)" style="stroke:#000000; stroke-width:4.8; stroke-opacity:1; fill:none" points="
  686.451,2133.41 573.557,2133.41 799.346,2133.41 686.451,2133.41 
  "/>
<path clip-path="url(#clip9002)" d="
M1318.66 2133.41 L1138.03 2133.41 L1499.29 2133.41 L1318.66 2133.41 L1318.66 2133.41 L1318.66 2133.41  Z
  " fill="#ff0000" fill-rule="evenodd" fill-opacity="0.5"/>
<polyline clip-path="url(#clip9002)" style="stroke:#000000; stroke-width:4.8; stroke-opacity:1; fill:none" points="
  1318.66,2133.41 1138.03,2133.41 1499.29,2133.41 1318.66,2133.41 
  "/>
<path clip-path="url(#clip9002)" d="
M1138.03 2133.41 L1138.03 2133.41 L1499.29 2133.41 L1499.29 2133.41 L1138.03 2133.41 L1138.03 2133.41  Z
  " fill="#ff0000" fill-rule="evenodd" fill-opacity="0.5"/>
<polyline clip-path="url(#clip9002)" style="stroke:#000000; stroke-width:4.8; stroke-opacity:1; fill:none" points="
  1138.03,2133.41 1138.03,2133.41 1499.29,2133.41 1138.03,2133.41 
  "/>
<path clip-path="url(#clip9002)" d="
M1138.03 2133.41 L1138.03 2133.41 L1499.29 2133.41 L1499.29 2133.41 L1138.03 2133.41 L1138.03 2133.41  Z
  " fill="#ff0000" fill-rule="evenodd" fill-opacity="0.5"/>
<polyline clip-path="url(#clip9002)" style="stroke:#000000; stroke-width:4.8; stroke-opacity:1; fill:none" points="
  1138.03,2133.41 1138.03,2133.41 1499.29,2133.41 1138.03,2133.41 
  "/>
<path clip-path="url(#clip9002)" d="
M1318.66 2133.41 L1138.03 2133.41 L1499.29 2133.41 L1318.66 2133.41 L1318.66 2133.41 L1318.66 2133.41  Z
  " fill="#ff0000" fill-rule="evenodd" fill-opacity="0.5"/>
<polyline clip-path="url(#clip9002)" style="stroke:#000000; stroke-width:4.8; stroke-opacity:1; fill:none" points="
  1318.66,2133.41 1138.03,2133.41 1499.29,2133.41 1318.66,2133.41 
  "/>
<path clip-path="url(#clip9002)" d="
M1950.87 2133.41 L1770.24 2133.41 L2131.5 2133.41 L1950.87 2133.41 L1950.87 2133.41 L1950.87 2133.41  Z
  " fill="#008000" fill-rule="evenodd" fill-opacity="0.5"/>
<polyline clip-path="url(#clip9002)" style="stroke:#000000; stroke-width:4.8; stroke-opacity:1; fill:none" points="
  1950.87,2133.41 1770.24,2133.41 2131.5,2133.41 1950.87,2133.41 
  "/>
<path clip-path="url(#clip9002)" d="
M1770.24 2133.41 L1770.24 2133.41 L2131.5 2133.41 L2131.5 2133.41 L1770.24 2133.41 L1770.24 2133.41  Z
  " fill="#008000" fill-rule="evenodd" fill-opacity="0.5"/>
<polyline clip-path="url(#clip9002)" style="stroke:#000000; stroke-width:4.8; stroke-opacity:1; fill:none" points="
  1770.24,2133.41 1770.24,2133.41 2131.5,2133.41 1770.24,2133.41 
  "/>
<path clip-path="url(#clip9002)" d="
M1770.24 2133.41 L1770.24 2133.41 L2131.5 2133.41 L2131.5 2133.41 L1770.24 2133.41 L1770.24 2133.41  Z
  " fill="#008000" fill-rule="evenodd" fill-opacity="0.5"/>
<polyline clip-path="url(#clip9002)" style="stroke:#000000; stroke-width:4.8; stroke-opacity:1; fill:none" points="
  1770.24,2133.41 1770.24,2133.41 2131.5,2133.41 1770.24,2133.41 
  "/>
<path clip-path="url(#clip9002)" d="
M1950.87 2133.41 L1770.24 2133.41 L2131.5 2133.41 L1950.87 2133.41 L1950.87 2133.41 L1950.87 2133.41  Z
  " fill="#008000" fill-rule="evenodd" fill-opacity="0.5"/>
<polyline clip-path="url(#clip9002)" style="stroke:#000000; stroke-width:4.8; stroke-opacity:1; fill:none" points="
  1950.87,2133.41 1770.24,2133.41 2131.5,2133.41 1950.87,2133.41 
  "/>
<circle clip-path="url(#clip9002)" cx="2583.08" cy="2133.41" r="21" fill="#000000" fill-rule="evenodd" fill-opacity="1" stroke="#ffffff" stroke-opacity="1" stroke-width="4.8"/>
<circle clip-path="url(#clip9002)" cx="2583.08" cy="2133.41" r="17" fill="#800080" fill-rule="evenodd" fill-opacity="1" stroke="#ffffff" stroke-opacity="1" stroke-width="4.8"/>
<circle clip-path="url(#clip9002)" cx="2583.08" cy="2133.36" r="21" fill="#000000" fill-rule="evenodd" fill-opacity="1" stroke="#ffffff" stroke-opacity="1" stroke-width="4.8"/>
<circle clip-path="url(#clip9002)" cx="2583.08" cy="2133.36" r="17" fill="#800080" fill-rule="evenodd" fill-opacity="1" stroke="#ffffff" stroke-opacity="1" stroke-width="4.8"/>
<circle clip-path="url(#clip9002)" cx="2583.08" cy="2133.41" r="21" fill="#000000" fill-rule="evenodd" fill-opacity="1" stroke="#ffffff" stroke-opacity="1" stroke-width="4.8"/>
<circle clip-path="url(#clip9002)" cx="2583.08" cy="2133.41" r="17" fill="#800080" fill-rule="evenodd" fill-opacity="1" stroke="#ffffff" stroke-opacity="1" stroke-width="4.8"/>
<path clip-path="url(#clip9002)" d="
M2583.08 2133.41 L2402.45 2133.41 L2763.71 2133.41 L2583.08 2133.41 L2583.08 2133.41 L2583.08 2133.41  Z
  " fill="#800080" fill-rule="evenodd" fill-opacity="0.5"/>
<polyline clip-path="url(#clip9002)" style="stroke:#000000; stroke-width:4.8; stroke-opacity:1; fill:none" points="
  2583.08,2133.41 2402.45,2133.41 2763.71,2133.41 2583.08,2133.41 
  "/>
<path clip-path="url(#clip9002)" d="
M2402.45 2133.41 L2402.45 2133.41 L2763.71 2133.41 L2763.71 2133.41 L2402.45 2133.41 L2402.45 2133.41  Z
  " fill="#800080" fill-rule="evenodd" fill-opacity="0.5"/>
<polyline clip-path="url(#clip9002)" style="stroke:#000000; stroke-width:4.8; stroke-opacity:1; fill:none" points="
  2402.45,2133.41 2402.45,2133.41 2763.71,2133.41 2402.45,2133.41 
  "/>
<path clip-path="url(#clip9002)" d="
M2402.45 2133.41 L2402.45 2133.41 L2763.71 2133.41 L2763.71 2133.41 L2402.45 2133.41 L2402.45 2133.41  Z
  " fill="#800080" fill-rule="evenodd" fill-opacity="0.5"/>
<polyline clip-path="url(#clip9002)" style="stroke:#000000; stroke-width:4.8; stroke-opacity:1; fill:none" points="
  2402.45,2133.41 2402.45,2133.41 2763.71,2133.41 2402.45,2133.41 
  "/>
<path clip-path="url(#clip9002)" d="
M2583.08 2133.41 L2402.45 2133.41 L2763.71 2133.41 L2583.08 2133.41 L2583.08 2133.41 L2583.08 2133.41  Z
  " fill="#800080" fill-rule="evenodd" fill-opacity="0.5"/>
<polyline clip-path="url(#clip9002)" style="stroke:#000000; stroke-width:4.8; stroke-opacity:1; fill:none" points="
  2583.08,2133.41 2402.45,2133.41 2763.71,2133.41 2583.08,2133.41 
  "/>
<circle clip-path="url(#clip9002)" cx="3215.29" cy="2133.3" r="21" fill="#000000" fill-rule="evenodd" fill-opacity="1" stroke="#ffffff" stroke-opacity="1" stroke-width="4.8"/>
<circle clip-path="url(#clip9002)" cx="3215.29" cy="2133.3" r="17" fill="#ffa500" fill-rule="evenodd" fill-opacity="1" stroke="#ffffff" stroke-opacity="1" stroke-width="4.8"/>
<circle clip-path="url(#clip9002)" cx="3215.29" cy="2122.38" r="21" fill="#000000" fill-rule="evenodd" fill-opacity="1" stroke="#ffffff" stroke-opacity="1" stroke-width="4.8"/>
<circle clip-path="url(#clip9002)" cx="3215.29" cy="2122.38" r="17" fill="#ffa500" fill-rule="evenodd" fill-opacity="1" stroke="#ffffff" stroke-opacity="1" stroke-width="4.8"/>
<path clip-path="url(#clip9002)" d="
M3215.29 2133.41 L2989.5 2133.41 L3441.08 2133.41 L3215.29 2133.41 L3215.29 2133.41 L3215.29 2133.41  Z
  " fill="#ffa500" fill-rule="evenodd" fill-opacity="0.5"/>
<polyline clip-path="url(#clip9002)" style="stroke:#000000; stroke-width:4.8; stroke-opacity:1; fill:none" points="
  3215.29,2133.41 2989.5,2133.41 3441.08,2133.41 3215.29,2133.41 
  "/>
<path clip-path="url(#clip9002)" d="
M3034.66 2133.41 L3034.66 2133.41 L3395.92 2133.41 L3395.92 2133.41 L3034.66 2133.41 L3034.66 2133.41  Z
  " fill="#ffa500" fill-rule="evenodd" fill-opacity="0.5"/>
<polyline clip-path="url(#clip9002)" style="stroke:#000000; stroke-width:4.8; stroke-opacity:1; fill:none" points="
  3034.66,2133.41 3034.66,2133.41 3395.92,2133.41 3034.66,2133.41 
  "/>
<path clip-path="url(#clip9002)" d="
M3034.66 2133.41 L3034.66 2133.41 L3395.92 2133.41 L3395.92 2133.41 L3034.66 2133.41 L3034.66 2133.41  Z
  " fill="#ffa500" fill-rule="evenodd" fill-opacity="0.5"/>
<polyline clip-path="url(#clip9002)" style="stroke:#000000; stroke-width:4.8; stroke-opacity:1; fill:none" points="
  3034.66,2133.41 3034.66,2133.41 3395.92,2133.41 3034.66,2133.41 
  "/>
<path clip-path="url(#clip9002)" d="
M3215.29 2133.41 L2989.5 2133.41 L3441.08 2133.41 L3215.29 2133.41 L3215.29 2133.41 L3215.29 2133.41  Z
  " fill="#ffa500" fill-rule="evenodd" fill-opacity="0.5"/>
<polyline clip-path="url(#clip9002)" style="stroke:#000000; stroke-width:4.8; stroke-opacity:1; fill:none" points="
  3215.29,2133.41 2989.5,2133.41 3441.08,2133.41 3215.29,2133.41 
  "/>
</svg>
